<svg xmlns="http://www.w3.org/2000/svg" viewBox="0 0 448.95 228.89"><defs><style>.a,.b{fill:#e0e4f0;}.a{opacity:0.5;}.b{opacity:0.47;}.c{fill:#8184c4;}.d,.o{opacity:0.2;}.e,.h{fill:#191c3c;}.f{fill:#f5f7f9;opacity:0.08;}.g{fill:none;stroke:#191c3c;stroke-miterlimit:10;}.h{opacity:0.3;}.i{fill:#fcd991;}.j{fill:#6371c5;}.k,.o,.t{fill:#3a3c4e;}.l{fill:#4d5068;}.m{fill:#fec55e;}.n{fill:#474963;}.p{fill:#4a5594;}.q{fill:#e6e7e8;}.r{fill:#fff;}.s{fill:#bf9447;}.t{opacity:0.1;}.u{fill:#feca71;}</style></defs><title>Asset 1</title><circle class="a" cx="426.58" cy="146.67" r="10.44"/><circle class="a" cx="274.14" cy="17.16" r="13.52"/><circle class="a" cx="94.9" cy="34.41" r="6.89"/><circle class="a" cx="337.17" cy="47.53" r="6.89"/><circle class="a" cx="179.78" cy="6.89" r="6.89"/><circle class="a" cx="437.02" cy="176.87" r="2.83"/><circle class="a" cx="327.77" cy="22.7" r="2.12"/><circle class="a" cx="122.08" cy="6.89" r="2.76"/><circle class="a" cx="22.2" cy="67.04" r="3.67"/><circle class="a" cx="430.26" cy="101.9" r="3.67"/><circle class="a" cx="58.8" cy="55.52" r="15.58"/><circle class="a" cx="8.28" cy="183.3" r="3.67"/><circle class="a" cx="406.71" cy="47.53" r="15.11"/><circle class="a" cx="11.96" cy="115.25" r="11.96"/><path class="b" d="M424.6,227.39a194.39,194.39,0,0,0-16.79-79.28A61.52,61.52,0,0,0,334.14,62.7,194.17,194.17,0,0,0,229.51,32.3q-7.19,0-14.26.51A50.25,50.25,0,0,0,138.09,55,195.69,195.69,0,0,0,97.39,83.85,55.69,55.69,0,0,0,42,173.47a195.19,195.19,0,0,0-7.55,53.92Z"/><path class="b" d="M370.13,227a141.7,141.7,0,1,0-283.4,0Z"/><path class="c" d="M345.42,207.16v.05S345,206.39,345.42,207.16Zm6.71,7c7.5-7.1,13.86-15.7,16.81-25.6s2.17-21.19-3.57-29.77a63.52,63.52,0,0,0-19.95,48.34c-.2,2.62-.39,10.21.82,12.35.34.61,2.27-1.14,3.86-2.64C350.6,216.4,351.63,214.66,352.13,214.19Z"/><g class="d"><path class="e" d="M350.1,216.87c.5-.47,1.53-2.21,2-2.68,7.5-7.1,13.86-15.7,16.81-25.6a39.65,39.65,0,0,0,1.52-14.77A39.27,39.27,0,0,1,366,190.25c-4.66,8.93-12.28,16-20.73,21.53,0,3,.22,6.41,1,7.73C346.58,220.12,348.51,218.37,350.1,216.87Z"/></g><path class="c" d="M367.64,222.91c-4.16,1.38-10.35,3.27-14.34,1.47-3.15-1.42-7.69-3.89-7-7.05,3.51-2.63,10.64-8,13.42-11.35,2.33-2.85,4.78-7.27,7.28-10,6.34-6.86,14.75-9.45,23.31-13.2a116.89,116.89,0,0,1-4.15,20.69c-1.31,4.41-3,8.87-6.06,12.27C376.8,219.33,372.22,221.39,367.64,222.91Z"/><path class="f" d="M359.41,207.81c2.79-2.4,6-6.32,8.92-8.54,6.19-4.69,13.26-6.22,20.68-7.86q.79-4.28,1.26-8.61c-8.56,3.75-17,6.34-23.31,13.2-2.5,2.7-5,7.13-7.28,10a47.42,47.42,0,0,1-6.14,5.72A41.53,41.53,0,0,0,359.41,207.81Z"/><path class="c" d="M389.7,226.63c-6.45,2.29-13.46,2.18-20.31,2-2.6-.05-6.9.56-9.43-.08a18.46,18.46,0,0,1-5.85-3.22c-1.54-1.12.32-2.44,1.85-3.39s3.92-2.47,3.35-1.68c4-1.1,6.49-1.73,10.49-2.8a65.4,65.4,0,0,1,9.37-2.48c7.87-1.27,15.88.37,23.68,2A28.68,28.68,0,0,1,389.7,226.63Z"/><path class="e" d="M363.94,163.87c.22,9-.14,17.67-2.71,26.32a68,68,0,0,1-11.52,22.23c-.27.35.32.7.59.35a67.63,67.63,0,0,0,11.49-22.42c2.56-8.72,2.82-17.45,2.35-26.48,0-.14-.22-.14-.21,0Z"/><path class="e" d="M387.63,185.68A71.32,71.32,0,0,1,374,205c-6.08,6.05-13.35,10.09-20.51,14.66a.19.19,0,0,0,.19.34c14.84-7.71,27.38-18.7,34.15-34.25,0-.11-.11-.2-.16-.1Z"/><path class="e" d="M399.78,217.4c-14,4.54-27.43,9.87-42.42,6.54-.31-.07-.45.41-.14.48,14.24,3.11,29.59-1,42.6-6.9a.06.06,0,0,0,0-.11Z"/><path class="e" d="M358.85,170.24a29.84,29.84,0,0,1,2.78,3,36,36,0,0,1,2.1,3.53c.05.09.21,0,.17-.07a13.65,13.65,0,0,0-5-6.55s-.09,0-.05.07Z"/><path class="e" d="M355.25,177.41c4.51,2.55,5.8,6.18,6.29,11.13a.26.26,0,1,0,.52-.06c-.57-4.69-1.92-9.37-6.78-11.16,0,0-.08.06,0,.08Z"/><path class="e" d="M354.55,186.34c2.21,2.87,5.57,5.85,4.48,9.85a.17.17,0,0,0,.32.09c1.15-4-2.19-7.34-4.68-10.06-.07-.08-.18,0-.12.12Z"/><path class="e" d="M349.77,195.08c3.33,2.71,6.39,6.61,4,11-.14.25.25.48.39.23,2.38-4.38-.5-9-4.33-11.35-.06,0-.14.05-.08.1Z"/><path class="e" d="M369.49,174.81c-2.86.55-4.63,3-6.17,5.29-.11.16.16.33.27.16,1.52-2.31,3.14-4.54,5.95-5.28a.09.09,0,0,0,0-.17Z"/><path class="e" d="M368.76,184.24a19,19,0,0,0-7.21,4.94c-.17.17.1.44.26.27a23.91,23.91,0,0,1,7-5.12s0-.11,0-.09Z"/><path class="e" d="M365.52,192.2a12.47,12.47,0,0,0-3.68,2c-.82.64-2.42,1.63-2.82,2.6a.25.25,0,0,0,.06.25l.1.1a.26.26,0,0,0,.4,0l.08-.11a.22.22,0,0,0,0-.27l-.1-.09c-.08-.07-.23-.06-.25.06-.05.34,1.54-1,1.51-1,.44-.4.88-.8,1.35-1.18a17.13,17.13,0,0,1,3.43-2.19c.07,0,0-.15,0-.12Z"/><path class="e" d="M362.07,198.83a28.79,28.79,0,0,0-7.85,7.12c-.25.32.19.79.45.46a55.29,55.29,0,0,1,7.55-7.38c.11-.09,0-.27-.15-.2Z"/><path class="e" d="M378.17,189.73c.28,5,0,9.26-2.83,13.64-.18.29.27.55.46.27,2.57-3.84,4.12-9.4,2.63-13.94,0-.13-.26-.13-.25,0Z"/><path class="e" d="M369.77,197.45a28.59,28.59,0,0,1-.56,7,49.53,49.53,0,0,1-2.12,6.19c-.11.27.33.39.43.12,1.6-4.16,3.44-8.85,2.37-13.38a.06.06,0,0,0-.12,0Z"/><path class="e" d="M362.41,206.63a44.68,44.68,0,0,1-.61,5A7.26,7.26,0,0,1,359,216c-.23.2.1.54.33.34a7.34,7.34,0,0,0,2.78-4.08,21.17,21.17,0,0,0,.47-5.62.09.09,0,0,0-.19,0Z"/><path class="e" d="M383.83,200a16.84,16.84,0,0,0-5.26,1.71c-1,.44-2.88.86-3.08,2.14,0,.11.12.23.21.13,2-2.28,5.68-2.35,8.17-3.83.06,0,0-.15,0-.15Z"/><path class="e" d="M381.48,207.49a56.37,56.37,0,0,0-14.55,3.58c-.23.08-.14.45.09.37a105.33,105.33,0,0,1,14.48-3.77c.1,0,.09-.19,0-.18Z"/><path class="e" d="M371,215.4c-4.2-.06-8.51,1-12.65,1.57-.32,0-.2.54.12.49,4.18-.68,8.36-1.3,12.56-1.84.13,0,.1-.22,0-.22Z"/><path class="e" d="M391.88,215.82a48.19,48.19,0,0,1-11.1,7.22c-.34.15-.06.65.28.5a37.52,37.52,0,0,0,11.07-7.47c.16-.16-.07-.4-.25-.25Z"/><path class="e" d="M391.05,225.46c-3.19-1.45-7.24-1.76-10.7-2-.31,0-.32.46,0,.48a53.8,53.8,0,0,1,5.91.72c1.59.29,3.15.79,4.74,1a.11.11,0,0,0,.06-.21Z"/><path class="e" d="M379,219.87a66.83,66.83,0,0,1-10.77,5c-.11,0,0,.19.07.18A22.83,22.83,0,0,0,379.16,220c.09-.07,0-.22-.12-.16Z"/><path class="e" d="M368.06,225.33a45.28,45.28,0,0,1,7.09,3.2c.18.11.35-.17.17-.28a20.05,20.05,0,0,0-7.24-3c-.06,0-.06.08,0,.09Z"/><path class="c" d="M395.37,207l-.23.11c-2.35,1.12-3.6.94-5.89-.12a24,24,0,0,1-5.91-3.68,12.34,12.34,0,0,1-4.29-7.53,2.68,2.68,0,0,1,.31-1.91,2.15,2.15,0,0,1,2.49-.52,7.51,7.51,0,0,1,2.19,1.6,2.48,2.48,0,0,0,1,.62.91.91,0,0,0,1-.34c.31-.54-.22-1.16-.69-1.55-1.1-.92-2.13-1.45-3.28-2.26a10.85,10.85,0,0,1-3.58-3.85,5.68,5.68,0,0,1-.15-5.11,3.11,3.11,0,0,1,1.05-1.2,3.75,3.75,0,0,1,2.78-.28,26.78,26.78,0,0,0,2.79.65c2.25.23,3.13-1.35,3.08-3.41,0-1.39-.48-2.73-.56-4.11a6.32,6.32,0,0,1,3.27-6.07c2.21-1,5.29,0,6.08,2.26.86,2.51-1.1,5.33.2,7.72a7.33,7.33,0,0,0,2.12,2.32c1.23.76,3-.13,4.44-.07a1.29,1.29,0,0,1,.89.29,1.22,1.22,0,0,1,.28.64,5.31,5.31,0,0,1-1.61,4.84c-1.48,1.35-4.06,2-4.69,4.16-.39,1.31-.22,4.59,1.87,4.26.78-.12,1.31-.9,2.06-1.15a2.09,2.09,0,0,1,2.41,1.19,3.66,3.66,0,0,1-.07,2.86A12,12,0,0,1,402,201C399.75,203.35,398.3,205.54,395.37,207Z"/><line class="g" x1="392.26" y1="176.45" x2="392.26" y2="227.47"/><polyline class="g" points="398.18 185.29 392.26 191.21 386.34 185.29"/><polyline class="g" points="398.18 197.18 392.26 203.1 386.34 197.18"/><path class="h" d="M404.47,180.54a1.29,1.29,0,0,0-.89-.29c-1.43-.07-3.21.83-4.44.07A7.33,7.33,0,0,1,397,178c-.94-1.74-.17-3.7,0-5.6a2.54,2.54,0,0,0-2,1,3.75,3.75,0,0,0-.44,2.68,17.25,17.25,0,0,0,6,10.53c.26.23.53.45.8.67a11.51,11.51,0,0,0,1.76-1.22,5.31,5.31,0,0,0,1.61-4.84A1.22,1.22,0,0,0,404.47,180.54Z"/><path class="i" d="M419.77,191.73l-.32.15c-3.29,1.57-5,1.31-8.24-.17a33.57,33.57,0,0,1-8.26-5.14A17.25,17.25,0,0,1,397,176a3.75,3.75,0,0,1,.44-2.68,3,3,0,0,1,3.48-.72,10.51,10.51,0,0,1,3.07,2.24,3.47,3.47,0,0,0,1.35.87,1.27,1.27,0,0,0,1.43-.48c.43-.75-.3-1.62-1-2.17-1.54-1.28-3-2-4.59-3.16a15.18,15.18,0,0,1-5-5.38,7.94,7.94,0,0,1-.2-7.15,4.35,4.35,0,0,1,1.47-1.68,5.24,5.24,0,0,1,3.88-.4,37.4,37.4,0,0,0,3.9.91c3.14.33,4.37-1.88,4.31-4.77,0-1.94-.67-3.82-.78-5.75-.2-3.41,1.48-7,4.57-8.49s7.39-.06,8.5,3.17c1.2,3.51-1.54,7.45.27,10.8a10.24,10.24,0,0,0,3,3.24c1.72,1.07,4.2-.19,6.21-.1a1.81,1.81,0,0,1,1.24.4,1.71,1.71,0,0,1,.39.89,7.42,7.42,0,0,1-2.25,6.77c-2.07,1.89-5.67,2.85-6.56,5.81-.55,1.84-.31,6.42,2.61,6,1.1-.17,1.83-1.26,2.88-1.61a2.92,2.92,0,0,1,3.37,1.67,5.12,5.12,0,0,1-.1,4,16.78,16.78,0,0,1-3.85,5.19C425.89,186.65,423.86,189.71,419.77,191.73Z"/><line class="g" x1="415.42" y1="149.03" x2="415.42" y2="227.47"/><polyline class="g" points="423.7 161.4 415.42 169.68 407.14 161.4"/><polyline class="g" points="423.7 178.02 415.42 186.3 407.14 178.02"/><path class="i" d="M79.32,156.43l-.24.12c-2.47,1.18-3.78,1-6.19-.13a25.2,25.2,0,0,1-6.2-3.86,13,13,0,0,1-4.5-7.91,2.81,2.81,0,0,1,.33-2,2.26,2.26,0,0,1,2.61-.54,7.89,7.89,0,0,1,2.3,1.68,2.61,2.61,0,0,0,1,.65,1,1,0,0,0,1.07-.36c.32-.56-.23-1.21-.73-1.63-1.15-1-2.24-1.52-3.45-2.37a11.39,11.39,0,0,1-3.76-4,6,6,0,0,1-.15-5.36,3.27,3.27,0,0,1,1.1-1.26,3.94,3.94,0,0,1,2.92-.3,28,28,0,0,0,2.92.69c2.36.25,3.28-1.41,3.24-3.58,0-1.45-.5-2.87-.59-4.32a6.64,6.64,0,0,1,3.43-6.37c2.32-1.09,5.55,0,6.38,2.38.9,2.63-1.16,5.59.2,8.11a7.69,7.69,0,0,0,2.23,2.43c1.29.8,3.15-.14,4.66-.07a1.36,1.36,0,0,1,.93.3,1.28,1.28,0,0,1,.29.67,5.57,5.57,0,0,1-1.69,5.08c-1.56,1.42-4.26,2.14-4.92,4.36-.41,1.38-.23,4.82,2,4.47.82-.13,1.37-.95,2.16-1.21a2.2,2.2,0,0,1,2.53,1.25,3.85,3.85,0,0,1-.07,3,12.6,12.6,0,0,1-2.89,3.9C83.92,152.62,82.39,154.92,79.32,156.43Z"/><line class="g" x1="76.06" y1="124.38" x2="76.06" y2="214"/><polyline class="g" points="82.27 133.66 76.06 139.88 69.84 133.66"/><polyline class="g" points="82.27 146.14 76.06 152.36 69.84 146.14"/><path class="c" d="M55.09,182.33l-.19.09c-2,.95-3,.79-5-.1a20.2,20.2,0,0,1-5-3.09,10.38,10.38,0,0,1-3.61-6.34,2.25,2.25,0,0,1,.27-1.61,1.81,1.81,0,0,1,2.09-.43,6.32,6.32,0,0,1,1.85,1.35,2.09,2.09,0,0,0,.81.52.76.76,0,0,0,.86-.29c.26-.45-.18-1-.58-1.31-.92-.77-1.79-1.22-2.76-1.9a9.13,9.13,0,0,1-3-3.24,4.78,4.78,0,0,1-.12-4.3,2.62,2.62,0,0,1,.89-1,3.16,3.16,0,0,1,2.34-.24,22.52,22.52,0,0,0,2.34.55c1.89.2,2.63-1.13,2.59-2.87,0-1.17-.4-2.3-.47-3.46a5.32,5.32,0,0,1,2.75-5.11,3.82,3.82,0,0,1,5.11,1.91c.72,2.11-.93,4.48.16,6.5a6.17,6.17,0,0,0,1.79,2c1,.64,2.53-.11,3.74-.06a1.09,1.09,0,0,1,.75.24,1,1,0,0,1,.23.54,4.47,4.47,0,0,1-1.35,4.07c-1.25,1.14-3.42,1.72-3.95,3.5-.33,1.11-.19,3.86,1.57,3.58.66-.11,1.1-.76,1.73-1a1.76,1.76,0,0,1,2,1,3.08,3.08,0,0,1-.06,2.41,10.1,10.1,0,0,1-2.32,3.13C58.78,179.27,57.55,181.12,55.09,182.33Z"/><line class="g" x1="52.47" y1="156.63" x2="52.47" y2="228.49"/><polyline class="g" points="57.46 164.08 52.48 169.06 47.49 164.08"/><polyline class="g" points="57.46 174.08 52.48 179.06 47.49 174.08"/><path class="c" d="M93.29,227.84h.06S92.49,228.24,93.29,227.84Zm7.25-7.06C93.06,213,84,206.51,73.69,203.55s-22.1-2-31,4.05a66.17,66.17,0,0,0,50.58,20.25c2.73.18,10.64.3,12.86-1,.63-.37-1.21-2.35-2.79-4C102.86,222.34,101,221.29,100.54,220.78Z"/><g class="d"><path class="e" d="M103.36,222.86c-.5-.52-2.32-1.57-2.82-2.08C93.06,213,84,206.51,73.69,203.55a41.31,41.31,0,0,0-15.4-1.42,40.91,40.91,0,0,1,17.16,4.46c9.36,4.76,16.84,12.61,22.66,21.36,3.15,0,6.68-.3,8-1.09C106.78,226.49,104.94,224.5,103.36,222.86Z"/></g><path class="c" d="M109.45,204.53c1.48,4.32,3.52,10.74,1.69,14.92-1.44,3.3-4,8.06-7.27,7.4-2.78-3.63-8.4-11-12-13.85-3-2.4-7.63-4.9-10.47-7.48-7.22-6.53-10-15.26-14-24.14a121.76,121.76,0,0,1,21.6,4.1c4.61,1.31,9.27,3,12.84,6.17C105.62,195,107.82,199.76,109.45,204.53Z"/><path class="f" d="M93.82,213.26c-2.53-2.88-6.65-6.17-9-9.2-4.95-6.39-6.63-13.74-8.42-21.45q-4.47-.77-9-1.22c4,8.88,6.79,17.6,14,24.14,2.84,2.57,7.48,5.08,10.47,7.48a49.4,49.4,0,0,1,6,6.33A43.27,43.27,0,0,0,93.82,213.26Z"/><path class="c" d="M113.08,181.5c2.45,6.69,2.42,14,2.36,21.13,0,2.71.66,7.18,0,9.82a19.22,19.22,0,0,1-3.29,6.13c-1.15,1.62-2.55-.31-3.55-1.89s-2.62-4.05-1.78-3.47c-1.19-4.13-1.87-6.74-3-10.89a68.14,68.14,0,0,1-2.69-9.74c-1.41-8.18.21-16.55,1.82-24.69A29.88,29.88,0,0,1,113.08,181.5Z"/><path class="e" d="M48,209c9.32-.33,18.41,0,27.45,2.53a70.83,70.83,0,0,1,23.29,11.75c.37.28.72-.35.36-.62A70.46,70.46,0,0,0,75.6,211c-9.12-2.57-18.21-2.74-27.61-2.16-.14,0-.15.23,0,.22Z"/><path class="e" d="M70.45,184.11a74.3,74.3,0,0,1,20.31,14c6.37,6.27,10.65,13.79,15.49,21.2a.2.2,0,0,0,.35-.2c-8.19-15.37-19.79-28.32-36.06-35.19-.11,0-.21.11-.1.17Z"/><path class="e" d="M103.36,171.1c4.88,14.55,10.58,28.47,7.28,44.12-.07.33.43.46.5.14,3.08-14.87-1.39-30.81-7.66-44.3a.06.06,0,0,0-.12,0Z"/><path class="e" d="M54.69,214.26a31.09,31.09,0,0,1,3.12-2.93,37.46,37.46,0,0,1,3.65-2.23c.09-.05,0-.21-.07-.18a14.22,14.22,0,0,0-6.77,5.29s0,.09.07.06Z"/><path class="e" d="M62.19,217.93c2.61-4.73,6.38-6.11,11.53-6.68a.28.28,0,1,0-.06-.55c-4.87.64-9.74,2.1-11.55,7.19,0,.05.06.08.09,0Z"/><path class="e" d="M71.5,218.56c3-2.34,6-5.87,10.21-4.78a.17.17,0,0,0,.09-.33c-4.21-1.15-7.62,2.36-10.43,5-.08.08,0,.19.12.12Z"/><path class="e" d="M80.66,223.45c2.78-3.5,6.82-6.73,11.43-4.31.27.14.5-.26.23-.4-4.59-2.44-9.35.62-11.77,4.63,0,.06.06.14.11.08Z"/><path class="e" d="M59.33,203.13c.61,3,3.19,4.79,5.58,6.37.17.11.34-.17.16-.28-2.43-1.55-4.76-3.22-5.56-6.14a.09.09,0,0,0-.17,0Z"/><path class="e" d="M69.16,203.79a19.82,19.82,0,0,0,5.22,7.46c.18.17.46-.11.27-.27a24.91,24.91,0,0,1-5.41-7.22s-.11,0-.09,0Z"/><path class="e" d="M77.48,207.07a13,13,0,0,0,2.13,3.81c.68.85,1.72,2.5,2.74,2.91a.26.26,0,0,0,.26-.07l.1-.11a.27.27,0,0,0-.05-.42l-.12-.08a.23.23,0,0,0-.28,0l-.09.1c-.07.08-.06.25.07.26.35.05-1.11-1.6-1.07-1.56-.43-.45-.85-.91-1.24-1.39A17.84,17.84,0,0,1,77.61,207c0-.07-.15,0-.13.05Z"/><path class="e" d="M84.43,210.59a30,30,0,0,0,7.5,8.1c.34.26.82-.21.48-.48a57.6,57.6,0,0,1-7.77-7.78c-.1-.11-.28,0-.21.16Z"/><path class="e" d="M74.77,193.92c5.24-.35,9.65-.06,14.24,2.8.3.19.57-.29.28-.48-4-2.63-9.84-4.19-14.55-2.58-.13,0-.13.27,0,.26Z"/><path class="e" d="M82.91,202.59a29.79,29.79,0,0,1,7.35.51,51.6,51.6,0,0,1,6.47,2.14c.28.11.4-.35.12-.45-4.35-1.62-9.26-3.49-14-2.32a.06.06,0,0,0,0,.12Z"/><path class="e" d="M92.55,210.15a46.55,46.55,0,0,1,5.21.58,7.57,7.57,0,0,1,4.59,2.86c.21.24.56-.11.35-.35a7.65,7.65,0,0,0-4.28-2.86,22,22,0,0,0-5.86-.43.1.1,0,0,0,0,.19Z"/><path class="e" d="M85.44,187.9a17.54,17.54,0,0,0,1.84,5.46c.46,1.06.93,3,2.26,3.19.12,0,.24-.13.13-.22-2.39-2-2.51-5.89-4.08-8.46,0-.07-.16,0-.15,0Z"/><path class="e" d="M93.24,190.28a58.72,58.72,0,0,0,3.89,15.11c.09.24.47.14.38-.1a109.74,109.74,0,0,1-4.09-15c0-.1-.2-.09-.19,0Z"/><path class="e" d="M101.59,201.12c0,4.38,1.1,8.85,1.77,13.16.05.33.57.2.51-.13-.75-4.35-1.44-8.69-2.06-13.06,0-.13-.23-.1-.23,0Z"/><path class="e" d="M101.79,179.35a50.2,50.2,0,0,1,7.64,11.49c.16.35.68.05.52-.29a39.09,39.09,0,0,0-7.9-11.45c-.17-.17-.41.08-.26.26Z"/><path class="e" d="M111.85,180.1c-1.48,3.34-1.75,7.56-2,11.17,0,.32.48.33.5,0a56,56,0,0,1,.68-6.16c.28-1.66.79-3.29,1-5a.12.12,0,0,0-.21-.06Z"/><path class="e" d="M106.16,192.68a69.62,69.62,0,0,1,5.38,11.16c0,.11.2,0,.19-.07a23.79,23.79,0,0,0-5.4-11.22c-.08-.09-.23,0-.16.13Z"/><path class="e" d="M112,204.05a47.17,47.17,0,0,1,3.26-7.42.17.17,0,0,0-.3-.17,20.89,20.89,0,0,0-3.06,7.58c0,.06.08.06.1,0Z"/><path class="c" d="M133.13,227.85h.05C134,228.23,133.13,227.85,133.13,227.85Zm-9.6-4.78c-1.52,1.57-3.29,3.48-2.68,3.83,2.13,1.24,9.72,1.12,12.34,1a63.52,63.52,0,0,0,48.55-19.43c-8.52-5.83-19.81-6.74-29.73-3.89s-18.59,9.12-25.77,16.54C125.75,221.56,124,222.57,123.53,223.07Z"/><g class="d"><path class="e" d="M123.53,223.07c.48-.5,2.22-1.5,2.7-2,7.18-7.42,15.85-13.69,25.77-16.54a39.65,39.65,0,0,1,14.78-1.36,39.26,39.26,0,0,0-16.47,4.28c-9,4.57-16.17,12.11-21.75,20.5-3,0-6.41-.29-7.72-1C120.24,226.55,122,224.64,123.53,223.07Z"/></g><path class="c" d="M125,193.12c3.43-3.07,7.91-4.66,12.33-5.93A116.88,116.88,0,0,1,158,183.26c-3.84,8.52-6.52,16.9-13.45,23.17-2.73,2.47-7.18,4.88-10.05,7.18-3.43,2.74-8.83,9.81-11.49,13.3-3.17.63-5.59-3.94-7-7.1-1.76-4,.2-10.18,1.62-14.33C119.24,200.9,121.36,196.34,125,193.12Z"/><path class="f" d="M132.69,213.85c2.43-2.77,6.38-5.92,8.64-8.83,4.75-6.14,6.36-13.19,8.08-20.59q4.29-.74,8.62-1.17c-3.84,8.52-6.52,16.9-13.45,23.17-2.73,2.47-7.18,4.88-10.05,7.18a47.41,47.41,0,0,0-5.79,6.08A41.54,41.54,0,0,1,132.69,213.85Z"/><path class="c" d="M123.93,170.31c1.55,7.82,3.1,15.85,1.75,23.7a65.41,65.41,0,0,1-2.58,9.35c-1.11,4-1.76,6.49-2.91,10.46.8-.56-.81,1.91-1.71,3.33s-2.31,3.36-3.41,1.81a18.45,18.45,0,0,1-3.16-5.89c-.62-2.53,0-6.82,0-9.43-.06-6.84-.09-13.86,2.26-20.28A28.68,28.68,0,0,1,123.93,170.31Z"/><path class="e" d="M176.67,209.79c-8.95-.32-17.67,0-26.34,2.43A68,68,0,0,0,128,223.5c-.35.27-.7-.33-.35-.6a67.63,67.63,0,0,1,22.54-11.25c8.75-2.47,17.48-2.63,26.5-2.07.14,0,.14.22,0,.21Z"/><path class="e" d="M155.11,185.87a71.32,71.32,0,0,0-19.5,13.46c-6.12,6-10.23,13.24-14.87,20.35a.19.19,0,0,1-.34-.19c7.87-14.76,19-27.18,34.61-33.78.11,0,.2.11.09.16Z"/><path class="e" d="M123.52,173.38c-4.69,14-10.16,27.33-7,42.35.07.31-.41.45-.48.13-3-14.27,1.33-29.58,7.35-42.53a.06.06,0,0,1,.11,0Z"/><path class="e" d="M170.25,214.81a29.85,29.85,0,0,0-3-2.82,36,36,0,0,0-3.51-2.14c-.09-.05,0-.21.07-.17a13.65,13.65,0,0,1,6.5,5.07s0,.09-.07.05Z"/><path class="e" d="M163,218.34c-2.5-4.54-6.12-5.87-11.06-6.41a.26.26,0,1,1,.06-.52c4.68.62,9.35,2,11.08,6.9,0,0-.06.08-.08,0Z"/><path class="e" d="M154.1,218.94c-2.84-2.24-5.8-5.63-9.81-4.59a.17.17,0,0,1-.09-.32c4-1.1,7.32,2.27,10,4.79.08.07,0,.18-.12.12Z"/><path class="e" d="M145.32,223.63c-2.67-3.36-6.55-6.46-11-4.14-.25.13-.48-.25-.22-.39,4.41-2.34,9,.6,11.3,4.45,0,.06-.06.14-.1.08Z"/><path class="e" d="M165.79,204.13c-.59,2.86-3.06,4.6-5.35,6.12-.17.11-.32-.16-.16-.27,2.33-1.49,4.57-3.09,5.34-5.89a.09.09,0,0,1,.17,0Z"/><path class="e" d="M156.36,204.76a19,19,0,0,1-5,7.16c-.18.16-.44-.1-.26-.26a23.91,23.91,0,0,0,5.19-6.93s.11,0,.09,0Z"/><path class="e" d="M148.37,207.91a12.47,12.47,0,0,1-2,3.66c-.65.82-1.65,2.4-2.63,2.79a.25.25,0,0,1-.25-.07l-.1-.1a.26.26,0,0,1,.05-.4l.11-.08a.22.22,0,0,1,.27,0l.09.1c.07.08.05.24-.07.25-.34.05,1.06-1.53,1-1.5.41-.43.81-.88,1.19-1.34a17.12,17.12,0,0,0,2.23-3.41c0-.07.15,0,.12,0Z"/><path class="e" d="M141.7,211.28a28.78,28.78,0,0,1-7.2,7.78c-.32.25-.79-.2-.46-.46a55.29,55.29,0,0,0,7.46-7.47c.1-.11.27,0,.2.15Z"/><path class="e" d="M151,195.28c-5-.33-9.26-.06-13.67,2.69-.29.18-.55-.27-.27-.46,3.87-2.52,9.44-4,14-2.48.13,0,.12.26,0,.25Z"/><path class="e" d="M143.15,203.61a28.6,28.6,0,0,0-7.05.49,49.51,49.51,0,0,0-6.21,2.05c-.27.1-.39-.33-.12-.43,4.18-1.56,8.89-3.35,13.4-2.23a.06.06,0,0,1,0,.12Z"/><path class="e" d="M133.9,210.87a44.67,44.67,0,0,0-5,.55,7.26,7.26,0,0,0-4.4,2.75c-.2.23-.54-.11-.34-.34a7.34,7.34,0,0,1,4.11-2.74,21.17,21.17,0,0,1,5.62-.41.09.09,0,0,1,0,.19Z"/><path class="e" d="M140.73,189.51a16.84,16.84,0,0,1-1.77,5.24c-.45,1-.89,2.87-2.17,3.06-.11,0-.23-.12-.12-.21,2.3-2,2.41-5.65,3.92-8.12,0-.06.15,0,.15,0Z"/><path class="e" d="M133.24,191.79a56.36,56.36,0,0,1-3.74,14.51c-.09.23-.45.13-.37-.09a105.34,105.34,0,0,0,3.92-14.43c0-.1.19-.08.18,0Z"/><path class="e" d="M125.22,202.2c0,4.2-1.06,8.5-1.7,12.64,0,.32-.54.2-.49-.12.72-4.18,1.39-8.34,2-12.54,0-.13.22-.1.22,0Z"/><path class="e" d="M125,181.3a48.18,48.18,0,0,0-7.34,11c-.16.33-.65,0-.5-.28a37.52,37.52,0,0,1,7.58-11c.16-.16.4.08.25.25Z"/><path class="e" d="M115.37,182c1.42,3.21,1.68,7.26,1.88,10.72,0,.31-.47.32-.48,0a53.81,53.81,0,0,0-.66-5.92c-.27-1.59-.76-3.16-.94-4.76a.11.11,0,0,1,.21-.06Z"/><path class="e" d="M120.83,194.1a66.83,66.83,0,0,0-5.16,10.72c0,.11-.19,0-.18-.07A22.83,22.83,0,0,1,120.67,194c.07-.09.22,0,.16.12Z"/><path class="e" d="M115.26,205a45.29,45.29,0,0,0-3.13-7.12.17.17,0,0,1,.29-.17,20.05,20.05,0,0,1,2.94,7.28c0,.06-.08.06-.09,0Z"/><path class="c" d="M343.85,218.15l0,0C344.63,217.68,343.85,218.15,343.85,218.15Zm-9.31,5.34c.47,2.13,1.07,4.66,1.7,4.36,2.21-1.08,6.32-7.46,7.64-9.74a63.52,63.52,0,0,0,10.76-51.18c-9.58,3.86-16.59,12.75-19.73,22.58s-2.73,20.53-.53,30.62C334.52,220.81,334.39,222.81,334.54,223.49Z"/><g class="d"><path class="e" d="M334.54,223.49c-.15-.67,0-2.68-.16-3.36-2.19-10.09-2.6-20.78.53-30.62A39.65,39.65,0,0,1,342,176.45a39.27,39.27,0,0,0-5.57,16.08c-1.18,10,1.1,20.17,5,29.47-1.71,2.49-3.79,5.17-5.15,5.84C335.62,228.15,335,225.62,334.54,223.49Z"/></g><path class="c" d="M310.42,205.69c-.65-4.55.5-9.17,1.91-13.55a116.88,116.88,0,0,1,8.23-19.43c5,7.92,10.44,14.8,11.82,24,.54,3.64.08,8.68.39,12.34.38,4.37,3.27,12.79,4.69,16.94-1.23,3-6.38,2.47-9.78,1.87-4.32-.77-8.36-5.81-11-9.3C313.72,214.76,311.1,210.47,310.42,205.69Z"/><path class="f" d="M332,210.76c-1-3.55-1.38-8.59-2.56-12.08-2.47-7.36-7.44-12.61-12.65-18.15q1.76-4,3.81-7.82c5,7.92,10.44,14.8,11.82,24,.54,3.64.08,8.68.39,12.34a47.42,47.42,0,0,0,1.85,8.19A41.53,41.53,0,0,1,332,210.76Z"/><path class="c" d="M290.87,193.89c7.36,3,14.91,6.21,20.69,11.7a65.4,65.4,0,0,1,6.34,7.33c2.7,3.14,4.42,5.07,7.09,8.22,0-1,1.14,1.74,1.82,3.27s1.52,3.79-.38,3.84a18.45,18.45,0,0,1-6.65-.64c-2.45-.89-5.65-3.82-7.83-5.24-5.73-3.75-11.58-7.61-15.62-13.14A28.68,28.68,0,0,1,290.87,193.89Z"/><path class="e" d="M353,171.91c-5.23,7.27-9.84,14.68-12.59,23.27a68,68,0,0,0-3,24.86c0,.44-.66.39-.69,0a67.63,67.63,0,0,1,3.14-25c2.8-8.65,7.51-16,13-23.2.08-.11.26,0,.18.12Z"/><path class="e" d="M321.12,176.58a71.32,71.32,0,0,0,.38,23.69c1.61,8.43,5.34,15.85,8.68,23.66a.19.19,0,0,1-.35.17c-7.91-14.73-12.08-30.88-8.91-47.54,0-.11.2-.11.19,0Z"/><path class="e" d="M293.2,195.93c9,11.64,17.1,23.61,31.36,29.3.3.12.14.59-.16.47-13.52-5.45-23.87-17.51-31.3-29.71,0-.06.06-.12.1-.07Z"/><path class="e" d="M353.59,180a29.83,29.83,0,0,0-4,.93,35.91,35.91,0,0,0-3.73,1.73c-.09,0-.19-.09-.1-.15a13.65,13.65,0,0,1,7.83-2.59c.05,0,.06.08,0,.09Z"/><path class="e" d="M352.53,188c-5.17-.43-8.28,1.84-11.47,5.65a.26.26,0,1,1-.4-.34c3.11-3.55,6.86-6.66,11.89-5.4,0,0,0,.09,0,.09Z"/><path class="e" d="M348.07,195.76c-3.44,1.12-7.9,1.7-9.26,5.61a.17.17,0,0,1-.31-.1c1.33-4,5.95-4.83,9.54-5.67.11,0,.13.13,0,.16Z"/><path class="e" d="M347.1,205.67c-4.28.36-9,1.86-9.53,6.84,0,.29-.48.26-.45,0,.5-5,5.47-7.13,10-6.94.07,0,.08.12,0,.13Z"/><path class="e" d="M342.23,177.82c2.05,2.07,2.13,5.1,2.12,7.85,0,.2-.31.18-.31,0,.05-2.77,0-5.52-1.94-7.71a.09.09,0,0,1,.13-.12Z"/><path class="e" d="M337.52,186a19,19,0,0,1,3.17,8.14c0,.24-.33.31-.37.07a23.91,23.91,0,0,0-2.89-8.16s0-.1.08-.05Z"/><path class="e" d="M335.71,194.41a12.47,12.47,0,0,1,1.91,3.74c.32,1,1.08,2.71.86,3.74a.25.25,0,0,1-.19.17l-.14,0a.26.26,0,0,1-.3-.27v-.14a.22.22,0,0,1,.18-.2l.13,0c.1,0,.23.08.17.2-.14.31-.69-1.73-.68-1.69-.13-.58-.28-1.16-.45-1.73a17.12,17.12,0,0,0-1.6-3.75c0-.06.06-.13.11-.07Z"/><path class="e" d="M334.82,201.84a28.79,28.79,0,0,1,2.47,10.31c0,.41-.6.54-.64.13a55.29,55.29,0,0,0-2.08-10.35c0-.14.18-.21.24-.08Z"/><path class="e" d="M326.64,185.25c-3.06,4-5.19,7.68-5.35,12.87,0,.34-.53.31-.53,0,0-4.62,1.89-10.09,5.69-13,.11-.08.29,0,.19.16Z"/><path class="e" d="M329.24,196.37a28.6,28.6,0,0,0-3.5,6.14,49.53,49.53,0,0,0-1.74,6.31c-.06.28-.49.14-.43-.14,1-4.34,2.15-9.25,5.58-12.38a.06.06,0,0,1,.09.08Z"/><path class="e" d="M330.15,208.09a44.68,44.68,0,0,0-2.31,4.47,7.26,7.26,0,0,0-.15,5.19c.08.3-.39.39-.47.09a7.34,7.34,0,0,1,0-4.94A21.17,21.17,0,0,1,330,208a.09.09,0,0,1,.16.1Z"/><path class="e" d="M316.16,190.57a16.84,16.84,0,0,1,3.38,4.38c.6.93,1.9,2.34,1.34,3.5,0,.1-.23.13-.25,0-.35-3-3.37-5.14-4.59-7.76,0-.07,0-.15.11-.1Z"/><path class="e" d="M313.9,198.06a56.36,56.36,0,0,1,10,11.16c.14.2-.14.45-.28.25a105.33,105.33,0,0,0-9.83-11.27c-.07-.07,0-.21.12-.14Z"/><path class="e" d="M318.12,210.5c3.5,2.32,6.48,5.59,9.57,8.43.24.22-.14.56-.37.34-3.07-2.92-6.17-5.78-9.34-8.6-.09-.08,0-.23.14-.17Z"/><path class="e" d="M300.62,199.07a48.19,48.19,0,0,0,5.11,12.22c.19.32-.32.57-.51.26a37.52,37.52,0,0,1-4.94-12.41.18.18,0,0,1,.35-.07Z"/><path class="e" d="M295.87,207.51c3.46.6,7,2.62,10,4.39.27.16,0,.56-.26.41a53.78,53.78,0,0,0-5.29-2.74c-1.47-.66-3-1.12-4.48-1.85a.11.11,0,0,1,.07-.2Z"/><path class="e" d="M308.94,209.66A66.83,66.83,0,0,0,315,219.9c.07.1-.08.17-.16.11a22.83,22.83,0,0,1-6.08-10.28c0-.11.14-.17.19-.06Z"/><path class="e" d="M314.93,220.36a45.27,45.27,0,0,0-7.66-1.35.17.17,0,0,1,0-.33,20.05,20.05,0,0,1,7.68,1.59c.05,0,0,.1,0,.09Z"/><path class="i" d="M171.67,226.75l-.24.12c-2.47,1.18-3.78,1-6.19-.13a25.2,25.2,0,0,1-6.2-3.86,13,13,0,0,1-4.5-7.91,2.81,2.81,0,0,1,.33-2,2.26,2.26,0,0,1,2.61-.54,7.89,7.89,0,0,1,2.3,1.68,2.61,2.61,0,0,0,1,.65,1,1,0,0,0,1.07-.36c.32-.56-.23-1.21-.73-1.63-1.15-1-2.24-1.52-3.45-2.37a11.39,11.39,0,0,1-3.76-4,6,6,0,0,1-.15-5.36,3.27,3.27,0,0,1,1.1-1.26,3.94,3.94,0,0,1,2.92-.3,28,28,0,0,0,2.92.69c2.36.25,3.28-1.41,3.24-3.58,0-1.45-.5-2.87-.59-4.32a6.64,6.64,0,0,1,3.43-6.37c2.32-1.09,5.55,0,6.38,2.38.9,2.63-1.16,5.59.2,8.11a7.69,7.69,0,0,0,2.23,2.43c1.29.8,3.15-.14,4.66-.07a1.36,1.36,0,0,1,.93.3,1.28,1.28,0,0,1,.29.67,5.57,5.57,0,0,1-1.69,5.08c-1.56,1.42-4.26,2.14-4.92,4.36-.41,1.38-.23,4.82,2,4.47.82-.13,1.37-.94,2.16-1.21a2.2,2.2,0,0,1,2.53,1.25,3.85,3.85,0,0,1-.07,3,12.6,12.6,0,0,1-2.89,3.9C176.26,222.93,174.74,225.24,171.67,226.75Z"/><line class="g" x1="168.4" y1="194.7" x2="168.4" y2="226.86"/><polyline class="g" points="174.62 203.98 168.4 210.19 162.19 203.98"/><polyline class="g" points="174.62 216.46 168.4 222.67 162.19 216.46"/><rect class="j" x="107.97" y="217.72" width="7.03" height="7.28"/><rect class="j" x="124.43" y="217.72" width="7.03" height="7.28"/><polygon class="k" points="125.3 142.86 124.67 187.51 123.64 220.44 132.29 220.44 134.06 187.28 140.34 153.76 140.34 142.86 125.3 142.86"/><polygon class="h" points="124.55 191.41 125.53 187.28 133.23 156.13 140.34 151.6 140.34 142.86 125.3 142.86 124.67 187.51 124.55 191.41"/><polygon class="l" points="114.4 142.86 112.82 188.94 107.06 220.44 115.7 220.44 123.64 187.28 131.34 156.13 140.34 150.39 140.34 142.86 114.4 142.86"/><path class="m" d="M123.21,221.84l-.52,1V228H147l1.42-.71-1-3.48a.46.46,0,0,0-.58-.28l-1.71.57-3.79-.95-6.49-3.74a1.29,1.29,0,0,0-1.89.05l-2.52,2.86h-5.45l-.65-.65A.68.68,0,0,0,123.21,221.84Z"/><polygon class="e" points="146.97 227.07 122.69 227.07 122.69 228.02 146.97 228.02 148.39 227.31 148.11 226.5 146.97 227.07"/><rect class="e" x="135.28" y="219.88" width="1.36" height="2.13" transform="translate(-123.43 216.56) rotate(-57.43)"/><rect class="e" x="137.81" y="221.44" width="1.36" height="2.13" transform="translate(-123.58 219.42) rotate(-57.43)"/><path class="e" d="M129.33,223.75a1.88,1.88,0,0,1-2.4,1.81l-4.23-1.21v-.6Z"/><path class="h" d="M131.18,227.86l1.52-.76-1.11-3.73a.49.49,0,0,0-.62-.3l-1.82.61-4.05-1-1.74-1a.65.65,0,0,0-.16.18l-.52,1v5Z"/><path class="m" d="M106.63,221.84l-.52,1V228h24.28l1.42-.71-1-3.48a.46.46,0,0,0-.58-.28l-1.71.57-3.79-.95-6.49-3.74a1.29,1.29,0,0,0-1.89.05l-2.52,2.86h-5.45l-.65-.65A.68.68,0,0,0,106.63,221.84Z"/><polygon class="e" points="130.39 227.07 106.11 227.07 106.11 228.02 130.39 228.02 131.81 227.31 131.53 226.5 130.39 227.07"/><rect class="e" x="118.7" y="219.88" width="1.36" height="2.13" transform="translate(-131.08 202.59) rotate(-57.43)"/><rect class="e" x="121.23" y="221.44" width="1.36" height="2.13" transform="translate(-131.23 205.44) rotate(-57.43)"/><path class="e" d="M112.74,223.75a1.88,1.88,0,0,1-2.4,1.81l-4.23-1.21v-.6Z"/><path class="h" d="M124.27,145.84l-1.19,2.93a4.14,4.14,0,0,1-3.83,2.58h-5.12v.47h6.07a4.14,4.14,0,0,0,3.83-2.58l1.74-4.29Z"/><path class="j" d="M147.09,96.55H154L145.59,83,141,80.64a3.79,3.79,0,0,1-2.08-3.38V69.19a.33.33,0,0,1,.33-.33h0a3.75,3.75,0,0,1,2.93,1.41l4.52,5.66,1.46,3.66,14.66,17.12a1.57,1.57,0,0,1-.24,2.27h0a16,16,0,0,1-5.69,2.75l-10.5,2.7Z"/><rect class="j" x="119.33" y="82.5" width="11.18" height="17.25"/><path class="e" d="M132.09,70.13c-.59-.79-1.55-.66-2.32-1.11-.92-.55-1.05-1-2.19-1.19a7.59,7.59,0,0,0-3.07,0c-1.5.36-2.81,1.44-4.35,1.47-.49,0-1-.09-1.48,0a1.29,1.29,0,0,0-1.15.79c-.14.46.08,1.07-.31,1.36a1.29,1.29,0,0,1-.63.15,3.08,3.08,0,0,0-2.19,3.1,3.72,3.72,0,0,0,.31.88,22.77,22.77,0,0,1,1.75,4.79c.28,1.49,1.06,2.92,1.13,4.45A9.66,9.66,0,0,0,118.95,89c.07.14.24.3.36.2a.26.26,0,0,0,.07-.15,14.15,14.15,0,0,0,.19-1.8,3,3,0,0,1,.62-1.68,5.87,5.87,0,0,0,.43-.47c.4-.56.23-1.37.48-2,.32-.83.85-1.57,1.16-2.41a1.87,1.87,0,0,1,.39-.73,1.7,1.7,0,0,1,.58-.32l2.72-1.07a9.11,9.11,0,0,1,1.76-.56,4,4,0,0,0,1-.22,2.67,2.67,0,0,0,1.2-2,3.37,3.37,0,0,1,1-2.16c.31-.23.73-.36.9-.7s0-.77.16-1.12c.07-.19.22-.35.31-.54A1.15,1.15,0,0,0,132.09,70.13Z"/><path class="h" d="M119.33,85a2.6,2.6,0,0,0,1.17.37l1.72.11.41.63a5.16,5.16,0,0,0,3.27,2.24l4.61-.93V82.5H119.33Z"/><path class="j" d="M133.77,77.82l.64,1.52a3.73,3.73,0,0,1,.28,1.81l-.39,4A2.71,2.71,0,0,1,131,87.53l-5.14-1.07a5.16,5.16,0,0,1-3.27-2.24l-.41-.63-1.72-.11a2.61,2.61,0,0,1-1.89-1h0a2.29,2.29,0,0,1-.49-1.42v-.42a1.67,1.67,0,0,1,.41-1.09h0a1.4,1.4,0,0,1,1.35-.46l.75.16v-3.5a4.28,4.28,0,0,1,3.27-4.16l4.31-1,4,.73Z"/><path class="n" d="M119.33,79.1a.19.19,0,0,1-.27-.17V76.48l-.95.46v2.47a.19.19,0,0,0,.27.17Z"/><polygon class="h" points="148.51 96.55 147.09 96.55 146.34 104.43 147.8 104.06 148.51 96.55"/><polygon class="m" points="130.51 93 139.91 94.9 147.25 94.9 146.22 105.71 139.91 109.35 130.51 94.9 130.51 93"/><polygon class="m" points="119.33 90.47 111.88 99.75 113.3 145.35 141.01 145.35 139.91 109.35 130.51 92.84 126.91 99.75 119.33 90.47"/><path class="e" d="M120.64,75.72c.63-.81,1.56-1,2.22-1.71.2-.21.37-.76.59-.9s1,0,1.26,0a3,3,0,0,0,1.75-.68c1-.78.89-1.05,2.24-1.08a1.24,1.24,0,0,0,0-2.48,4.18,4.18,0,0,0-2.79.59c-.31.24-.57.73-.89.93-.65.4-1.37.11-2.06.27-1.22.29-1.3,1.14-2.22,1.84a10.31,10.31,0,0,0-2.24,2c-1,1.26,1.18,2.5,2.14,1.25Z"/><path class="n" d="M141.48,78.13l-7.26.66-.71-.63-2.68.3a7.79,7.79,0,0,1-6.61-1.68l-.73-2.41L132,70Z"/><path class="n" d="M140.06,76.71l-10.42-2.9a.75.75,0,0,1-.55-.73V68.81a.75.75,0,0,1,1-.73L140.46,71a.75.75,0,0,1,.55.73V76A.75.75,0,0,1,140.06,76.71Z"/><path class="e" d="M129.8,74.05l-13.31,6.5a.19.19,0,0,1-.27-.17V77.92l13.58-6.63Z"/><path class="n" d="M117.43,80.08a.19.19,0,0,1-.27-.17V77.46l-.95.46v2.47a.19.19,0,0,0,.27.17Z"/><path class="n" d="M119.33,79.1a.19.19,0,0,1-.27-.17V76.48l-.95.46v2.47a.19.19,0,0,0,.27.17Z"/><path class="n" d="M121.22,78.23a.19.19,0,0,1-.27-.17V75.61l-.95.46v2.47a.19.19,0,0,0,.27.17Z"/><path class="n" d="M123.12,77.33a.19.19,0,0,1-.27-.17V74.71l-.95.46v2.47a.19.19,0,0,0,.27.17Z"/><path class="n" d="M125,76.35a.19.19,0,0,1-.27-.17V73.73l-.95.46v2.47a.19.19,0,0,0,.27.17Z"/><path class="n" d="M126.91,75.47a.19.19,0,0,1-.27-.17V72.85l-.95.46v2.47a.19.19,0,0,0,.27.17Z"/><path class="n" d="M128.8,74.52a.19.19,0,0,1-.27-.17V71.9l-.95.46v2.47a.19.19,0,0,0,.27.17Z"/><path class="e" d="M141.48,78.13l-10.42-2.9a.75.75,0,0,1-.55-.73v-5.7a.75.75,0,0,1,1-.73L141.88,71a.75.75,0,0,1,.55.73v5.7A.75.75,0,0,1,141.48,78.13Z"/><ellipse class="n" cx="137.02" cy="73.1" rx="0.55" ry="1.14"/><path class="o" d="M115.56,133.83c0,1.16-1.18,3.21-1,4.54a15.66,15.66,0,0,0,.44,2.35c.35,1.47,2.62.85,2.27-.62-.53-2.18,0-5.21-1.5-7.05l.21-.93a1.15,1.15,0,0,0-.3-1.14c-.72-.66-3.9-4.69-2.29-6.22a1.19,1.19,0,0,0,.18-1.42,11.12,11.12,0,0,1-.88-1.36l2.06-.94a1.18,1.18,0,0,0,.42-1.61,8.5,8.5,0,0,1-1.69-5.07c0-.81.5-1.34.51-2.14,0-1.33-.81-2.41-.72-3.73a1,1,0,0,0-1.14-1.13l.76,24.5a4.55,4.55,0,0,1,.34,1.52,1.05,1.05,0,0,0,0,.53l.05.19A1.17,1.17,0,0,0,115.56,133.83Z"/><path class="j" d="M115.59,151.33h-.73l-1.18-3.08V139l-8.42-12.42a3.32,3.32,0,0,1-.57-1.86V113.4l7.18,1.92-.64,10.85,6.54,12,3.38,4.2,1.36,6.72h0a1.65,1.65,0,0,1-1.54-1.19l-.35-1.21-.36,4.62Z"/><polygon class="h" points="104.69 115.23 111.76 117.12 111.87 115.32 104.69 113.4 104.69 115.23"/><path class="m" d="M119.33,90.48l-10,4.95a9.46,9.46,0,0,0-5.23,7.76l-.78,10.26,9.16,2.45,2-9.32,4.85-11.69Z"/><path class="p" d="M350.23,214.76l-.52,3.64-9.52,4.67-7.27,1.56s.61,3.15,6.32,3.35,17-.41,17-.41h0a4.31,4.31,0,0,0,1-2.81v-1.43a2.11,2.11,0,0,0-1.3-1.95h0l-.09-5.94Z"/><path class="q" d="M357.24,223.34a2.08,2.08,0,0,0-.2-.84c-.62.32-1.51,1.82-2.14,1.84-3.65.14-7.73.35-10.78.25s-4.88-.27-5.7-1.14l-5.51,1.18s.61,3.15,6.32,3.35,17-.41,17-.41a4.31,4.31,0,0,0,1-2.81Z"/><path class="j" d="M343.9,216.05v1.82l-14.15,6s-.78,4.56,8.05,3.71l15.71-3a23.28,23.28,0,0,0,.87-3.34,3,3,0,0,0-1-2.71h0l-3.24-3Z"/><path class="r" d="M354.14,219.58a5.78,5.78,0,0,1-3.36,2.56l-6.15,1.74c-7.53.73-8.16-1.92-8.15-2.89l-6.74,2.84s-.78,4.56,8.05,3.71l15.71-3a23.29,23.29,0,0,0,.87-3.34A2.89,2.89,0,0,0,354.14,219.58Z"/><path class="k" d="M358.09,154.12l-2.5,25.45c4.65,11,.26,36.13.26,36.13H350l-3.38-32.49-3.51-9Z"/><path class="h" d="M346.31,182.4l9-22.17,2.23-1.78.19-.17.41-4.15-15,20.13Z"/><path class="h" d="M350,215.69l1.64-.13s1.19-16.21-4.31-25.54Z"/><path class="l" d="M340,145.24,331,185.8l12.85,30.25,6.24-.49s1.55-21.06-7-29l10.65-26.36,2.23-1.78a7.9,7.9,0,0,0,3-6.17v-9.19Z"/><path class="m" d="M368.42,94.73a11.65,11.65,0,0,1-1.55-5,32.73,32.73,0,0,1-.14-6.28,13.11,13.11,0,0,0,.05-2.67c-.09-.65-.29-1.28-.43-1.92-.61-2.71-.18-5.57-.72-8.3a3.55,3.55,0,0,0-.76-1.77,2.36,2.36,0,0,0-2.75-.41,3,3,0,0,0-1.5,2.43l.14-.25c-1.23,3.36-.58,7.1-1.2,10.62-.36,2-1.13,4-1.46,6A7.32,7.32,0,0,0,359.24,93,8,8,0,0,0,361,94.49a23.2,23.2,0,0,0,5.59,2.77,2.94,2.94,0,0,1-1.11-2.05,14.93,14.93,0,0,0,3.47,2.06,5,5,0,0,0,3.94,0A5.17,5.17,0,0,1,368.42,94.73Z"/><path class="s" d="M362.68,95.06A8,8,0,0,1,361,93.59a7.32,7.32,0,0,1-1.14-5.87c.34-2,1.11-4,1.46-6,.62-3.52-.12-9.87-.12-9.87a1.48,1.48,0,0,0-.4-1.32c-1.23,3.36-.58,7.1-1.2,10.62-.36,2-1.13,4-1.46,6A7.32,7.32,0,0,0,359.24,93,8,8,0,0,0,361,94.49a23.2,23.2,0,0,0,5.59,2.77c-.07-.05-.12-.12-.18-.17A23.19,23.19,0,0,1,362.68,95.06Z"/><path class="s" d="M372.5,97.39l.35-.14a3.92,3.92,0,0,1-.66,0Z"/><path class="s" d="M367.16,95.78a2.85,2.85,0,0,0,.16.7,9.5,9.5,0,0,0,1.59.79,6.38,6.38,0,0,0,1.1.3A18,18,0,0,1,367.16,95.78Z"/><path class="m" d="M360.51,71.08a1.55,1.55,0,0,1-1.48,0c-.47-.21-.87-.55-1.32-.8a8,8,0,0,0-3-.75c-3.28-.39-6.88-.71-9.64,1.1h-.23q4.11,9.47,8.84,18.66l1.85-1.59c2.66-2.29,5.51-4.92,5.88-8.4C361.71,76.55,360.35,73.84,360.51,71.08Z"/><rect class="j" x="345.27" y="84.94" width="9.19" height="18.34"/><path class="h" d="M348.78,90.39l-3.51-.66V84.94h9.19v.73A4.79,4.79,0,0,1,348.78,90.39Z"/><path class="j" d="M339.12,79.53v8a2.15,2.15,0,0,0,2.15,2.15h5.55a6.07,6.07,0,0,0,6.07-6.07v-7A3.41,3.41,0,0,0,351.59,74l-3.64-2.85a3.06,3.06,0,0,0-3.42-.29C342.93,71.81,340.76,74.08,339.12,79.53Z"/><path class="n" d="M344.06,70.2l3.41,1.72a4.78,4.78,0,0,1,2.61,3.89l.11,1.43-8.39-1.89Z"/><path class="n" d="M329.9,80.69l8.8.8.86-.77,3.25.37a9.44,9.44,0,0,0,8-2l.89-2.92-10.27-5.27Z"/><path class="n" d="M331.62,79l12.63-3.51a.91.91,0,0,0,.67-.88V69.39a.91.91,0,0,0-1.16-.88L331.14,72a.91.91,0,0,0-.67.88v5.19A.91.91,0,0,0,331.62,79Z"/><path class="e" d="M344.06,75.75l16.14,7.88a.23.23,0,0,0,.32-.2v-3l-16.46-8Z"/><path class="n" d="M359,83.06a.23.23,0,0,0,.32-.2v-3l1.15.56v3a.23.23,0,0,1-.32.2Z"/><path class="n" d="M356.75,81.87a.23.23,0,0,0,.32-.2v-3l1.15.56v3a.23.23,0,0,1-.32.2Z"/><path class="n" d="M354.45,80.82a.23.23,0,0,0,.32-.2v-3l1.15.56v3a.23.23,0,0,1-.32.2Z"/><path class="n" d="M352.16,79.72a.23.23,0,0,0,.32-.2v-3l1.15.56v3a.23.23,0,0,1-.32.2Z"/><path class="n" d="M349.86,78.53a.23.23,0,0,0,.32-.2v-3l1.15.56v3a.23.23,0,0,1-.32.2Z"/><path class="n" d="M347.56,77.47a.23.23,0,0,0,.32-.2v-3l1.15.56v3a.23.23,0,0,1-.32.2Z"/><path class="n" d="M345.27,76.31a.23.23,0,0,0,.32-.2v-3l1.15.56v3a.23.23,0,0,1-.32.2Z"/><path class="e" d="M329.9,80.69l12.63-3.51a.91.91,0,0,0,.67-.88V69.39a.91.91,0,0,0-1.16-.88L329.41,72a.91.91,0,0,0-.67.88v6.91A.91.91,0,0,0,329.9,80.69Z"/><ellipse class="n" cx="335.3" cy="74.6" rx="0.67" ry="1.39"/><path class="j" d="M352.89,80.44s2.21-1.67,3-.12v2.86a2.76,2.76,0,0,1-1.64,2.59,2.63,2.63,0,0,1-1.8.05Z"/><rect class="e" x="358.22" y="70.46" width="4.59" height="2.2" rx="0.96" ry="0.96" transform="translate(164.14 -239.13) rotate(46.48)"/><path class="h" d="M356.95,157.52a7.89,7.89,0,0,0,2-5.25v-9.19l-19,2.15-2.29,10.38v1c9,2.16,16.07-7,16.07-7Z"/><path class="r" d="M335.3,96.81v18.34a19.17,19.17,0,0,0,1.35,7.07l1,2.62v29.27c9,2.16,16.07-7,16.07-7l4.8,11.95h0a13.56,13.56,0,0,0,2.61-8.72l-1.39-26.84.45-26.68-5.78,1.37-.67.74a5.36,5.36,0,0,1-8.52-.74h0Z"/><path class="j" d="M291.92,74.75l-5.39-1,.42.8a.83.83,0,0,0,.48.4l4.37,1.4,2.71,4,2.39,2.07,12.44,20.2,17.8,2.49V96.37l-12.92-.67L299.11,78.13l-.57-3.67-2.39-3.7-.67-3.62L293,63.64a2.82,2.82,0,0,0,.16,2.73l.49.77.67,3.54-.09.12s-.42-.34-.64-.34l-.64-1-4.89-3.09,0,.75a1.57,1.57,0,0,0,.61,1.16l3.6,2.78.34.7-.22.42L291,71l-4.78-1.09v1.32l3.34.91,2.39,1.59"/><path class="h" d="M298.54,74.46h0l-.11-.17-1.64-.38a1.36,1.36,0,0,0-1.13.23l-1.58,1.17.07.15,1.5-1.11a1.36,1.36,0,0,1,1.13-.23l1.73.41Z"/><polygon class="h" points="325.2 104.9 327.15 105.18 327.15 96.37 326.6 96.34 325.2 104.9"/><polygon class="r" points="345.27 93.33 337.69 94.78 327.15 95.8 327.15 105.75 335.3 108.34 345.27 98.18 345.27 93.33"/><path class="t" d="M359.79,123.49l0-1.08c-.25-.36-.58-.67-.9-1.07.31-.21.62-.39.92-.57l.07-4.43-.64-.21a1.15,1.15,0,0,0-.15-1.49l-.13-.11,1-.6,0-2.07a1.06,1.06,0,0,0-1.26,0l-2.63,1.65a1.24,1.24,0,0,0-.12,2h0a1.23,1.23,0,0,0,.29,2.22l2.69.88c-.8.59-2,1.11-2.5,1.63a1.26,1.26,0,0,0-.19,1.47c.09.21.62.82.7,1,1.07,2.91,0,2.26.18,4.26a10.48,10.48,0,0,0,.58,2.33c-1.3-.71,2.21.68,1.23-.74S359.79,123.49,359.79,123.49Z"/><path class="o" d="M359,115.84l-1.11,9-7.76-4.21-.46-5.17-2.16-2-.82-3.16-3.12-3.64h0a2.69,2.69,0,0,0,.21,2.52l1.09,1.69-.06,4.31-.8.29-2.74-3.64h0a2.2,2.2,0,0,0-.36,2.79l5.78,9.17,13.54,9.82,0,0-.52-10.09.13-7.66Z"/><path class="j" d="M365,114.37,363.34,129l-1.51,2.2a2.17,2.17,0,0,1-3.13.48l-12-9.39L341,113.14a2.2,2.2,0,0,1,.36-2.79h0l2.74,3.64.8-.29.06-4.31-1.47-2.28a2.1,2.1,0,0,1-.06-2.17l.17-.3,3.18,4.18.82,3.16,2.16,2,.46,5.17,7.76,4.21,1.11-9Z"/><polygon class="h" points="364.96 114.37 359.05 114.37 358.87 115.83 364.8 115.83 364.96 114.37"/><path class="r" d="M354.45,93.33l10.1,4.24a2.39,2.39,0,0,1,1.47,2.2v14.59h-8.07V108l-3.49-9.77Z"/><path class="l" d="M218.48,38.34a3.93,3.93,0,1,1,3.93-3.93A3.93,3.93,0,0,1,218.48,38.34Zm0-5.77a1.84,1.84,0,1,0,1.84,1.84A1.84,1.84,0,0,0,218.48,32.57Z"/><path class="l" d="M141.63,40.34a3,3,0,1,1,3-3A3,3,0,0,1,141.63,40.34Zm0-4.45A1.42,1.42,0,1,0,143,37.31,1.42,1.42,0,0,0,141.63,35.89Z"/><path class="l" d="M186.67,176.34a3,3,0,1,1,3-3A3,3,0,0,1,186.67,176.34Zm0-4.45a1.42,1.42,0,1,0,1.42,1.42A1.42,1.42,0,0,0,186.67,171.89Z"/><path class="l" d="M130.51,58.92a2.07,2.07,0,1,1,2.07-2.07A2.07,2.07,0,0,1,130.51,58.92Zm0-3a1,1,0,1,0,1,1A1,1,0,0,0,130.51,55.87Z"/><path class="l" d="M231.81,191.68a2.07,2.07,0,1,1,2.07-2.07A2.07,2.07,0,0,1,231.81,191.68Zm0-3a1,1,0,1,0,1,1A1,1,0,0,0,231.81,188.64Z"/><path class="l" d="M182.61,57.6a2.07,2.07,0,1,1,2.07-2.07A2.07,2.07,0,0,1,182.61,57.6Zm0-3a1,1,0,1,0,1,1A1,1,0,0,0,182.61,54.55Z"/><path class="m" d="M97.6,78.91a2.07,2.07,0,1,1,2.07-2.07A2.07,2.07,0,0,1,97.6,78.91Zm0-3a1,1,0,1,0,1,1A1,1,0,0,0,97.6,75.87Z"/><path class="m" d="M179.78,152.53a2.07,2.07,0,1,1,2.07-2.07A2.07,2.07,0,0,1,179.78,152.53Zm0-3a1,1,0,1,0,1,1A1,1,0,0,0,179.78,149.49Z"/><path class="m" d="M274.4,144.84a3.29,3.29,0,1,1,3.29-3.29A3.29,3.29,0,0,1,274.4,144.84Zm0-4.83a1.54,1.54,0,1,0,1.54,1.54A1.54,1.54,0,0,0,274.4,140Z"/><path class="l" d="M319,70.16a2.07,2.07,0,1,1,2.07-2.07A2.07,2.07,0,0,1,319,70.16Zm0-3a1,1,0,1,0,1,1A1,1,0,0,0,319,67.12Z"/><path class="l" d="M304.85,132.19a2.89,2.89,0,1,1,2.89-2.89A2.89,2.89,0,0,1,304.85,132.19Zm0-4.24a1.35,1.35,0,1,0,1.35,1.35A1.35,1.35,0,0,0,304.85,128Z"/><path class="l" d="M281,45.09A2.07,2.07,0,1,1,283,43,2.07,2.07,0,0,1,281,45.09Zm0-3a1,1,0,1,0,1,1A1,1,0,0,0,281,42Z"/><path class="l" d="M339.39,45.23H338V43.82a.8.8,0,1,0-1.6,0v1.42H335a.8.8,0,1,0,0,1.6h1.42v1.42a.8.8,0,1,0,1.6,0V46.83h1.42a.8.8,0,1,0,0-1.6Z"/><path class="l" d="M396.74,110.83h-1.42v-1.42a.8.8,0,1,0-1.6,0v1.42H392.3a.8.8,0,0,0,0,1.6h1.42v1.42a.8.8,0,1,0,1.6,0v-1.42h1.42a.8.8,0,1,0,0-1.6Z"/><path class="l" d="M284.1,96.59h-1.42V95.17a.8.8,0,0,0-1.6,0v1.42h-1.42a.8.8,0,0,0,0,1.6h1.42v1.42a.8.8,0,0,0,1.6,0V98.19h1.42a.8.8,0,1,0,0-1.6Z"/><path class="m" d="M392.62,72.79h-1.42V71.37a.8.8,0,0,0-1.6,0v1.42h-1.42a.8.8,0,0,0,0,1.6h1.42v1.42a.8.8,0,0,0,1.6,0V74.39h1.42a.8.8,0,0,0,0-1.6Z"/><path class="l" d="M146,134.72h-1.42V133.3a.8.8,0,0,0-1.6,0v1.42h-1.42a.8.8,0,1,0,0,1.6h1.42v1.42a.8.8,0,1,0,1.6,0v-1.42H146a.8.8,0,0,0,0-1.6Z"/><path class="l" d="M95.07,56H93.65V54.63a.8.8,0,0,0-1.6,0V56H90.63a.8.8,0,0,0,0,1.6H92v1.42a.8.8,0,1,0,1.6,0V57.64h1.42a.8.8,0,0,0,0-1.6Z"/><path class="l" d="M160.24,153.32h-1.42V151.9a.8.8,0,1,0-1.6,0v1.42H155.8a.8.8,0,1,0,0,1.6h1.42v1.42a.8.8,0,1,0,1.6,0v-1.42h1.42a.8.8,0,1,0,0-1.6Z"/><path class="l" d="M255.38,170.22H254V168.8a.8.8,0,0,0-1.6,0v1.42h-1.42a.8.8,0,0,0,0,1.6h1.42v1.42a.8.8,0,1,0,1.6,0v-1.42h1.42a.8.8,0,0,0,0-1.6Z"/><path class="l" d="M182.23,121.24l-1.47,1.47-1.47-1.47a1.18,1.18,0,0,0-1.66,1.66l1.47,1.47-1.47,1.47a1.18,1.18,0,0,0,1.66,1.66l1.47-1.47,1.47,1.47a1.18,1.18,0,0,0,1.66-1.66l-1.47-1.47,1.47-1.47a1.18,1.18,0,0,0-1.66-1.66Z"/><path class="m" d="M161.67,59.79l-.63.63-.63-.63a.51.51,0,0,0-.71.71l.63.63-.63.63a.51.51,0,0,0,.71.71l.63-.63.63.63a.51.51,0,1,0,.71-.71l-.63-.63.63-.63a.51.51,0,1,0-.71-.71Z"/><path class="m" d="M308.19,46.77l-.63.63-.63-.63a.51.51,0,1,0-.71.71l.63.63-.63.63a.51.51,0,0,0,.71.71l.63-.63.63.63a.51.51,0,0,0,.71-.71l-.63-.63.63-.63a.51.51,0,1,0-.71-.71Z"/><path class="m" d="M287.27,170.12l-1.07,1.07-1.07-1.07a.86.86,0,0,0-1.21,1.21l1.07,1.07-1.07,1.07a.86.86,0,0,0,1.21,1.21l1.07-1.07,1.07,1.07a.86.86,0,1,0,1.21-1.21l-1.07-1.07,1.07-1.07a.86.86,0,1,0-1.21-1.21Z"/><path class="m" d="M326.81,132.15l-.63.63-.63-.63a.51.51,0,0,0-.71.71l.63.63-.63.63a.51.51,0,0,0,.71.71l.63-.63.63.63a.51.51,0,0,0,.71-.71l-.63-.63.63-.63a.51.51,0,0,0-.71-.71Z"/><path class="l" d="M236.38,12.43l-.63.63-.63-.63a.51.51,0,0,0-.71.71l.63.63-.63.63a.51.51,0,0,0,.71.71l.63-.63.63.63a.51.51,0,1,0,.71-.71l-.63-.63.63-.63a.51.51,0,0,0-.71-.71Z"/><path class="l" d="M381.79,46.18l-.63.63-.63-.63a.51.51,0,0,0-.71.71l.63.63-.63.63a.51.51,0,0,0,.71.71l.63-.63.63.63a.51.51,0,1,0,.71-.71l-.63-.63.63-.63a.51.51,0,1,0-.71-.71Z"/><path class="m" d="M280.4,123.82h-1v-1a.56.56,0,1,0-1.11,0v1h-1a.56.56,0,0,0,0,1.11h1v1a.56.56,0,0,0,1.11,0v-1h1a.56.56,0,0,0,0-1.11Z"/><path class="m" d="M176.16,84.87h-1v-1a.56.56,0,1,0-1.11,0v1h-1a.56.56,0,0,0,0,1.11h1v1a.56.56,0,1,0,1.11,0V86h1a.56.56,0,0,0,0-1.11Z"/><path class="m" d="M376.12,119.91h-1v-1a.56.56,0,0,0-1.11,0v1h-1a.56.56,0,1,0,0,1.11h1v1a.56.56,0,1,0,1.11,0v-1h1a.56.56,0,0,0,0-1.11Z"/><path class="l" d="M204.7,18.64h-1v-1a.56.56,0,0,0-1.11,0v1h-1a.56.56,0,1,0,0,1.11h1v1a.56.56,0,1,0,1.11,0v-1h1a.56.56,0,1,0,0-1.11Z"/><path class="l" d="M169.91,102.63h-1v-1a.56.56,0,1,0-1.11,0v1h-1a.56.56,0,0,0,0,1.11h1v1a.56.56,0,1,0,1.11,0v-1h1a.56.56,0,0,0,0-1.11Z"/><path class="m" d="M169.91,30.12h-1v-1a.56.56,0,1,0-1.11,0v1h-1a.56.56,0,0,0,0,1.11h1v1a.56.56,0,1,0,1.11,0v-1h1a.56.56,0,0,0,0-1.11Z"/><path class="l" d="M242.75,147.83h-1v-1a.56.56,0,1,0-1.11,0v1h-1a.56.56,0,1,0,0,1.11h1v1a.56.56,0,1,0,1.11,0v-1h1a.56.56,0,0,0,0-1.11Z"/><circle class="l" cx="191.27" cy="25.75" r="0.92"/><circle class="l" cx="73.56" cy="96.34" r="0.92"/><circle class="l" cx="379.19" cy="95.78" r="0.92"/><circle class="l" cx="372.19" cy="144.47" r="1.77"/><circle class="l" cx="224.34" cy="159.05" r="0.92"/><circle class="m" cx="314.81" cy="34.27" r="1.61"/><circle class="m" cx="86.74" cy="110.02" r="1.61"/><line class="g" x1="14.68" y1="228.02" x2="448.95" y2="228.02"/><path class="u" d="M278.64,87.75a45.81,45.81,0,0,1-31.28,43.43c-5.82,1.94-13.41.45-16.29,7.13-.59,1.38-1,3-2.26,3.79-1.72,1-4.06-.28-4.88-2.11s-.59-3.93-.43-5.93.18-4.16-1-5.81c-2.45.66-4.19,3-4.89,5.4a22.92,22.92,0,0,0-.43,7.57,2.11,2.11,0,0,1-.15,1.13,1.7,1.7,0,0,1-.73.64,4.35,4.35,0,0,1-6.29-4.74,17.44,17.44,0,0,1,1.13-2.82,9,9,0,0,0-4.32-11.1c-13-6.22-19.76-22.74-19.76-36.58a44.89,44.89,0,0,1,4.72-20.08,46.61,46.61,0,0,1,18.68-19.5,48,48,0,0,1,19.9-6.09c2.66-.21,4.93.76,7.59.92a3.72,3.72,0,0,0,3.11-.85,4.53,4.53,0,0,0,.54-.88,15.92,15.92,0,0,1,2.49-3.48,4.48,4.48,0,0,1,2.36-1.52,2.66,2.66,0,0,1,2.84,1.6c1,2.51-2.62,3.45-1.55,6.07a3.09,3.09,0,0,0,3.76,1.67c1.6-.58,2.37-2.33,3.16-3.83s2.1-3.1,3.79-2.91c1.53.17,2.51,1.79,2.67,3.32a30.49,30.49,0,0,1-.35,4.59C260.36,55.4,268,58,272,63.95,276.51,70.82,278.64,79.59,278.64,87.75Z"/><path class="l" d="M256.74,87.75A23.87,23.87,0,0,1,220.28,108a17.43,17.43,0,0,1-4.54-4c-1.33-1.66-2.63-3.43-4.75-4.11-1.15-.36-2.74-.69-2.77-1.9a2.32,2.32,0,0,1,.52-1.29l1.58-2.37c.94-1.4,1.88-3.27.92-4.65s-2.78-1.2-4.18-.58-2.61,1.67-4.09,2-3.43-.37-3.54-1.89,1.74-2.55,3.31-2.58,3.18.45,4.67,0c2.55-.85,2.26-3.39,2.91-5.47a37.65,37.65,0,0,1,3.36-7.64,18,18,0,0,1,4.63-4.74,23.94,23.94,0,0,1,14.56-5,21.42,21.42,0,0,1,12.18,3.51,7.67,7.67,0,0,0,3.68,1.75c.84.12,5.28.05,4,2.12a3.57,3.57,0,0,0-1.89,1.83c-.49,1.51,1,3,2.48,3.49s3.18.58,4.49,1.47a1.88,1.88,0,0,1,.8,1,.92.92,0,0,1-.42,1.09,1.67,1.67,0,0,1-.87,0,4.89,4.89,0,0,0-2.64.45.93.93,0,0,0-.5.44c-.15.36.15.74.4,1A8.37,8.37,0,0,1,256.74,87.75Z"/><path class="l" d="M255.34,68.34s0-.05,0-.08h0Z"/><path class="l" d="M260.56,64.26a1.91,1.91,0,0,0-2-1,3.66,3.66,0,0,0-2.1,1.89,5.29,5.29,0,0,0-1.09,3.1l3.43-1.12a3.74,3.74,0,0,0,1.36-.66A1.91,1.91,0,0,0,260.56,64.26Z"/><path class="l" d="M203.86,100.65a3.2,3.2,0,0,0-3.81-.36,2.21,2.21,0,0,0-.06,3.5,2.46,2.46,0,0,1,1.71-1.52,6.36,6.36,0,0,0,1.45-.31c.44-.23.72-.88.35-1.22Z"/><path class="l" d="M266.17,81.66a4.32,4.32,0,0,0-2.22-.57c-.77.08-1.53.76-1.4,1.53l-.21-.2a6.64,6.64,0,0,0,.71,1.34,4.87,4.87,0,0,0,2.85,2.31c1.23.26,2.73-.6,2.72-1.85S267.31,82.19,266.17,81.66Z"/><path class="r" d="M239.84,96.44a11.28,11.28,0,0,1-17.62-8.86,8.24,8.24,0,0,1,.35-2.83,5,5,0,0,0,.34-2.95c-.16-.55-.46-1.26,0-1.59a1.1,1.1,0,0,1,.64-.14h1.35c.8,0,1.78-.13,2.06-.88a1.62,1.62,0,0,0-.89-1.79,12.23,12.23,0,0,1-1.88-1.06c-.54-.48-.77-1.44-.2-1.89s1.46,0,1.89.61a7.38,7.38,0,0,0,1.26,1.81c1,.77,1.93,0,2.91-.32a17.8,17.8,0,0,1,3.88-.72,8.51,8.51,0,0,1,3.08.55,11.32,11.32,0,0,1,5.81,4.37,10.13,10.13,0,0,1,1.87,5.69,3.62,3.62,0,0,0,.29,1.91c.17.36,1.38,2.08.24,2.14a1.69,1.69,0,0,0-1.22-.25c-.72.21-.9,1.17-.71,1.9a8.76,8.76,0,0,1,.62,2.15.89.89,0,0,1-.16.57.44.44,0,0,1-.54.13.79.79,0,0,1-.24-.33,2.31,2.31,0,0,0-.88-.91.44.44,0,0,0-.3-.08c-.18,0-.25.25-.3.43A4,4,0,0,1,239.84,96.44Z"/><path class="r" d="M247.05,90.73l0,0h0Z"/><path class="r" d="M250,91.69a.9.9,0,0,0-.15-1.06,1.73,1.73,0,0,0-1.3-.32,2.5,2.5,0,0,0-1.5.4l1.35,1a1.77,1.77,0,0,0,.62.36A.9.9,0,0,0,250,91.69Z"/><path class="r" d="M220.74,79.21a1.51,1.51,0,0,0-.87-1.59,1,1,0,0,0-1.38.9,1.16,1.16,0,0,1,1,.26,3,3,0,0,0,.51.48c.21.11.54,0,.57-.19Z"/><path class="r" d="M244.73,98.51a2,2,0,0,0-.37-1,.7.7,0,0,0-1-.14l0-.14a3.14,3.14,0,0,0-.34.63,2.3,2.3,0,0,0-.15,1.73,1,1,0,0,0,1.45.57C244.87,99.81,244.82,99.09,244.73,98.51Z"/><path class="m" d="M211.21,148.46a17.23,17.23,0,0,0-6.17,3.07,2.74,2.74,0,0,0-.6.59,2.31,2.31,0,0,0-.32.82,4.35,4.35,0,0,0,1.74,4.55,3.32,3.32,0,0,0,4.52-1,5.7,5.7,0,0,0,.52-2.36l.4-5.61Z"/><path class="m" d="M218.56,147.88c-.44-.88-1.69-.87-2.67-.73l0-.15a3.45,3.45,0,0,0,.49,2.56c.57.69,1.86.78,2.25,0a1.75,1.75,0,0,0,.13-.78A2,2,0,0,0,218.56,147.88Z"/><path class="m" d="M254.75,25a4,4,0,0,0-2.89.1,2.63,2.63,0,0,0-1.13,1.88,7.8,7.8,0,0,0,.09,2.25l.25,1.82-.11.34c.06-.55.59-.9,1.07-1.17l1.78-1A4.38,4.38,0,0,0,255.27,28,2.26,2.26,0,0,0,254.75,25Z"/></svg>