<svg xmlns="http://www.w3.org/2000/svg" viewBox="0 0 448.95 228.52"><defs><style>.a,.b{fill:#e0e4f0;}.a{opacity:0.5;}.b{opacity:0.47;}.c{fill:#cdcee7;}.d{fill:#fff;}.e{fill:#b3b5dc;}.f{fill:#e6e7e8;}.g{fill:#8184c4;}.h,.l,.s{fill:#191c3c;}.i{fill:#fec55e;}.j{fill:#4d5068;}.k{fill:#6371c5;}.l,.u{opacity:0.3;}.m{fill:#4a5594;}.n{fill:#575a8f;}.o{fill:#3a3c4e;}.o,.r{opacity:0.4;}.p{fill:#75778a;}.q{fill:#474963;}.r{fill:#2c2d3b;}.s,.v{opacity:0.1;}.t{fill:#dfe2ec;}.u{fill:#212121;}.w{fill:#f5f7f9;}.x{fill:#fcd991;}.y{fill:none;stroke:#191c3c;stroke-miterlimit:10;}.z{fill:#41446b;}.aa{fill:#fed17e;}.ab{fill:#fde8bd;}.ac{fill:#9a9dd0;}.ad{fill:#e6e6f3;}.ae{fill:#273747;}</style></defs><title>Asset 1</title><circle class="a" cx="426.58" cy="146.67" r="10.44"/><circle class="a" cx="274.14" cy="17.16" r="13.52"/><circle class="a" cx="94.9" cy="34.41" r="6.89"/><circle class="a" cx="337.17" cy="47.53" r="6.89"/><circle class="a" cx="179.78" cy="6.89" r="6.89"/><circle class="a" cx="437.02" cy="176.87" r="2.83"/><circle class="a" cx="327.77" cy="22.7" r="2.12"/><circle class="a" cx="122.08" cy="6.89" r="2.76"/><circle class="a" cx="22.2" cy="67.04" r="3.67"/><circle class="a" cx="430.26" cy="101.9" r="3.67"/><circle class="a" cx="58.8" cy="55.52" r="15.58"/><circle class="a" cx="8.28" cy="183.3" r="3.67"/><circle class="a" cx="406.71" cy="47.53" r="15.11"/><circle class="a" cx="11.96" cy="115.25" r="11.96"/><path class="b" d="M424.6,227.39a194.39,194.39,0,0,0-16.79-79.28A61.52,61.52,0,0,0,334.14,62.7,194.17,194.17,0,0,0,229.51,32.3q-7.19,0-14.26.51A50.25,50.25,0,0,0,138.09,55,195.69,195.69,0,0,0,97.39,83.85,55.69,55.69,0,0,0,42,173.47a195.19,195.19,0,0,0-7.55,53.92Z"/><path class="b" d="M370.13,227a141.7,141.7,0,1,0-283.4,0Z"/><path class="c" d="M221.46,111.37l5.79-3.34v-6.71a.87.87,0,0,1,.87-.87h67.65a.87.87,0,0,1,.87.87v21.17a.87.87,0,0,1-.87.87H228.12a.87.87,0,0,1-.87-.87v-6.71l-5.79-3.34A.62.62,0,0,1,221.46,111.37Z"/><rect class="d" x="231.96" y="104.64" width="14.51" height="14.51" rx="1.21" ry="1.21"/><path class="d" d="M288.76,108.56H253a1.39,1.39,0,0,1-1.39-1.39h0a1.39,1.39,0,0,1,1.39-1.39h35.74a1.39,1.39,0,0,1,1.39,1.39h0A1.39,1.39,0,0,1,288.76,108.56Z"/><path class="d" d="M288.76,113.93H253a1.39,1.39,0,0,1-1.39-1.39h0a1.39,1.39,0,0,1,1.39-1.39h35.74a1.39,1.39,0,0,1,1.39,1.39h0A1.39,1.39,0,0,1,288.76,113.93Z"/><path class="d" d="M276.81,119.3H253a1.39,1.39,0,0,1-1.39-1.39h0a1.39,1.39,0,0,1,1.39-1.39h23.79a1.39,1.39,0,0,1,1.39,1.39h0A1.39,1.39,0,0,1,276.81,119.3Z"/><path class="c" d="M124.93,122l-5.79-3.34V112a.87.87,0,0,0-.87-.87H50.62a.87.87,0,0,0-.87.87v21.17a.87.87,0,0,0,.87.87h67.65a.87.87,0,0,0,.87-.87v-6.71l5.79-3.34A.62.62,0,0,0,124.93,122Z"/><rect class="d" x="99.92" y="115.28" width="14.51" height="14.51" rx="1.21" ry="1.21" transform="translate(214.34 245.07) rotate(180)"/><path class="d" d="M57.62,119.19H93.37a1.39,1.39,0,0,0,1.39-1.39h0a1.39,1.39,0,0,0-1.39-1.39H57.62a1.39,1.39,0,0,0-1.39,1.39h0A1.39,1.39,0,0,0,57.62,119.19Z"/><path class="d" d="M57.62,124.56H93.37a1.39,1.39,0,0,0,1.39-1.39h0a1.39,1.39,0,0,0-1.39-1.39H57.62a1.39,1.39,0,0,0-1.39,1.39h0A1.39,1.39,0,0,0,57.62,124.56Z"/><path class="d" d="M69.58,129.93H93.37a1.39,1.39,0,0,0,1.39-1.39h0a1.39,1.39,0,0,0-1.39-1.39H69.58a1.39,1.39,0,0,0-1.39,1.39h0A1.39,1.39,0,0,0,69.58,129.93Z"/><path class="c" d="M268.26,67.54l-5.79-3.34V57.49a.87.87,0,0,0-.87-.87H194a.87.87,0,0,0-.87.87V78.66a.87.87,0,0,0,.87.87H261.6a.87.87,0,0,0,.87-.87V72l5.79-3.34A.62.62,0,0,0,268.26,67.54Z"/><rect class="d" x="243.25" y="60.82" width="14.51" height="14.51" rx="1.21" ry="1.21" transform="translate(501.01 136.15) rotate(180)"/><path class="d" d="M201,64.74H236.7a1.39,1.39,0,0,0,1.39-1.39h0A1.39,1.39,0,0,0,236.7,62H201a1.39,1.39,0,0,0-1.39,1.39h0A1.39,1.39,0,0,0,201,64.74Z"/><path class="d" d="M201,70.11H236.7a1.39,1.39,0,0,0,1.39-1.39h0a1.39,1.39,0,0,0-1.39-1.39H201a1.39,1.39,0,0,0-1.39,1.39h0A1.39,1.39,0,0,0,201,70.11Z"/><path class="d" d="M212.91,75.48H236.7a1.39,1.39,0,0,0,1.39-1.39h0a1.39,1.39,0,0,0-1.39-1.39H212.91a1.39,1.39,0,0,0-1.39,1.39h0A1.39,1.39,0,0,0,212.91,75.48Z"/><path class="c" d="M372.44,80l5.35,5.19v26.28a2.23,2.23,0,0,1-2.23,2.23H354.68a2.23,2.23,0,0,1-2.23-2.23V82.21A2.23,2.23,0,0,1,354.68,80Z"/><path class="e" d="M372.44,80l5.35,5.19h-4.26a1.09,1.09,0,0,1-1.09-1.09Z"/><rect class="f" x="354.4" y="88.99" width="4.19" height="4.19"/><path class="d" d="M375.75,90H360.91a.52.52,0,0,1-.52-.52h0a.52.52,0,0,1,.52-.52h14.84a.52.52,0,0,1,.52.52h0A.52.52,0,0,1,375.75,90Z"/><path class="d" d="M366.24,92.64h-5.33a.52.52,0,0,1-.52-.52h0a.52.52,0,0,1,.52-.52h5.33a.52.52,0,0,1,.52.52h0A.52.52,0,0,1,366.24,92.64Z"/><path class="d" d="M375.75,98.28H360.91a.52.52,0,0,1-.52-.52h0a.52.52,0,0,1,.52-.52h14.84a.52.52,0,0,1,.52.52h0A.52.52,0,0,1,375.75,98.28Z"/><path class="d" d="M366.24,100.89h-5.33a.52.52,0,0,1-.52-.52h0a.52.52,0,0,1,.52-.52h5.33a.52.52,0,0,1,.52.52h0A.52.52,0,0,1,366.24,100.89Z"/><path class="d" d="M375.75,106.53H360.91a.52.52,0,0,1-.52-.52h0a.52.52,0,0,1,.52-.52h14.84a.52.52,0,0,1,.52.52h0A.52.52,0,0,1,375.75,106.53Z"/><path class="d" d="M366.24,109.13h-5.33a.52.52,0,0,1-.52-.52h0a.52.52,0,0,1,.52-.52h5.33a.52.52,0,0,1,.52.52h0A.52.52,0,0,1,366.24,109.13Z"/><rect class="f" x="354.4" y="96.97" width="4.19" height="4.19"/><rect class="f" x="354.4" y="104.94" width="4.19" height="4.19"/><polygon class="g" points="356.6 92.72 354.44 90.57 355.19 89.82 356.6 91.23 360.33 87.51 361.07 88.25 356.6 92.72"/><polygon class="g" points="356.6 100.47 354.44 98.31 355.19 97.57 356.6 98.98 360.33 95.25 361.07 96 356.6 100.47"/><polygon class="g" points="356.6 108.22 354.44 106.06 355.19 105.31 356.6 106.73 360.33 103 361.07 103.74 356.6 108.22"/><path class="h" d="M187.52,129.62,174,135.17a13.58,13.58,0,0,0-8.43,12.56L161,196.87l90.84.42V180.35a71.84,71.84,0,0,0-10.22-36.93l-4.29-7.16a17.11,17.11,0,0,0-12.66-8.19l-11.82-1.4-3.16-2.36Z"/><polygon class="d" points="186.63 129.98 187.52 136.4 187.52 154.24 196.1 197.02 196.1 197.02 206.06 158.4 212.68 127.55 209.57 125.12 187.52 129.62 186.63 129.98"/><polygon class="i" points="193.84 145.37 192.01 179.02 195.92 196.47 199.79 180.09 201.02 145.37 193.84 145.37"/><path class="h" d="M214.34,104.34a3.69,3.69,0,0,0-.78-2.45c-.39-.45-.93-.79-1.16-1.35a3.48,3.48,0,0,1-.17-.77,3.64,3.64,0,0,0-.67-1.72c-.93-1.18-2.52-1-3.64-1.9A7.88,7.88,0,0,1,206.85,95c-.41-.47-.68-1.41-1.23-1.71a1.56,1.56,0,0,0-1.4.22c-.93.48-1.93,1.37-3,1.06s-1.73-1-2.74-1.21c-2.28-.42-4.09,2.32-6.41,2.31a7.88,7.88,0,0,0-2.08-.07,2.84,2.84,0,0,0-1.66,1.82,7.34,7.34,0,0,1-1.12,2.27c-.54.6-1.34.91-1.91,1.48-1,1-1.15,2.51-1.24,3.9-.08,1.17-.16,2.33-.13,3.5a18.29,18.29,0,0,0,2.49,8.69l.09,0a1.53,1.53,0,0,1,1.12-.66l3.06-.74a8.42,8.42,0,0,1,5.34,0l6.42,1.64a19.06,19.06,0,0,1,4.47,1.56,9.61,9.61,0,0,1,3.19,2.83,21.72,21.72,0,0,1,2.83-6.59,3.94,3.94,0,0,0,.62-1.22,9,9,0,0,0-.1-2.08c0-1.17.64-2.26.65-3.43,0-.71-.23-1.4-.17-2.11s.34-1.06.4-1.63C214.33,104.73,214.34,104.54,214.34,104.34Z"/><polygon class="j" points="213.71 126.76 216.38 135.71 212.87 137.58 216.38 140.6 196.1 197.02 195.74 194.52 207.61 128.84 209.71 124.3 212.87 126.66 213.71 126.76"/><polygon class="j" points="186.63 129.98 179.46 141.64 182.83 144.13 179.46 148.19 196.1 197.02 186.63 129.98"/><polygon class="i" points="197.88 140.34 190.59 145.92 204.53 145.92 204.62 145.42 197.88 140.34"/><path class="k" d="M184.85,111.16h0a4.58,4.58,0,0,0-1.07,3.36l.36,4.1a4.41,4.41,0,0,0,.93,2.36l.08.09a2.31,2.31,0,0,0,3.58-.07l.29-.37-.83-7.91Z"/><path class="k" d="M211.79,113.15h0a4.58,4.58,0,0,1,1.07,3.36l-.36,4.1a4.41,4.41,0,0,1-.93,2.36l-.08.09a2.31,2.31,0,0,1-3.58-.07l-.29-.37.83-7.91Z"/><path class="l" d="M208.28,125.38l-20.76,4.23-.89.36.1.72a15.48,15.48,0,0,0,.77,1.46l3.3,5.49a6.81,6.81,0,0,0,5.84,3.31h0a6.81,6.81,0,0,0,5.79-3.22L206,132a15.49,15.49,0,0,0,2.12-5.59Z"/><path class="k" d="M186.53,109.76v14.43a15.49,15.49,0,0,0,2.21,8l3.3,5.49a6.81,6.81,0,0,0,5.84,3.31h0a6.81,6.81,0,0,0,5.79-3.22l3.57-5.74a15.49,15.49,0,0,0,2.12-5.59l.89-5.27V107.42l-23.72-.62Z"/><path class="m" d="M201.2,120.63l-1.35,7a.86.86,0,0,1-1.18.72l-1.67-.68-.48.8,2.77,1.12a.86.86,0,0,0,1.18-.72l.73-8.2Z"/><path class="h" d="M210.24,121.59a42.31,42.31,0,0,1-1.27-9.67,8.14,8.14,0,0,0-.37-3.07c-.37-.85-1.58-.34-2.4-.53-1.08-.25-2-1-3.15-1a3.68,3.68,0,0,0-2.59,1,6.37,6.37,0,0,1-1.37.87,3.71,3.71,0,0,1-2.18.09c-1.53-.35-2.84-1.31-4.32-1.83s-3.4-.46-4.29.83a4.05,4.05,0,0,0-.32,3.15,9.68,9.68,0,0,1,.44,3.21c-.14,1.08-.79,7.36-1.88,7.31l-1.07-18.79L199.87,100,212,102.91Z"/><path class="k" d="M190.59,189.18v-2.94a1.56,1.56,0,0,0-.28-.89l-2.22-3.19L180.76,180l-4.34,2.17a1.81,1.81,0,0,0-.9,1l-1.84,5.28-3.06,2.76a5.78,5.78,0,0,0-2.08,3.57c-.34,1.87,2.18,2,2.18,2l3.33.12h3.12v-1.19l3,.14a1.36,1.36,0,0,0,.79-.21h0c.86-.54,1.16-1.91.3-2.43l-3.2-2.12c-.23-.14-.8-.24-.68-.48h0a.51.51,0,0,1,.74-.19l4.34,3a1.57,1.57,0,0,0,1.85-.05h0a1.57,1.57,0,0,0,.33-2.13l-1.09-1.58-4.11-2.13h0a1,1,0,0,1,1.24-.34l3,1.84,1.44,1.72a1.58,1.58,0,0,0,2.27.15h0c.58-.53,1-1.43.6-2.08l-1.76-2.75-4.89-2.54h0a1,1,0,0,1,1.22-.34l3.34,2,1.89,1.64,0,.25a2.64,2.64,0,0,0,2.76,2.16Z"/><path class="d" d="M173.22,188.44s-11.08,9.24.83,8.47l-6.5,0s-3-3.25,6.79-10.32l-.65,1.88Z"/><rect class="i" x="129.47" y="124.09" width="18.97" height="34.86"/><polygon class="m" points="178.21 147.49 167.74 155.51 167.38 148.05 174.8 140.81 178.21 147.49"/><polygon class="j" points="153.46 142.95 166.31 148.84 152.41 197.29 108.7 197.29 122.45 141.23 129.57 140.55 135.57 135.83 153.46 142.95"/><path class="k" d="M135.71,134.48s-.34,4.57-1.42,5.75l-1.5,4.94v28.49l11.82.86,3.76-27.84s0-2.48,1.4-3.17-5.67-9-5.67-9Z"/><path class="d" d="M133.88,149.73l-1.09,7.52-.7,31.93,6.87,1.72,7.92-38.08h0a9.35,9.35,0,0,1-12.21-2.11Z"/><polygon class="n" points="129.57 140.55 125.81 152.27 130.32 155.81 125.81 158.18 128.06 187.36 134.19 187.48 133.98 137.08 129.57 140.55"/><polygon class="n" points="152.68 143.5 156.44 153.45 150.74 155.28 155.21 159.9 140.4 190.91 134.19 190.26 150.63 141.52 152.68 143.5"/><path class="i" d="M155.85,117.69a7.77,7.77,0,0,0-1.58-4.15,9.14,9.14,0,0,0-2.16-1.57l-5-2.93a3.87,3.87,0,0,0-3-.76,14.75,14.75,0,0,1-1.42.64,5.74,5.74,0,0,1-2.13-.32c-1.62-.28-3.18.62-4.52,1.48a17.36,17.36,0,0,0-3.45,2.65,11.4,11.4,0,0,0-2.67,6.51c-.28,2.33-.41,8.53-.41,8.53,3.87,1.94,8.68.07,12.91-1.12A45.67,45.67,0,0,0,154.06,121a3.8,3.8,0,0,0,1.8-1.79A3.25,3.25,0,0,0,155.85,117.69Z"/><path class="l" d="M135.71,134.48s0,.34-.09.86H136L137,138a6.44,6.44,0,0,0,3.94,3.9l4.83,1.07a23.52,23.52,0,0,0,4,.55c.2-.35-.37.18,0,0,1.4-.69-5.67-9-5.67-9Z"/><path class="k" d="M156.08,116.79s.66,4.65,1.12,6.07a2.37,2.37,0,0,1,.11,1l-.17,1.61a26.81,26.81,0,0,1,1.07,4.19,11.13,11.13,0,0,1-.64,5.32s-2.26,6.5-3.55,7.63c0,0-1.93,1.72-5.64.43l-5.75-2a6.44,6.44,0,0,1-3.94-3.9l-.95-2.64h-2a1.6,1.6,0,0,1-1.2-.54l-.9-1a6.05,6.05,0,0,1-1.52-4v-1.25s.65-2.58,3-1.29l1.88,2,.43-.05V124.1s4.19-7.79,10-8.63a1.15,1.15,0,0,0,1-1.13V114A8.08,8.08,0,0,1,156.08,116.79Z"/><path class="m" d="M155.08,130.23l-1.86-4.08h0l1,4.08a1.45,1.45,0,0,1-1.32,2h.86A1.45,1.45,0,0,0,155.08,130.23Z"/><path class="i" d="M141.32,134.5c-2.06-4-4.74-8.35-3-13,.24-.64-.79-.92-1-.28a9.7,9.7,0,0,0-.46,5.06.49.49,0,0,0-.3.46,10.05,10.05,0,0,0,3.95,8.41A.54.54,0,0,0,141.32,134.5Z"/><path class="j" d="M127.51,143.09l2.06-2.54-10.17,1a10.16,10.16,0,0,0-8.77,7.21L98,191.06a4.84,4.84,0,0,0,4.64,6.23h34.14v-9.77l-23.43-.43,4.19-17.84,4.3-21Z"/><path class="k" d="M136.77,188.71h2.84a5,5,0,0,0,4.32-2.46l8-13.45,6.37-2.63-.67,1.88-4.33,1.83-1.05,1.93,1.93-1.29h2.56L150.83,191l-1.31,1.12a9.27,9.27,0,0,1-4.58,2.12l-8.18,1.31Z"/><polygon class="l" points="155.6 172.9 157.63 172.04 158.3 170.16 156.28 171 155.6 172.9"/><path class="l" d="M149.52,192.16l1.31-1.12,5.91-16.52H155L148.42,193A9.25,9.25,0,0,0,149.52,192.16Z"/><polygon class="j" points="148.59 197.29 159.59 166.56 168.91 167.31 163.43 197.29 148.59 197.29"/><rect class="k" x="171.84" y="140.85" width="3.43" height="2.29" rx="0.96" ry="0.96" transform="translate(-50.05 158.9) rotate(-43.61)"/><rect class="k" x="172.22" y="143.52" width="5.81" height="2.29" rx="0.96" ry="0.96" transform="translate(-51.17 124.9) rotate(-34.57)"/><rect class="k" x="173.58" y="145.61" width="5.81" height="2.29" rx="0.96" ry="0.96" transform="translate(-51.06 116.64) rotate(-32.21)"/><path class="k" d="M178.13,147.07l-10,6.94a3.27,3.27,0,0,0,.75-3.57v-2.26l1.85-1.23a1.22,1.22,0,0,0-1.31-2.06l-3.72,2.25-4.79,9.32v10.11l6.8.66,3-9.33c5.95-1.79,7.74-9.05,7.74-9.05Z"/><path class="o" d="M106.76,172.2c4,0-1.34-4.84,2.79-5,1.64-.06,4.15.16,3.36-1.28s-2.95-1.1-3.68-2.33c-1.56-2.62,0-5.54.75-8.17.83-3,3.27-8.74,4.08-11.77a10.14,10.14,0,0,0-3.43,5.06L106,164.28l-.25.83-.26.88L98,191.06a4.81,4.81,0,0,0-.11,2.32,59,59,0,0,0,4.68-12.69C103.32,177.9,105.36,172.2,106.76,172.2Z"/><path class="i" d="M134.82,135.93l-.49-1.46-2.92-2.76-1.19-9.54c-1.28,1.66-.52,3.73-1,5.6-.39,1.45-1.54,2.77-1.76,4.23-.3,2.07,1.3,4.25.2,6.19s-4.53,3-4.59,5.06c0,1.39,1.61,2.59,1.57,4,0,1.17-1.26,2.29-.85,3.42.18.49.65.92.66,1.42s-.46,1-.31,1.5c.24.79,2,.9,2.74.29a1.76,1.76,0,0,0,.27-2.3c-.4-.76-1.07-1.43-1.42-2.21a1,1,0,0,1,0-.89c.42-.69,1.87-.6,2.72-1.05,1.41-.75.44-2.33-.61-3.33a7.15,7.15,0,0,1,3.29-1c1.18-.2,2.5-.7,2.6-1.55s-1-1.53-.82-2.33,1-1.07,1.69-1.55S135.59,136.31,134.82,135.93Z"/><path class="h" d="M179.68,156.19l-1.24,1.33-9.77-16.83a.87.87,0,0,1,.75-1.3h0a.87.87,0,0,1,.75.43Z"/><path class="p" d="M179.25,156.19l-9.52-16.38a.87.87,0,0,0-.53-.4.85.85,0,0,0-.23.09.85.85,0,0,1,.34.31l9.52,16.38Z"/><circle class="q" cx="178.92" cy="156.73" r="0.93"/><path class="r" d="M124.26,187.26l-6.9-.36c-2.51-.11-5-.16-6.94-.11s-3.17.15-3.17.15l.12,1.13c-1.12.32-1.91.61-1.91.61a32.93,32.93,0,0,1,4.18-.6c-.8.62-1.51,1.26-1.51,1.26s.94-.5,1.9-.91c.39-.17.78-.33,1.11-.45,1.67-.14,3.17-.32,3.58-.37l2.63-.07,6.91-.07,3.14-.06Z"/><polygon class="j" points="327.78 196.96 305.5 196.96 300.93 186.97 297.55 196.96 273.89 196.96 273.89 165.5 327.78 165.5 327.78 196.96"/><path class="s" d="M282.8,182.63l-.33-.11-.19-.08a.84.84,0,0,1-.34-.25,1,1,0,0,1-.14-.66c0-.18,0-.39,0-.62a2.56,2.56,0,0,0-.11-.78A2.68,2.68,0,0,0,281,179c-.27-.25-.53-.47-.69-.65a1.18,1.18,0,0,1-.12-1.37,5.28,5.28,0,0,1,1.18-1.46l1.5-1.41,6-5.62-6.41,5.14-.22.17,1-1.3-3.77-7h-5.59V197h10.68a10,10,0,0,0,.42-4.36,7.39,7.39,0,0,0-1-2.94l-.22-.33-.1-.14,0,0a1,1,0,0,1-.12-.16.36.36,0,0,1,0-.4,1,1,0,0,1,.15-.17l.05,0,.13-.1.25-.2.51-.4.81-.62.13-.1a2.05,2.05,0,0,0-.57-3.57l-.65-.23Z"/><path class="k" d="M338.47,164.13a2.29,2.29,0,0,1-.11-1.05,3,3,0,0,1,.53-1c1.25-1.89,1.09-4.35.88-6.61a.73.73,0,0,0-.78-.86c-2.08-.23-4.44-.39-6,1l.82-.26a13.88,13.88,0,0,0-4.15,2,4.7,4.7,0,0,0-1.95,4c.15,1.42,1.16,2.64,1.34,4.06a5.06,5.06,0,0,0,.31,1.86,2.8,2.8,0,0,0,1.68,1.1,21.32,21.32,0,0,0,6.72,1.06c.7,0,1.56-.16,1.75-.84a1.7,1.7,0,0,0-.08-.89Z"/><polygon class="i" points="283.77 77.64 305.72 70.96 315.68 73.49 319.63 121.47 319.63 165.5 281.33 165.5 277.56 94.18 283.77 77.64"/><rect class="h" x="279.64" y="162.01" width="48.14" height="5.94"/><rect class="t" x="292.62" y="162.01" width="11.98" height="5.94"/><path class="g" d="M310.68,70.7l12.14,1.6a7.55,7.55,0,0,1,6.57,7.37l.42,26.05L323,128.24l9.82,43.66h0a22.16,22.16,0,0,1-23.91-16.7l-5.12-20.67s7.6-11.05,8.4-28.87l-4.55-35Z"/><path class="g" d="M281,73.75l-14.81,9.89a6.46,6.46,0,0,0-2.84,6l8.63,85.73h0a30,30,0,0,0,29.24-23.27l3.36-14.56,1.87-5.66L291,87Z"/><polygon class="j" points="280.97 73.75 280.17 84.41 284.67 86.68 282.42 91.04 304.79 132.2 305.73 129.71 292 85.8 280.97 73.75"/><path class="j" d="M310.68,70.7l4.73,9.21-1.49,2.2,2.44,2.48s4,19.82-.87,28.69l-11.7,21.26s6.44-16.42,7.06-26.55l-4.6-37.73Z"/><path class="h" d="M307.39,54.65c-.21-1.61-.19-3.32-1-4.72a8.89,8.89,0,0,0-1.41-1.7,7.57,7.57,0,0,0-4.34-2.48,18.72,18.72,0,0,0-8.88-.85,13.57,13.57,0,0,0-4.14.73c-2.57,1-4.25,3.52-5.54,6a7.67,7.67,0,0,0-.66,1.54,8.37,8.37,0,0,0-.17,2.37l.15,7.06s-.38,0,0,.35a2.85,2.85,0,0,0,1.39.7,25.4,25.4,0,0,0,5.61.24,36,36,0,0,1,9.58,2,16.14,16.14,0,0,1,2.2.78c.56.27,1.1.6,1.68.82a9.64,9.64,0,0,0,4.6.17,2,2,0,0,0,2.2-2.27,22.9,22.9,0,0,0,.17-2.9C308.71,59.81,307.73,57.27,307.39,54.65Z"/><path class="g" d="M281,73.75,265.65,84a6.46,6.46,0,0,0-2.87,5.09l-1.6,48.72,4.54,38.3h11.53l-1.39-40.87,2.09-26Z"/><path class="k" d="M267.64,176.09v3.14L266,181a5.85,5.85,0,0,0-1.56,3.32l-1.33,11.1A1.4,1.4,0,0,0,264.5,197h.43a1.4,1.4,0,0,0,1.4-1.31l.33-5,.8,5.09a1.4,1.4,0,0,0,1.38,1.18h.83a1.4,1.4,0,0,0,1.4-1.4v-7a.11.11,0,0,1,.22,0l1.22,7.24a1.4,1.4,0,0,0,1.38,1.17h.38a1.4,1.4,0,0,0,1.39-1.57l-.42-3.44a3.09,3.09,0,0,1,.12-1.3l1.55-5,1.88,2.44h0a3.85,3.85,0,0,0,2.37,4.54l.19.07-.33-7.61a4.91,4.91,0,0,0-1.62-3.44l-3.71-3.34v-2.27Z"/><path class="l" d="M282.7,57.47v16.9a5.36,5.36,0,0,0,.46,2.18L289,89.73a5.81,5.81,0,0,0,5.31,3.45h0A5.81,5.81,0,0,0,298.84,91l7.09-9.84c.94-1.16.33-1.75.33-3.25v-17c0-1.46.54-2.82-.72-3.56L296.36,52l-11.31,2.57A3,3,0,0,0,282.7,57.47Z"/><path class="k" d="M281.07,56.82v16.9a5.36,5.36,0,0,0,.46,2.18l5.86,13.18a5.81,5.81,0,0,0,5.31,3.45h0a5.81,5.81,0,0,0,4.51-2.15l7.27-9a6.53,6.53,0,0,0,1.46-4.11l1-17c0-1.46-1.75-2.82-3-3.56l-9.17-5.42-11.31,2.57A3,3,0,0,0,281.07,56.82Z"/><path class="u" d="M289,75.49a1.22,1.22,0,0,1-.36-1.5c.32-.72-.33-7.69-.26-8.44l-.24-.16s.45,6.8-.48,8.93a1.22,1.22,0,0,0,.36,1.5,3.8,3.8,0,0,0,3.23.57l-.09-.2A3.73,3.73,0,0,1,289,75.49Z"/><path class="k" d="M305.93,65.7a5.63,5.63,0,0,1,1.88-2,1.59,1.59,0,0,1,2.38,1.5v0a9,9,0,0,1-1.4,3.76s-.92,2.2-2.86,2.29Z"/><path class="h" d="M281.16,59.09c.9-.22,1.37-1.17,1.86-2s1.42-1.55,2.25-1.15a3.31,3.31,0,0,1,.87.82c1.05,1.11,2.72,1.32,4.24,1.46a8.08,8.08,0,0,0,4.19-.35c.6-.28,1.13-.72,1.74-1a3.85,3.85,0,0,1,5,2.31,7.39,7.39,0,0,1,.2,2.24l0,2.32a2,2,0,0,0,.06.66,1.34,1.34,0,0,0,1.07.81,5.59,5.59,0,0,0,1.38-.07,20,20,0,0,0,0,2.24c0,.26.13.52.17.78a2.85,2.85,0,0,1,0,1.07,4.28,4.28,0,0,0-.19,1c0,.55,2.21,2.52,2.23,2,.12-3.79-.23-7.29,1.48-8.38.35-5.91.07-3.7-.22-9.61a6.15,6.15,0,0,0-.9-3.52A5.57,5.57,0,0,0,303.48,49a29.13,29.13,0,0,0-13.18-.55,10.45,10.45,0,0,0-2.12.59,21.27,21.27,0,0,1-2.08.94c-.85.26-2-.08-2.74.27-.94.43-1.51,2-1.77,2.9a17.91,17.91,0,0,0-.52,3.71l-.15,2.2"/><circle class="j" cx="305.03" cy="135.23" r="0.98"/><path class="s" d="M323.09,128.65l-.32-.26.23-.12v0l6.81-22.53,0-2.86c-1.11,2.09-3.47,3-4.25,5.24-.38,1.09,0,1.68-.13,2.77-.18,1.34-1.06,1.88-1.59,3.06-.71,1.58-.42,4-.7,5.6-.17,1-.07,1.93-.18,2.88-.38,3.29-2.74,3.38-5.5,3.51a1.74,1.74,0,0,0-.46,3.4,13.29,13.29,0,0,1,3.71,1.78c1.78,1.43,1.71,3,1.8,5,.13,2.76,1.48,5.25,2.11,7.92,1.15,4.9,1.7,9.87,5.07,13.7Z"/><path class="g" d="M310.68,70.7l14.88,2a9.2,9.2,0,0,1,6,3.45l18.54,38.76a10.25,10.25,0,0,1,.68,7l-8.79,34h-12l6.76-35.21-14.34-27Z"/><g class="v"><path class="h" d="M277.49,173.34l0-.76c0-.5,0-1.22,0-2.15,0-1.85,0-4.51-.23-7.68s-.54-6.87-1-10.81-.92-8.15-1.31-12.38-.63-8.5-.62-12.51a80.47,80.47,0,0,1,.69-10.86,84.66,84.66,0,0,1,1.53-8.93c.23-.86,0-1.75.15-2.2a14.61,14.61,0,0,0,.08-2.47l1.41,4.4a2.47,2.47,0,0,1,.05,1.15c-.14.42-.27,1.26-.5,2.08-.51,1.6-1.53,3.24-2,6.26A78.38,78.38,0,0,0,275,127.1c-.05,3.94.13,8.18.46,12.4s.77,8.44,1.15,12.39.67,7.67.83,10.85.18,5.84.13,7.69c0,.93,0,1.65-.06,2.15Z"/></g><path class="h" d="M305.93,77.29l.25-5.38L304,70.25l.19,6.57-6.68,7.83L297,82.24,292.55,79l-4.9.25-2.41,5,2.15,4.84a5.81,5.81,0,0,0,9.82,1.3l7.27-9A6.53,6.53,0,0,0,305.93,77.29Z"/><polygon class="k" points="288.34 81.91 293.29 81.71 295.38 83.66 295.96 87.1 293.44 89.7 290.08 89.7 287.9 87.79 287.37 84.39 288.34 81.91"/><rect class="h" x="290.45" y="86.31" width="2.42" height="4.61"/><rect class="d" x="63.01" y="204.16" width="320.91" height="23.35"/><polygon class="t" points="383.92 214.63 63.01 209.13 63.01 199.68 383.92 199.68 383.92 214.63"/><rect class="d" x="50.94" y="195.46" width="347.55" height="7.87"/><path class="t" d="M270.08,196.29H203.6a5.36,5.36,0,0,1-4.85-3.08l-1.65-3.51h79.47l-1.65,3.51A5.36,5.36,0,0,1,270.08,196.29Z"/><rect class="w" x="199.45" y="144.76" width="74.78" height="48.17" rx="3.19" ry="3.19"/><circle class="f" cx="236.84" cy="170.39" r="5.31"/><path class="x" d="M80.63,175.36l-.18.09c-1.83.87-2.8.73-4.57-.09a18.63,18.63,0,0,1-4.58-2.85A9.58,9.58,0,0,1,68,166.65a2.08,2.08,0,0,1,.24-1.49,1.67,1.67,0,0,1,1.93-.4,5.83,5.83,0,0,1,1.7,1.24,1.93,1.93,0,0,0,.75.48.7.7,0,0,0,.79-.26c.24-.42-.17-.9-.54-1.2-.85-.71-1.65-1.12-2.55-1.75a8.42,8.42,0,0,1-2.78-3,4.41,4.41,0,0,1-.11-4,2.42,2.42,0,0,1,.82-.93,2.91,2.91,0,0,1,2.16-.22,20.76,20.76,0,0,0,2.16.51c1.74.18,2.43-1,2.39-2.65,0-1.08-.37-2.12-.43-3.19A4.91,4.91,0,0,1,77,145.11a3.52,3.52,0,0,1,4.72,1.76c.67,1.95-.85,4.13.15,6a5.69,5.69,0,0,0,1.65,1.8c1,.59,2.33-.1,3.45-.05a1,1,0,0,1,.69.22,1,1,0,0,1,.21.5,4.12,4.12,0,0,1-1.25,3.76c-1.15,1-3.15,1.58-3.64,3.23-.3,1-.17,3.56,1.45,3.3.61-.1,1-.7,1.6-.9a1.62,1.62,0,0,1,1.87.93,2.84,2.84,0,0,1-.05,2.22,9.31,9.31,0,0,1-2.14,2.88C84,172.54,82.9,174.24,80.63,175.36Z"/><line class="y" x1="78.22" y1="151.66" x2="78.22" y2="175.36"/><polyline class="y" points="82.81 158.53 78.22 163.12 73.62 158.53"/><polyline class="y" points="82.81 167.75 78.22 172.35 73.62 167.75"/><path class="n" d="M78.39,195.29h0a13,13,0,0,1-13-13v-6.84H91.43v6.84A13,13,0,0,1,78.39,195.29Z"/><path class="z" d="M87,175.41v6.84A13,13,0,0,1,76.16,195.1a13,13,0,0,0,15.26-12.85v-6.84Z"/><path class="l" d="M345.91,129.44a4.39,4.39,0,0,0,.33-.62H349l1.46-5.63H336.33l-1.57,8.18h7.52A4.38,4.38,0,0,0,345.91,129.44Z"/><path class="l" d="M348,130.2a4.94,4.94,0,0,0,.26,1.5l.39-1.5Z"/><path class="aa" d="M329.49,129.7h12.78a4.38,4.38,0,0,0,4.38-4.38H325.11A4.38,4.38,0,0,0,329.49,129.7Z"/><path class="ab" d="M329.49,128.77h12.78a4.38,4.38,0,0,0,4.28-3.45h.1a4.38,4.38,0,0,1-4.38,4.38H329.49a4.38,4.38,0,0,1-4.38-4.38h.1A4.38,4.38,0,0,0,329.49,128.77Z"/><rect class="h" x="350.68" y="125.32" width="2.18" height="5.69" transform="translate(703.55 256.34) rotate(180)"/><rect class="h" x="356.27" y="130.34" width="2.18" height="5.69" transform="translate(714.71 266.37) rotate(180)"/><rect class="h" x="357.36" y="129.3" width="2.18" height="5.69" transform="translate(226.3 490.59) rotate(-90)"/><path class="h" d="M321.76,127.16h32v-5.63H327.39a5.63,5.63,0,0,0-5.63,5.63Z"/><path class="q" d="M327.08,123.7a5.63,5.63,0,0,0-5.2,3.45h-.13a5.63,5.63,0,0,1,5.63-5.63h26.32v2.18Z"/><path class="h" d="M348,128.54h10.91v5H353a5,5,0,0,1-5-5Z"/><rect class="h" x="368.47" y="129.63" width="1.44" height="32.93" transform="translate(-21.21 218.46) rotate(-32.09)"/><rect class="h" x="364.48" y="133.07" width="1.44" height="29.63" transform="matrix(0.85, -0.53, 0.53, 0.85, -22.93, 215.67)"/><rect class="h" x="348.94" y="173.65" width="32.93" height="1.44" transform="translate(23.56 391.33) rotate(-57.91)"/><rect class="h" x="354.58" y="175.44" width="29.63" height="1.44" transform="translate(24.41 396.33) rotate(-58.04)"/><circle class="h" cx="378.17" cy="161.98" r="2.34"/><rect class="h" x="372.58" y="159.63" width="5.73" height="4.68" transform="translate(750.9 323.95) rotate(180)"/><circle class="q" cx="372.58" cy="161.98" r="2.34"/><circle class="h" cx="362.78" cy="187.71" r="2.34"/><rect class="h" x="357.19" y="185.37" width="5.73" height="4.68" transform="translate(720.11 375.42) rotate(180)"/><circle class="q" cx="357.19" cy="187.71" r="2.34"/><path class="h" d="M346.54,189.82h26.14a0,0,0,0,1,0,0v0a5.36,5.36,0,0,1-5.36,5.36H351.9a5.36,5.36,0,0,1-5.36-5.36v0a0,0,0,0,1,0,0Z" transform="translate(719.23 385.01) rotate(180)"/><path class="c" d="M180.48,47.84h2.67a1,1,0,0,0,1-1V43.45a1,1,0,0,0-1-1h-2.09a.82.82,0,0,1-.77-.55q-.11-.29-.24-.58a.82.82,0,0,1,.15-.93l1.48-1.48a1,1,0,0,0,0-1.38l-2.41-2.41a1,1,0,0,0-1.38,0l-1.49,1.49a.81.81,0,0,1-.89.17l-.64-.26a.81.81,0,0,1-.51-.75V33.69a1,1,0,0,0-1-1H170a1,1,0,0,0-1,1v2.09a.82.82,0,0,1-.55.76l-.61.25a.82.82,0,0,1-.93-.15l-1.48-1.48a1,1,0,0,0-1.38,0l-2.4,2.42a1,1,0,0,0,0,1.38l1.49,1.49a.81.81,0,0,1,.17.89c-.09.21-.18.44-.26.64a.81.81,0,0,1-.75.51h-2.11a1,1,0,0,0-1,1V46.9a1,1,0,0,0,1,1h2.09a.82.82,0,0,1,.77.55q.11.29.24.58a.82.82,0,0,1-.15.93l-1.48,1.48a1,1,0,0,0,0,1.38l2.41,2.4a1,1,0,0,0,1.38,0L167,53.7a.81.81,0,0,1,.89-.17l.64.26a.81.81,0,0,1,.51.75v2.11a1,1,0,0,0,1,1h3.41a1,1,0,0,0,1-1V54.55a.82.82,0,0,1,.55-.77l.58-.24a.82.82,0,0,1,.93.15l1.48,1.48a1,1,0,0,0,1.38,0l2.41-2.41a1,1,0,0,0,0-1.38l-1.49-1.49A.81.81,0,0,1,180,49C180.25,48.48,180.47,47.88,180.48,47.84ZM166.92,44.3a4.83,4.83,0,1,1,3,5.37A4.83,4.83,0,0,1,166.92,44.3Z"/><circle class="d" cx="171.67" cy="45.17" r="6.09"/><circle class="g" cx="171.67" cy="45.17" r="2.01"/><path class="c" d="M184.7,58.51h-2.5a.51.51,0,0,1,0-1h1.48V55.84a.51.51,0,0,1,1,0Z"/><path class="c" d="M159.31,34.25a.51.51,0,0,1-.51-.51V31.06h2.5a.51.51,0,0,1,0,1h-1.48v1.65A.51.51,0,0,1,159.31,34.25Z"/><rect class="ac" x="116.29" y="91.66" width="2.57" height="5" transform="translate(-32.14 110.72) rotate(-45)"/><rect class="ad" x="118.68" y="94.13" width="5.01" height="7.09" transform="translate(-33.57 114.3) rotate(-45)"/><path class="c" d="M96.43,73a15.37,15.37,0,1,0,21.74,0A15.39,15.39,0,0,0,96.43,73Zm19.45,19.45a12.13,12.13,0,1,1,0-17.15A12.14,12.14,0,0,1,115.88,92.46Z"/><path class="e" d="M115.94,75.24a12.22,12.22,0,1,0,0,17.28A12.24,12.24,0,0,0,115.94,75.24Zm-.83,16.46a11.05,11.05,0,1,1,0-15.63A11.06,11.06,0,0,1,115.12,91.7Z"/><rect class="c" x="118.95" y="95.08" width="2.57" height="7.09" transform="translate(-34.52 113.9) rotate(-45)"/><path class="c" d="M107.94,75.08v8.67h0l6.12,6.14a8.65,8.65,0,0,0,2.55-6.12v0A8.67,8.67,0,0,0,107.94,75.08Z"/><path class="g" d="M100.54,77.19A8.65,8.65,0,0,0,98,83.32l8.67,0h0V74.66A8.65,8.65,0,0,0,100.54,77.19Z"/><path class="e" d="M107.1,84.61h0l-8.67,0v0a8.67,8.67,0,0,0,14.8,6.14Z"/><path class="c" d="M177.53,75.84V99.39a.82.82,0,0,1-.82.82h-5v9.38a.45.45,0,0,1-.79.29l-10-9.67H137.19a.82.82,0,0,1-.82-.82V75.84a.82.82,0,0,1,.82-.82h39.52A.82.82,0,0,1,177.53,75.84Z"/><path class="d" d="M173.25,83.56H140.92a1.05,1.05,0,0,1-1.05-1.05h0a1.05,1.05,0,0,1,1.05-1.05h32.33a1.05,1.05,0,0,1,1.05,1.05h0A1.05,1.05,0,0,1,173.25,83.56Z"/><path class="d" d="M173.25,88.79H140.92a1.05,1.05,0,0,1-1.05-1.05h0a1.05,1.05,0,0,1,1.05-1.05h32.33a1.05,1.05,0,0,1,1.05,1.05h0A1.05,1.05,0,0,1,173.25,88.79Z"/><path class="d" d="M173.25,94h-25.6A1.05,1.05,0,0,1,146.61,93h0a1.05,1.05,0,0,1,1.05-1.05h25.6A1.05,1.05,0,0,1,174.3,93h0A1.05,1.05,0,0,1,173.25,94Z"/><path class="c" d="M312.33,31.89V55.43a.82.82,0,0,0,.82.82h5v9.38a.45.45,0,0,0,.79.29l10-9.67h23.76a.82.82,0,0,0,.82-.82V31.89a.82.82,0,0,0-.82-.82H313.15A.82.82,0,0,0,312.33,31.89Z"/><path class="d" d="M316.61,39.61h32.33A1.05,1.05,0,0,0,350,38.56h0a1.05,1.05,0,0,0-1.05-1.05H316.61a1.05,1.05,0,0,0-1.05,1.05h0A1.05,1.05,0,0,0,316.61,39.61Z"/><path class="d" d="M316.61,44.84h32.33A1.05,1.05,0,0,0,350,43.78h0a1.05,1.05,0,0,0-1.05-1.05H316.61a1.05,1.05,0,0,0-1.05,1.05h0A1.05,1.05,0,0,0,316.61,44.84Z"/><path class="d" d="M316.61,50.07h25.6A1.05,1.05,0,0,0,343.26,49h0A1.05,1.05,0,0,0,342.21,48h-25.6A1.05,1.05,0,0,0,315.56,49h0A1.05,1.05,0,0,0,316.61,50.07Z"/><polygon class="l" points="341.9 173.88 340.26 173.88 326.5 173.88 324.86 173.88 318.28 195.19 319.92 195.19 328.45 195.19 333.68 195.19 335.32 195.19 338.34 195.19 341.02 195.19 338.56 184.69 341.9 173.88"/><polygon class="ae" points="340.34 195.19 343.02 195.19 340.34 183.74 330.45 195.19 340.34 195.19"/><polygon class="h" points="337.32 195.19 321.92 195.19 328.5 173.88 343.9 173.88 337.32 195.19"/><polygon class="q" points="335.68 195.19 320.28 195.19 326.86 173.88 342.26 173.88 335.68 195.19"/><polygon class="x" points="334.52 192.39 323.16 192.39 328.01 176.68 339.38 176.68 334.52 192.39"/><polygon class="i" points="323.98 191.98 328.71 176.68 328.01 176.68 323.16 192.39 334.52 192.39 334.65 191.98 323.98 191.98"/><line class="y" x1="14.68" y1="228.02" x2="448.95" y2="228.02"/></svg>