<svg xmlns="http://www.w3.org/2000/svg" viewBox="0 0 268.71 184.44"><defs><style>.a{opacity:0.47;}.b{fill:#e0e4f0;}.c{fill:#f5f7f9;}.d{fill:#575a8f;}.e{fill:#fff;}.f,.r,.s,.t{fill:#191c3c;}.f,.u,.y{opacity:0.2;}.g{fill:#dfe2ec;}.h{fill:#8184c4;}.i{fill:#fcd991;}.j{fill:#fec55e;}.k{fill:#6371c5;}.l{fill:#bebcba;}.m,.o,.r{opacity:0.3;}.n,.o,.p,.u{fill:#6d6e71;}.p,.t{opacity:0.1;}.q{fill:#41446b;}.v,.y{fill:#3a3c4e;}.w{fill:#4d5068;}.x{fill:#474963;}</style></defs><title>Asset 4</title><g class="a"><path class="b" d="M134.73,13.26c12.36-1.59,95.1-12.2,124.39,28.23,16,22,8.23,48.45,3.59,64.29-3.89,13.3-15.71,53.65-52.74,69.66-39.18,16.95-61.23-13-132.17-.91-31.59,5.38-44,14.17-56.79,7.53-25.58-13.28-8.91-65.59-5.94-74.92C20.4,90.43,30.93,57.37,68.5,34.24,93.61,18.78,118.5,15.34,134.73,13.26Z"/><path class="b" d="M134.73,13.26c12.36-1.59,95.1-12.2,124.39,28.23,16,22,8.23,48.45,3.59,64.29-3.89,13.3-15.71,53.65-52.74,69.66-39.18,16.95-61.23-13-132.17-.91-31.59,5.38-44,14.17-56.79,7.53-25.58-13.28-8.91-65.59-5.94-74.92C20.4,90.43,30.93,57.37,68.5,34.24,93.61,18.78,118.5,15.34,134.73,13.26Z"/></g><g class="a"><path class="b" d="M26.42,148.4c-37-41.16-32.22-108.71-3.64-125.75,23.61-14.08,46.08,16.66,99.74,6.46,28.75-5.47,34.54-16.62,77.54-24.47,26.77-4.89,45.89-8.13,57.88,2,16,13.54,10.52,43.46,3.64,60.5-9.18,22.74-21.89,24.94-61.52,67.29-27.34,29.21-23.25,30.26-33.13,36.37C131.77,192.56,63.46,189.6,26.42,148.4Z"/><path class="b" d="M26.42,148.4c-37-41.16-32.22-108.71-3.64-125.75,23.61-14.08,46.08,16.66,99.74,6.46,28.75-5.47,34.54-16.62,77.54-24.47,26.77-4.89,45.89-8.13,57.88,2,16,13.54,10.52,43.46,3.64,60.5-9.18,22.74-21.89,24.94-61.52,67.29-27.34,29.21-23.25,30.26-33.13,36.37C131.77,192.56,63.46,189.6,26.42,148.4Z"/></g><path class="c" d="M44.08,21.89h184a4.42,4.42,0,0,1,4.42,4.42V170.16a0,0,0,0,1,0,0H39.65a0,0,0,0,1,0,0V26.32A4.42,4.42,0,0,1,44.08,21.89Z"/><path class="d" d="M232.48,39.75V25.49a4.27,4.27,0,0,0-4.27-4.27H43.92a4.27,4.27,0,0,0-4.27,4.27V39.75Z"/><circle class="e" cx="51.65" cy="31.16" r="2.47"/><circle class="e" cx="59.86" cy="31.16" r="2.47"/><circle class="e" cx="68.08" cy="31.16" r="2.47"/><path class="f" d="M228.21,21.89h-5.45A4.27,4.27,0,0,1,227,26.16v144h5.45v-144A4.27,4.27,0,0,0,228.21,21.89Z"/><path class="g" d="M58.92,75.71h-3a3.43,3.43,0,0,1-3.43-3.43h0a3.43,3.43,0,0,1,3.43-3.43h3a3.43,3.43,0,0,1,3.43,3.43h0A3.43,3.43,0,0,1,58.92,75.71Z"/><path class="g" d="M58.92,93.11h-3a3.43,3.43,0,0,1-3.43-3.43h0a3.43,3.43,0,0,1,3.43-3.43h3a3.43,3.43,0,0,1,3.43,3.43h0A3.43,3.43,0,0,1,58.92,93.11Z"/><path class="g" d="M58.92,110.5h-3a3.43,3.43,0,0,1-3.43-3.43h0a3.43,3.43,0,0,1,3.43-3.43h3a3.43,3.43,0,0,1,3.43,3.43h0A3.43,3.43,0,0,1,58.92,110.5Z"/><path class="g" d="M58.92,127.89h-3a3.43,3.43,0,0,1-3.43-3.43h0A3.43,3.43,0,0,1,55.87,121h3a3.43,3.43,0,0,1,3.43,3.43h0A3.43,3.43,0,0,1,58.92,127.89Z"/><path class="g" d="M58.92,145.28h-3a3.43,3.43,0,0,1-3.43-3.43h0a3.43,3.43,0,0,1,3.43-3.43h3a3.43,3.43,0,0,1,3.43,3.43h0A3.43,3.43,0,0,1,58.92,145.28Z"/><path class="g" d="M58.92,162.68h-3a3.43,3.43,0,0,1-3.43-3.43h0a3.43,3.43,0,0,1,3.43-3.43h3a3.43,3.43,0,0,1,3.43,3.43h0A3.43,3.43,0,0,1,58.92,162.68Z"/><path class="h" d="M209.43,75.71h-3A3.43,3.43,0,0,1,203,72.29h0a3.43,3.43,0,0,1,3.43-3.43h3a3.43,3.43,0,0,1,3.43,3.43h0A3.43,3.43,0,0,1,209.43,75.71Z"/><path class="i" d="M209.43,93.11h-3A3.43,3.43,0,0,1,203,89.68h0a3.43,3.43,0,0,1,3.43-3.43h3a3.43,3.43,0,0,1,3.43,3.43h0A3.43,3.43,0,0,1,209.43,93.11Z"/><path class="h" d="M209.43,110.5h-3a3.43,3.43,0,0,1-3.43-3.43h0a3.43,3.43,0,0,1,3.43-3.43h3a3.43,3.43,0,0,1,3.43,3.43h0A3.43,3.43,0,0,1,209.43,110.5Z"/><path class="i" d="M209.43,127.89h-3a3.43,3.43,0,0,1-3.43-3.43h0a3.43,3.43,0,0,1,3.43-3.43h3a3.43,3.43,0,0,1,3.43,3.43h0A3.43,3.43,0,0,1,209.43,127.89Z"/><path class="h" d="M209.43,145.28h-3a3.43,3.43,0,0,1-3.43-3.43h0a3.43,3.43,0,0,1,3.43-3.43h3a3.43,3.43,0,0,1,3.43,3.43h0A3.43,3.43,0,0,1,209.43,145.28Z"/><path class="g" d="M209.43,162.68h-3a3.43,3.43,0,0,1-3.43-3.43h0a3.43,3.43,0,0,1,3.43-3.43h3a3.43,3.43,0,0,1,3.43,3.43h0A3.43,3.43,0,0,1,209.43,162.68Z"/><path class="h" d="M92,75.71H71.93a3.43,3.43,0,0,1-3.43-3.43h0a3.43,3.43,0,0,1,3.43-3.43H92a3.43,3.43,0,0,1,3.43,3.43h0A3.43,3.43,0,0,1,92,75.71Z"/><path class="j" d="M109.8,75.71h60a3.43,3.43,0,0,0,3.43-3.43h0a3.43,3.43,0,0,0-3.43-3.43h-60a3.43,3.43,0,0,0-3.43,3.43h0A3.43,3.43,0,0,0,109.8,75.71Z"/><path class="g" d="M156.4,93.11H71.93a3.43,3.43,0,0,1-3.43-3.43h0a3.43,3.43,0,0,1,3.43-3.43H156.4a3.43,3.43,0,0,1,3.43,3.43h0A3.43,3.43,0,0,1,156.4,93.11Z"/><path class="g" d="M175,110.5h-103a3.43,3.43,0,0,1-3.43-3.43h0a3.43,3.43,0,0,1,3.43-3.43H175a3.43,3.43,0,0,1,3.43,3.43h0A3.43,3.43,0,0,1,175,110.5Z"/><path class="g" d="M156.4,127.89H125.18a3.43,3.43,0,0,1-3.43-3.43h0a3.43,3.43,0,0,1,3.43-3.43H156.4a3.43,3.43,0,0,1,3.43,3.43h0A3.43,3.43,0,0,1,156.4,127.89Z"/><path class="g" d="M109.53,128.48,69.4,126.65a3.66,3.66,0,0,1-3.21-4h0a3.66,3.66,0,0,1,3.57-3.72l40.13,1.84a3.66,3.66,0,0,1,3.21,4h0A3.66,3.66,0,0,1,109.53,128.48Z"/><path class="j" d="M109.37,127.6l-40.3-5a3.43,3.43,0,0,1-3-3.82h0a3.43,3.43,0,0,1,3.82-3l40.3,5a3.43,3.43,0,0,1,3,3.82h0A3.43,3.43,0,0,1,109.37,127.6Z"/><path class="g" d="M136.16,145.28H71.93a3.43,3.43,0,0,1-3.43-3.43h0a3.43,3.43,0,0,1,3.43-3.43h64.24a3.43,3.43,0,0,1,3.43,3.43h0A3.43,3.43,0,0,1,136.16,145.28Z"/><path class="j" d="M147.7,145.28h20.57a3.43,3.43,0,0,0,3.43-3.43h0a3.43,3.43,0,0,0-3.43-3.43H147.7a3.43,3.43,0,0,0-3.43,3.43h0A3.43,3.43,0,0,0,147.7,145.28Z"/><path class="k" d="M156.4,162.68H71.93a3.43,3.43,0,0,1-3.43-3.43h0a3.43,3.43,0,0,1,3.43-3.43H156.4a3.43,3.43,0,0,1,3.43,3.43h0A3.43,3.43,0,0,1,156.4,162.68Z"/><rect class="l" x="50.13" y="47.17" width="165.12" height="9.11" rx="4.56" ry="4.56" transform="translate(2.27 -5.48) rotate(2.39)"/><path class="g" d="M210.15,58.38l-3-.13a3.43,3.43,0,0,1-3.28-3.57h0a3.43,3.43,0,0,1,3.57-3.28l3,.13a3.43,3.43,0,0,1,3.28,3.57h0A3.43,3.43,0,0,1,210.15,58.38Z"/><path class="g" d="M117.06,54.5l-44.3-1.85a3.43,3.43,0,0,1-3.28-3.57h0A3.43,3.43,0,0,1,73,45.81l44.3,1.85a3.43,3.43,0,0,1,3.28,3.57h0A3.43,3.43,0,0,1,117.06,54.5Z"/><path class="g" d="M59.77,52.12l-3-.13a3.43,3.43,0,0,1-3.28-3.57h0A3.43,3.43,0,0,1,57,45.14l3,.13a3.43,3.43,0,0,1,3.28,3.57h0A3.43,3.43,0,0,1,59.77,52.12Z"/><path class="j" d="M127.92,55l9,.38a3.43,3.43,0,0,0,3.57-3.28h0a3.43,3.43,0,0,0-3.28-3.57l-9-.38a3.43,3.43,0,0,0-3.57,3.28h0A3.43,3.43,0,0,0,127.92,55Z"/><g class="m"><polygon class="n" points="27.15 162.6 31.57 164.94 35.79 157.68 31.38 155.34 27.15 162.6"/><polygon class="n" points="45.63 116.64 45.63 143.89 34.46 160.18 29.63 157.91 38.41 139.23 36.12 119.94 45.63 116.64"/><rect class="n" x="43.32" y="158.28" width="5.65" height="8.29"/><polygon class="n" points="39.81 138.56 37.61 132.51 36.12 119.94 44.54 117.01 45.63 124.07 45.63 143.89 41.02 150.62 39.81 138.56"/><path class="n" d="M32.93,108.93l-.46.85a4.65,4.65,0,0,0-.56,2.4l.21,5.42a12.91,12.91,0,0,0,2.16,6.63l3.23,4.88L41,138.56,43,159.22h6.43l-1.34-20,.3-.94a5.25,5.25,0,0,0,.1-2.87l-2.89-18.75,2-5.24Z"/><path class="n" d="M63.22,85.87a5.59,5.59,0,0,1,.4-2.39,5,5,0,0,1,2.21-2,15.63,15.63,0,0,1,7-1.91v.16a7.15,7.15,0,0,1-1,3.69c-1.17,2.51-2.29,5.17-2,7.9.23,2.55,1.62,4.85,3,7.06a22.75,22.75,0,0,0-2.48-2.46,17.47,17.47,0,0,0,2.1,4.5c-1.91-.91-3-2.86-3.93-4.69a12.44,12.44,0,0,0,1.29,4.47,17.35,17.35,0,0,1-3.17-4.9,5.7,5.7,0,0,0,.92,3.86A22.26,22.26,0,0,1,64,93.48,21.12,21.12,0,0,1,63.22,85.87Z"/><path class="n" d="M63.22,85.87a5.59,5.59,0,0,1,.4-2.39,5,5,0,0,1,2.21-2,15.63,15.63,0,0,1,7-1.91v.16a7.15,7.15,0,0,1-1,3.69c-1.17,2.51-2.29,5.17-2,7.9.23,2.55,1.62,4.85,3,7.06a22.75,22.75,0,0,0-2.48-2.46,17.47,17.47,0,0,0,2.1,4.5c-1.91-.91-3-2.86-3.93-4.69a12.44,12.44,0,0,0,1.29,4.47,17.35,17.35,0,0,1-3.17-4.9,5.7,5.7,0,0,0,.92,3.86A22.26,22.26,0,0,1,64,93.48,21.12,21.12,0,0,1,63.22,85.87Z"/><path class="n" d="M63.22,85.87a5.59,5.59,0,0,1,.4-2.39,5,5,0,0,1,2.21-2,15.63,15.63,0,0,1,7-1.91v.16a7.15,7.15,0,0,1-1,3.69,19.72,19.72,0,0,0-2,6.18,2.54,2.54,0,0,1-3.57-.49l-.52-.71-2.47,1C63.19,88.22,63.2,87,63.22,85.87Z"/><polygon class="n" points="59.95 84.54 61.88 88.86 66.83 86.85 64.91 82.54 59.95 84.54"/><polygon class="n" points="62.93 82.97 64.6 87.76 66.83 86.85 64.91 82.54 62.93 82.97"/><path class="n" d="M76,80.15l-2.29,3.64-.57.55v2.46H71.78L70,88.4A2.55,2.55,0,0,1,66.25,88l-4.11-5.68L65,75.87S73.88,73.05,76,80.15Z"/><path class="n" d="M76.1,80.37l.07-.09.13-.09Z"/><path class="n" d="M76.1,80.37l.07-.09.13-.09Z"/><path class="n" d="M75.62,80.79l.48-.42A1.44,1.44,0,0,1,75.62,80.79Z"/><path class="n" d="M75.62,80.79l.48-.42A1.44,1.44,0,0,1,75.62,80.79Z"/><path class="n" d="M51.73,82.59c1.53-1.14,3.91-1.18,5-2.71a8.13,8.13,0,0,1,.73-1.09c.84-.85,2.45-.68,3.19-1.6a4.48,4.48,0,0,0,.57-1.44,4,4,0,0,1,1.5-2,8.54,8.54,0,0,1,1.84-.89l2-.77a7.55,7.55,0,0,1,2.06-.58,7.61,7.61,0,0,1,2.93.53,7.56,7.56,0,0,1,1.43.57,7.1,7.1,0,0,1,2.63,3.55,6.52,6.52,0,0,1,.88,3.24,1.9,1.9,0,0,1-.31.88,4,4,0,0,1-3,.36,9.58,9.58,0,0,0-3.25-.37,13.65,13.65,0,0,1-2.55.29,2.83,2.83,0,0,0-2.11,1.24,8,8,0,0,1-1.79,1.79,5.73,5.73,0,0,1-1.54.57,5.31,5.31,0,0,1-1.49.22A7.89,7.89,0,0,1,58,83.67a10.6,10.6,0,0,0-2.41-.58,3.4,3.4,0,0,0-1.12,0,3.92,3.92,0,0,0-1.44.77l-1.61,1.18c-.33.24-1.06.53-1.23.89A3.74,3.74,0,0,1,51.73,82.59Z"/><path class="n" d="M51.73,82.59c1.53-1.14,3.91-1.18,5-2.71a8.13,8.13,0,0,1,.73-1.09c.84-.85,2.45-.68,3.19-1.6a4.48,4.48,0,0,0,.57-1.44,4,4,0,0,1,1.5-2,8.54,8.54,0,0,1,1.84-.89l2-.77a7.55,7.55,0,0,1,2.06-.58,7.61,7.61,0,0,1,2.93.53,7.56,7.56,0,0,1,1.43.57,7.1,7.1,0,0,1,2.63,3.55,6.52,6.52,0,0,1,.88,3.24,1.9,1.9,0,0,1-.31.88,4,4,0,0,1-3,.36,9.58,9.58,0,0,0-3.25-.37,13.65,13.65,0,0,1-2.55.29,2.83,2.83,0,0,0-2.11,1.24,8,8,0,0,1-1.79,1.79,5.73,5.73,0,0,1-1.54.57,5.31,5.31,0,0,1-1.49.22A7.89,7.89,0,0,1,58,83.67a10.6,10.6,0,0,0-2.41-.58,3.4,3.4,0,0,0-1.12,0,3.92,3.92,0,0,0-1.44.77l-1.61,1.18c-.33.24-1.06.53-1.23.89A3.74,3.74,0,0,1,51.73,82.59Z"/><path class="n" d="M31.91,112.17a4.61,4.61,0,0,1,.17-1.4l.52-1.24.33-.61,14.73,2.47L46.25,115,32,114.25Z"/><path class="n" d="M61,84.11,56.81,83H54.63a7.73,7.73,0,0,0-4.73,1.61l-6.64,5.15a18.45,18.45,0,0,0-5.58,7l-6.52,16,16.16,2.31,6.93-20,6-3.15,1.65-3.12Z"/><path class="n" d="M59,170.52l-.25-.56a4.92,4.92,0,0,0-2.33-2.42L52,166l-3-1.77v1.51l-3.39-.06-1.39-.74h-1v5.57Z"/><rect class="n" x="42.48" y="170.52" width="16.92" height="0.89"/><path class="n" d="M38.27,171.37v-.81a3.23,3.23,0,0,0-.86-1.95l-2.91-3L32.86,163l-.66,1.24-2.74-1.39-.81-1.15-.8-.37-2.42,4.55,11.24,5.44Z"/><polygon class="n" points="24.35 166.26 34.92 171.38 35.31 170.66 24.73 165.54 24.35 166.26"/><polygon class="n" points="38.27 171.37 34.83 171.37 33.59 170.56 38.27 170.56 38.27 171.37"/><path class="n" d="M57.45,168.23H46.37v-.43H56.86A5,5,0,0,1,57.45,168.23Z"/><polygon class="n" points="54.92 167.01 43.33 167.01 43.33 166.57 53.68 166.57 54.92 167.01"/><polygon class="n" points="27.34 162.28 35.09 166.23 35.97 167.12 27.15 162.64 27.34 162.28"/><path class="n" d="M29.23,164.52l8.28,4.21a4.72,4.72,0,0,1,.45.68L29,164.87Z"/><path class="n" d="M33.33,121a7,7,0,0,0,4.49,4.88c.55.21.91,1,.53,1.43a5.16,5.16,0,0,0,1,.43c.74.3-.29.65-1.05.79-1.28.24.7,1.23.85,2.1s.76,1.92.92,2.95a9.62,9.62,0,0,1,0,2.62l-2.59-7.12-3.23-4.88a13,13,0,0,1-1.73-3.84A.85.85,0,0,1,33.33,121Z"/><path class="n" d="M40.83,138.23a7,7,0,0,0,1.94-.36c1.19-.31.14.85-1,1.24-.27.09.95.69.67.79.07.06,1,.56,1,.63.84.44-.4,1-1.14,1.2a2.25,2.25,0,0,1,.32.6c.53,1.45-.25,3.9-.41,5.4a.9.9,0,0,1-.33.61l-1-9.78Z"/><path class="n" d="M47.76,106.17c.35,0,1.34-.29,1.69-.33-.09-.23-1.09-.85-.83-.95a3.22,3.22,0,0,0,2.78-3c-.05-.37.33-.5.63-.38l-1.14,3.28a6.67,6.67,0,0,1-.7.4l.25.08a.46.46,0,0,1,.22.16l-.25.71-.33,0a.41.41,0,0,1,.21.3l-.15.42a11.33,11.33,0,0,0-1,2.91l-1.3,3.74a31.86,31.86,0,0,1,.49-5,3.82,3.82,0,0,1,.52-1.68l-1.57-.32C46.84,106.45,47.29,106.23,47.76,106.17Z"/><path class="n" d="M56.67,100.8,55.84,107l8.33,10.19,2.66-.36,2.56,1.27.64,1.21-.32,2.91-4.9.52-2.67-3.07-11.3-9.95a1.59,1.59,0,0,1-.54-1.35l.84-8.26Z"/><polygon class="n" points="51.13 100.08 56.67 100.8 56.58 101.52 51.05 100.87 51.13 100.08"/><polygon class="n" points="50.56 91.73 51.51 94.28 50.56 100.08 57.46 100.89 60.23 91.98 59.15 89.03 50.56 91.73"/><path class="n" d="M51.16,99c.42-1.71.2-2.69.65-4.39.2-.74.34-.94.63-1.06l-.06,0a.43.43,0,0,1-.12-.66c-.43-.27-.54-1-1-1.23s-.39-.52.15-.28a11.15,11.15,0,0,1,1.9,1.09.44.44,0,0,1,.14.64c.12.07,0,.49.1.56.38.22.51.33.14.47-1.09.42-1.14,1.46-1.39,2.45L51.47,100C51.33,100.56,51,99.59,51.16,99Z"/><polygon class="n" points="27.15 162.6 31.57 164.94 35.79 157.68 31.38 155.34 27.15 162.6"/><polygon class="n" points="45.63 116.64 45.63 143.89 34.46 160.18 29.63 157.91 38.41 139.23 36.12 119.94 45.63 116.64"/><rect class="n" x="43.32" y="158.28" width="5.65" height="8.29"/><polygon class="o" points="39.81 138.56 37.61 132.51 36.12 119.94 44.54 117.01 45.63 124.07 45.63 143.89 41.02 150.62 39.81 138.56"/><path class="n" d="M32.93,108.93l-.46.85a4.65,4.65,0,0,0-.56,2.4l.21,5.42a12.91,12.91,0,0,0,2.16,6.63l3.23,4.88L41,138.56,43,159.22h6.43l-1.34-20,.3-.94a5.25,5.25,0,0,0,.1-2.87l-2.89-18.75,2-5.24Z"/><path class="n" d="M63.22,85.87a5.59,5.59,0,0,1,.4-2.39,5,5,0,0,1,2.21-2,15.63,15.63,0,0,1,7-1.91v.16a7.15,7.15,0,0,1-1,3.69c-1.17,2.51-2.29,5.17-2,7.9.23,2.55,1.62,4.85,3,7.06a22.75,22.75,0,0,0-2.48-2.46,17.47,17.47,0,0,0,2.1,4.5c-1.91-.91-3-2.86-3.93-4.69a12.44,12.44,0,0,0,1.29,4.47,17.35,17.35,0,0,1-3.17-4.9,5.7,5.7,0,0,0,.92,3.86A22.26,22.26,0,0,1,64,93.48,21.12,21.12,0,0,1,63.22,85.87Z"/><path class="o" d="M63.22,85.87a5.59,5.59,0,0,1,.4-2.39,5,5,0,0,1,2.21-2,15.63,15.63,0,0,1,7-1.91v.16a7.15,7.15,0,0,1-1,3.69,19.72,19.72,0,0,0-2,6.18,2.54,2.54,0,0,1-3.57-.49l-.52-.71-2.47,1C63.19,88.22,63.2,87,63.22,85.87Z"/><polygon class="n" points="59.95 84.54 61.88 88.86 66.83 86.85 64.91 82.54 59.95 84.54"/><polygon class="o" points="62.93 82.97 64.6 87.76 66.83 86.85 64.91 82.54 62.93 82.97"/><path class="n" d="M76,80.15l-2.29,3.64-.57.55v2.46H71.78L70,88.4A2.55,2.55,0,0,1,66.25,88l-4.11-5.68L65,75.87S73.88,73.05,76,80.15Z"/><path class="n" d="M76.1,80.37l.07-.09.13-.09Z"/><path class="n" d="M75.62,80.79l.48-.42A1.44,1.44,0,0,1,75.62,80.79Z"/><path class="n" d="M51.73,82.59c1.53-1.14,3.91-1.18,5-2.71a8.13,8.13,0,0,1,.73-1.09c.84-.85,2.45-.68,3.19-1.6a4.48,4.48,0,0,0,.57-1.44,4,4,0,0,1,1.5-2,8.54,8.54,0,0,1,1.84-.89l2-.77a7.55,7.55,0,0,1,2.06-.58,7.61,7.61,0,0,1,2.93.53,7.56,7.56,0,0,1,1.43.57,7.1,7.1,0,0,1,2.63,3.55,6.52,6.52,0,0,1,.88,3.24,1.9,1.9,0,0,1-.31.88,4,4,0,0,1-3,.36,9.58,9.58,0,0,0-3.25-.37,13.65,13.65,0,0,1-2.55.29,2.83,2.83,0,0,0-2.11,1.24,8,8,0,0,1-1.79,1.79,5.73,5.73,0,0,1-1.54.57,5.31,5.31,0,0,1-1.49.22A7.89,7.89,0,0,1,58,83.67a10.6,10.6,0,0,0-2.41-.58,3.4,3.4,0,0,0-1.12,0,3.92,3.92,0,0,0-1.44.77l-1.61,1.18c-.33.24-1.06.53-1.23.89A3.74,3.74,0,0,1,51.73,82.59Z"/><path class="o" d="M31.91,112.17a4.61,4.61,0,0,1,.17-1.4l.52-1.24.33-.61,14.73,2.47L46.25,115,32,114.25Z"/><path class="n" d="M61,84.11,56.81,83H54.63a7.73,7.73,0,0,0-4.73,1.61l-6.64,5.15a18.45,18.45,0,0,0-5.58,7l-6.52,16,16.16,2.31,6.93-20,6-3.15,1.65-3.12Z"/><path class="n" d="M59,170.52l-.25-.56a4.92,4.92,0,0,0-2.33-2.42L52,166l-3-1.77v1.51l-3.39-.06-1.39-.74h-1v5.57Z"/><rect class="n" x="42.48" y="170.52" width="16.92" height="0.89"/><path class="n" d="M38.27,171.37v-.81a3.23,3.23,0,0,0-.86-1.95l-2.91-3L32.86,163l-.66,1.24-2.74-1.39-.81-1.15-.8-.37-2.42,4.55,11.24,5.44Z"/><polygon class="n" points="24.35 166.26 34.92 171.38 35.31 170.66 24.73 165.54 24.35 166.26"/><polygon class="n" points="38.27 171.37 34.83 171.37 33.59 170.56 38.27 170.56 38.27 171.37"/><path class="n" d="M57.45,168.23H46.37v-.43H56.86A5,5,0,0,1,57.45,168.23Z"/><polygon class="n" points="54.92 167.01 43.33 167.01 43.33 166.57 53.68 166.57 54.92 167.01"/><polygon class="n" points="27.34 162.28 35.09 166.23 35.97 167.12 27.15 162.64 27.34 162.28"/><path class="n" d="M29.23,164.52l8.28,4.21a4.72,4.72,0,0,1,.45.68L29,164.87Z"/><g class="m"><path class="n" d="M33.33,121a7,7,0,0,0,4.49,4.88c.55.21.91,1,.53,1.43a5.16,5.16,0,0,0,1,.43c.74.3-.29.65-1.05.79-1.28.24.7,1.23.85,2.1s.76,1.92.92,2.95a9.62,9.62,0,0,1,0,2.62l-2.59-7.12-3.23-4.88a13,13,0,0,1-1.73-3.84A.85.85,0,0,1,33.33,121Z"/><path class="n" d="M40.83,138.23a7,7,0,0,0,1.94-.36c1.19-.31.14.85-1,1.24-.27.09.95.69.67.79.07.06,1,.56,1,.63.84.44-.4,1-1.14,1.2a2.25,2.25,0,0,1,.32.6c.53,1.45-.25,3.9-.41,5.4a.9.9,0,0,1-.33.61l-1-9.78Z"/></g><path class="p" d="M47.76,106.17c.35,0,1.34-.29,1.69-.33-.09-.23-1.09-.85-.83-.95a3.22,3.22,0,0,0,2.78-3c-.05-.37.33-.5.63-.38l-1.14,3.28a6.67,6.67,0,0,1-.7.4l.25.08a.46.46,0,0,1,.22.16l-.25.71-.33,0a.41.41,0,0,1,.21.3l-.15.42a11.33,11.33,0,0,0-1,2.91l-1.3,3.74a31.86,31.86,0,0,1,.49-5,3.82,3.82,0,0,1,.52-1.68l-1.57-.32C46.84,106.45,47.29,106.23,47.76,106.17Z"/><path class="n" d="M56.67,100.8,55.84,107l8.33,10.19,2.66-.36,2.56,1.27.64,1.21-.32,2.91-4.9.52-2.67-3.07-11.3-9.95a1.59,1.59,0,0,1-.54-1.35l.84-8.26Z"/><polygon class="o" points="51.13 100.08 56.67 100.8 56.58 101.52 51.05 100.87 51.13 100.08"/><polygon class="n" points="50.56 91.73 51.51 94.28 50.56 100.08 57.46 100.89 60.23 91.98 59.15 89.03 50.56 91.73"/><path class="p" d="M51.16,99c.42-1.71.2-2.69.65-4.39.2-.74.34-.94.63-1.06l-.06,0a.43.43,0,0,1-.12-.66c-.43-.27-.54-1-1-1.23s-.39-.52.15-.28a11.15,11.15,0,0,1,1.9,1.09.44.44,0,0,1,.14.64c.12.07,0,.49.1.56.38.22.51.33.14.47-1.09.42-1.14,1.46-1.39,2.45L51.47,100C51.33,100.56,51,99.59,51.16,99Z"/></g><rect class="k" x="28.73" y="154.99" width="4.82" height="8.3" transform="translate(-18.92 313.37) rotate(-150.95)"/><polygon class="q" points="44.64 115.64 44.64 142.89 33.99 159.18 29.38 156.91 37.75 138.23 35.57 118.94 44.64 115.64"/><rect class="k" x="42.44" y="157.28" width="5.39" height="8.29" transform="translate(90.26 322.84) rotate(-180)"/><polygon class="r" points="39.09 137.56 36.99 131.51 35.57 118.94 43.6 116.01 44.64 123.07 44.64 142.89 40.24 149.62 39.09 137.56"/><path class="d" d="M32.53,107.93l-.44.85a4.83,4.83,0,0,0-.53,2.4l.2,5.42a13.34,13.34,0,0,0,2.06,6.63l3.08,4.88,3.28,9.46,2,20.65h6.13L47,138.2l.29-.94a5.5,5.5,0,0,0,.1-2.87l-2.75-18.75,1.94-5.24Z"/><path class="j" d="M61.41,84.87a5.84,5.84,0,0,1,.38-2.39,4.89,4.89,0,0,1,2.11-2,14.37,14.37,0,0,1,6.67-1.91v.16a7.42,7.42,0,0,1-.94,3.69c-1.11,2.51-2.18,5.17-1.95,7.9.22,2.55,1.54,4.85,2.84,7.06a22.24,22.24,0,0,0-2.36-2.46,17.88,17.88,0,0,0,2,4.5c-1.82-.91-2.84-2.86-3.75-4.69a12.9,12.9,0,0,0,1.23,4.47,17.46,17.46,0,0,1-3-4.9,5.92,5.92,0,0,0,.88,3.86,22.48,22.48,0,0,1-3.32-5.68A22.11,22.11,0,0,1,61.41,84.87Z"/><path class="r" d="M61.41,84.87a5.84,5.84,0,0,1,.38-2.39,4.89,4.89,0,0,1,2.11-2,14.37,14.37,0,0,1,6.67-1.91v.16a7.42,7.42,0,0,1-.94,3.69,20.4,20.4,0,0,0-1.92,6.18,2.35,2.35,0,0,1-3.41-.49l-.49-.71-2.35,1C61.38,87.22,61.39,86,61.41,84.87Z"/><rect class="k" x="59.23" y="82.13" width="4.69" height="5.13" transform="translate(7.68 174.48) rotate(-113.01)"/><polygon class="r" points="61.13 81.97 62.72 86.76 64.85 85.85 63.02 81.54 61.13 81.97"/><path class="k" d="M73.57,79.15l-2.18,3.64-.55.55v2.46H69.57L67.83,87.4A2.35,2.35,0,0,1,64.29,87l-3.92-5.68,2.73-6.46S71.57,72.05,73.57,79.15Z"/><path class="j" d="M73.69,79.37l.06-.09.13-.09Z"/><path class="j" d="M73.23,79.79l.46-.42A1.39,1.39,0,0,1,73.23,79.79Z"/><path class="j" d="M50.45,81.59c1.46-1.14,3.73-1.18,4.77-2.71a8.16,8.16,0,0,1,.7-1.09c.8-.85,2.34-.68,3-1.6a4.61,4.61,0,0,0,.54-1.44,4,4,0,0,1,1.43-2,8,8,0,0,1,1.76-.89l1.9-.77a6.94,6.94,0,0,1,2-.58,10.4,10.4,0,0,1,4.15,1.09,7.09,7.09,0,0,1,2.51,3.55,6.76,6.76,0,0,1,.84,3.24,2,2,0,0,1-.3.88,3.67,3.67,0,0,1-2.87.36,8.73,8.73,0,0,0-3.09-.37,12.44,12.44,0,0,1-2.43.29,2.68,2.68,0,0,0-2,1.24,7.78,7.78,0,0,1-1.71,1.79,5.3,5.3,0,0,1-1.47.57,4.84,4.84,0,0,1-1.42.22,7.26,7.26,0,0,1-2.28-.71,9.72,9.72,0,0,0-2.29-.58,3.09,3.09,0,0,0-1.07,0,3.68,3.68,0,0,0-1.38.77L50.2,84.06c-.32.24-1,.53-1.17.89A3.82,3.82,0,0,1,50.45,81.59Z"/><path class="r" d="M31.56,111.17a4.82,4.82,0,0,1,.16-1.4l.5-1.24.31-.61,14,2.47L45.23,114l-13.59-.78Z"/><path class="e" d="M59.32,83.11,55.3,82H53.22a7.15,7.15,0,0,0-4.51,1.61l-6.33,5.15a18.34,18.34,0,0,0-5.32,7l-6.22,16,15.41,2.31,6.61-20L58.56,91l1.57-3.12Z"/><path class="j" d="M57.39,169.52l-.23-.56a4.83,4.83,0,0,0-2.23-2.42L50.75,165l-2.82-1.77v1.51l-3.23-.06-1.32-.74h-.93v5.57Z"/><rect class="s" x="41.64" y="169.52" width="16.14" height="0.89" transform="translate(99.41 339.93) rotate(-180)"/><path class="j" d="M37.62,170.37v-.81a3.31,3.31,0,0,0-.82-1.95l-2.78-3L32.46,162l-.63,1.24-2.62-1.39-.77-1.15-.76-.37-2.31,4.55,10.72,5.44Z"/><rect class="s" x="23.92" y="167.05" width="11.31" height="0.81" transform="translate(-19.88 330.16) rotate(-153.08)"/><polygon class="s" points="37.62 170.37 34.34 170.37 33.16 169.56 37.62 169.56 37.62 170.37"/><path class="e" d="M55.91,167.23H45.35v-.43h10A4.8,4.8,0,0,1,55.91,167.23Z"/><polygon class="e" points="53.49 166.01 42.44 166.01 42.44 165.57 52.31 165.57 53.49 166.01"/><polygon class="e" points="27.2 161.28 34.59 165.23 35.42 166.12 27.02 161.64 27.2 161.28"/><path class="e" d="M29,163.52l7.89,4.21a4.74,4.74,0,0,1,.43.68l-8.51-4.54Z"/><g class="m"><path class="q" d="M32.91,120a6.87,6.87,0,0,0,4.28,4.88,1,1,0,0,1,.5,1.43,4.8,4.8,0,0,0,.94.43c.71.3-.28.65-1,.79-1.23.24.66,1.23.81,2.1s.73,1.92.88,2.95a10.09,10.09,0,0,1,0,2.62L36.9,128.1l-3.08-4.88a13.34,13.34,0,0,1-1.65-3.84A.82.82,0,0,1,32.91,120Z"/><path class="q" d="M40.06,137.23a6.38,6.38,0,0,0,1.85-.36c1.14-.31.14.85-.94,1.24-.26.09.9.69.64.79.06.06.93.56,1,.63.8.44-.38,1-1.09,1.2a2.28,2.28,0,0,1,.31.6c.5,1.45-.24,3.9-.39,5.4a.91.91,0,0,1-.31.61l-.93-9.78Z"/></g><path class="t" d="M46.67,105.17c.33,0,1.28-.29,1.61-.33-.09-.23-1-.85-.79-.95a3.16,3.16,0,0,0,2.65-3c0-.37.31-.5.6-.38l-1.09,3.28a6.29,6.29,0,0,1-.66.4l.24.08a.44.44,0,0,1,.21.16l-.24.71-.31,0a.41.41,0,0,1,.2.3l-.14.42a11.69,11.69,0,0,0-1,2.91l-1.24,3.74a33.37,33.37,0,0,1,.47-5,4,4,0,0,1,.49-1.68l-1.5-.32C45.79,105.45,46.22,105.23,46.67,105.17Z"/><path class="k" d="M55.17,99.8,54.37,106l7.95,10.19,2.53-.36,2.44,1.27.61,1.21-.3,2.91-4.67.52-2.55-3.07L49.6,108.69a1.63,1.63,0,0,1-.52-1.35l.8-8.26Z"/><polygon class="r" points="49.88 99.08 55.17 99.8 55.07 100.52 49.81 99.87 49.88 99.08"/><polygon class="e" points="49.34 90.73 50.25 93.28 49.34 99.08 55.92 99.89 58.56 90.98 57.53 88.03 49.34 90.73"/><path class="t" d="M49.92,98c.4-1.71.19-2.69.62-4.39.19-.74.33-.94.6-1.06l-.06,0a.44.44,0,0,1-.11-.66c-.41-.27-.51-1-1-1.23s-.38-.52.15-.28A10.51,10.51,0,0,1,52,91.47a.46.46,0,0,1,.13.64c.11.07,0,.49.09.56.36.22.48.33.14.47-1,.42-1.09,1.46-1.32,2.45L50.2,99C50.07,99.56,49.78,98.59,49.92,98Z"/><g class="m"><rect class="n" x="228.53" y="165.18" width="5.15" height="5.34"/><rect class="n" x="216.47" y="165.18" width="5.15" height="5.34"/><polygon class="n" points="220.98 110.33 221.45 143.05 222.2 167.18 215.86 167.18 214.56 142.88 209.96 118.32 209.96 110.33 220.98 110.33"/><polygon class="n" points="221.53 145.91 220.81 142.88 215.17 120.06 209.96 116.74 209.96 110.33 220.98 110.33 221.45 143.05 221.53 145.91"/><polygon class="n" points="228.97 110.33 230.13 144.09 234.35 167.18 228.01 167.18 222.2 142.88 216.56 120.06 209.96 115.85 209.96 110.33 228.97 110.33"/><path class="n" d="M222.51,168.21l.38.71v3.82H205.1l-1-.52.76-2.55a.33.33,0,0,1,.42-.21l1.25.42,2.78-.69,4.75-2.74a1,1,0,0,1,1.39,0l1.84,2.1h4l.48-.48A.5.5,0,0,1,222.51,168.21Z"/><polygon class="n" points="205.1 172.04 222.89 172.04 222.89 172.74 205.1 172.74 204.06 172.21 204.27 171.62 205.1 172.04"/><rect class="n" x="212.39" y="167.05" width="1.56" height="1" transform="translate(-56.67 141.12) rotate(-32.57)"/><rect class="n" x="210.54" y="168.2" width="1.56" height="1" transform="translate(-57.58 140.31) rotate(-32.57)"/><path class="n" d="M218,169.61a1.38,1.38,0,0,0,1.76,1.33l3.1-.89v-.44Z"/><path class="n" d="M216.67,172.62l-1.11-.56.81-2.73a.36.36,0,0,1,.45-.22l1.34.45,3-.74,1.27-.73a.48.48,0,0,1,.12.13l.38.71v3.7Z"/><path class="n" d="M234.66,168.21l.38.71v3.82H217.25l-1-.52.76-2.55a.33.33,0,0,1,.42-.21l1.25.42,2.78-.69,4.75-2.74a1,1,0,0,1,1.39,0l1.84,2.1h4l.48-.48A.5.5,0,0,1,234.66,168.21Z"/><polygon class="n" points="217.25 172.04 235.04 172.04 235.04 172.74 217.25 172.74 216.21 172.21 216.42 171.62 217.25 172.04"/><rect class="n" x="224.54" y="167.05" width="1.56" height="1" transform="translate(-54.76 147.66) rotate(-32.57)"/><rect class="n" x="222.69" y="168.2" width="1.56" height="1" transform="translate(-55.67 146.85) rotate(-32.57)"/><path class="n" d="M230.18,169.61a1.38,1.38,0,0,0,1.76,1.33L235,170v-.44Z"/><path class="n" d="M221.74,112.52l.87,2.15a3,3,0,0,0,2.81,1.89h3.75v.35h-4.44a3,3,0,0,1-2.81-1.89l-1.28-3.14Z"/><path class="n" d="M205,76.4h-5l6.13-9.95,3.39-1.71A2.77,2.77,0,0,0,211,62.26V56.35a.24.24,0,0,0-.24-.24h0c-.83,0-2-3.26-2.14,1s-3.31,4.15-3.31,4.15L204.26,64,193.52,76.52a1.15,1.15,0,0,0,.18,1.66h0a11.75,11.75,0,0,0,4.17,2l7.69,2Z"/><rect class="n" x="217.16" y="66.1" width="8.19" height="12.64"/><path class="n" d="M216,57c.43-.58,1.14-.48,1.7-.81s.77-.73,1.61-.87a5.56,5.56,0,0,1,2.25,0c1.1.26,2.06,1.06,3.19,1.08.36,0,.72-.07,1.08,0a1,1,0,0,1,.84.58c.1.34-.06.79.22,1a.94.94,0,0,0,.46.11A2.26,2.26,0,0,1,229,60.33a2.73,2.73,0,0,1-.23.64,16.69,16.69,0,0,0-1.28,3.51,24.21,24.21,0,0,0-.83,3.26,7.08,7.08,0,0,1-1,3.12c-.05.1-.17.22-.26.15a.19.19,0,0,1-.05-.11,10.37,10.37,0,0,1-.14-1.32,2.16,2.16,0,0,0-.45-1.23,4.3,4.3,0,0,1-.32-.34c-.29-.41-.17-1-.35-1.46s-.62-1.15-.85-1.77a1.37,1.37,0,0,0-.28-.53,1.25,1.25,0,0,0-.43-.24l-2-.78a6.67,6.67,0,0,0-1.29-.41,2.91,2.91,0,0,1-.73-.16,2,2,0,0,1-.88-1.48,2.47,2.47,0,0,0-.74-1.58c-.23-.17-.53-.26-.66-.51s0-.56-.12-.82-.16-.26-.23-.4A.84.84,0,0,1,216,57Z"/><path class="n" d="M216,57c.43-.58,1.14-.48,1.7-.81s.77-.73,1.61-.87a5.56,5.56,0,0,1,2.25,0c1.1.26,2.06,1.06,3.19,1.08.36,0,.72-.07,1.08,0a1,1,0,0,1,.84.58c.1.34-.06.79.22,1a.94.94,0,0,0,.46.11A2.26,2.26,0,0,1,229,60.33a2.73,2.73,0,0,1-.23.64,16.69,16.69,0,0,0-1.28,3.51,24.21,24.21,0,0,0-.83,3.26,7.08,7.08,0,0,1-1,3.12c-.05.1-.17.22-.26.15a.19.19,0,0,1-.05-.11,10.37,10.37,0,0,1-.14-1.32,2.16,2.16,0,0,0-.45-1.23,4.3,4.3,0,0,1-.32-.34c-.29-.41-.17-1-.35-1.46s-.62-1.15-.85-1.77a1.37,1.37,0,0,0-.28-.53,1.25,1.25,0,0,0-.43-.24l-2-.78a6.67,6.67,0,0,0-1.29-.41,2.91,2.91,0,0,1-.73-.16,2,2,0,0,1-.88-1.48,2.47,2.47,0,0,0-.74-1.58c-.23-.17-.53-.26-.66-.51s0-.56-.12-.82-.16-.26-.23-.4A.84.84,0,0,1,216,57Z"/><path class="n" d="M225.36,67.94a1.9,1.9,0,0,1-.85.27l-1.26.08-.3.46a3.78,3.78,0,0,1-2.4,1.64l-3.38-.68V66.1h8.19Z"/><path class="n" d="M214.78,62.68l-.47,1.11a2.73,2.73,0,0,0-.2,1.33l.28,2.92a2,2,0,0,0,2.38,1.75l3.77-.79a3.78,3.78,0,0,0,2.4-1.64l.3-.46,1.26-.08a1.91,1.91,0,0,0,1.39-.72h0a1.67,1.67,0,0,0,.36-1v-.31a1.23,1.23,0,0,0-.3-.8h0a1,1,0,0,0-1-.33l-.55.12V61.16a3.14,3.14,0,0,0-2.4-3l-3.16-.76-2.91.54Z"/><path class="n" d="M225.36,63.61a.14.14,0,0,0,.2-.12v-1.8l.69.34v1.81a.14.14,0,0,1-.2.12Z"/><polygon class="n" points="203.97 76.4 205.01 76.4 205.56 82.17 204.49 81.9 203.97 76.4"/><polygon class="n" points="217.16 73.8 210.28 75.19 204.9 75.19 205.65 83.11 210.28 85.77 217.16 75.19 217.16 73.8"/><polygon class="n" points="225.36 71.95 230.82 78.75 229.78 112.16 209.47 112.16 210.28 85.77 217.16 73.68 219.8 78.75 225.36 71.95"/><path class="n" d="M225.18,60.68a3,3,0,0,0-1.1-1,2.37,2.37,0,0,1-.56-.26c-.29-.23-.34-.67-.62-.91-.48-.42-1.27,0-1.86-.24s-.82-1-1.42-1.18a7.87,7.87,0,0,0-1.13,0"/><path class="n" d="M226.25,60.05a6.26,6.26,0,0,0-1-1.09c-.26-.21-.64-.31-.87-.51-.62-.54-.74-1.16-1.67-1.36-.4-.09-1,.09-1.32-.11s-.43-.51-.65-.68a3.33,3.33,0,0,0-2.28-.53,1.24,1.24,0,0,0,0,2.48c.85,0,.68,0,1.29.59a2.58,2.58,0,0,0,1.63.7c.11,0,1,0,.72-.09s.22.44.29.52c.48.6,1.22.72,1.69,1.33,1,1.25,3.12,0,2.14-1.25Z"/><path class="n" d="M228.12,103.71c0,.85.86,2.35.76,3.33a11.47,11.47,0,0,1-.32,1.72c-.26,1.08-1.92.62-1.66-.46.39-1.6,0-3.82,1.1-5.17l-.15-.68a.85.85,0,0,1,.22-.84c.53-.48,2.86-3.44,1.67-4.56a.87.87,0,0,1-.13-1,8.15,8.15,0,0,0,.64-1l-1.51-.69a.86.86,0,0,1-.31-1.18,6.23,6.23,0,0,0,1.24-3.72c0-.59-.37-1-.37-1.57,0-1,.59-1.77.52-2.74a.75.75,0,0,1,.83-.83l-.56,18a3.33,3.33,0,0,0-.25,1.12.77.77,0,0,1,0,.39l0,.14A.86.86,0,0,1,228.12,103.71Z"/><path class="n" d="M228.1,116.54h.53l.87-2.26v-6.77l6.17-9.1a2.44,2.44,0,0,0,.42-1.37v-8.3l-5.26,1.41.47,7.95-4.79,8.81L224,110l-1,4.93h0a1.21,1.21,0,0,0,1.13-.87l.26-.89.26,3.38Z"/><polygon class="n" points="236.08 90.09 230.9 91.47 230.83 90.15 236.08 88.74 236.08 90.09"/><path class="n" d="M225.36,71.95l7.31,3.63a6.94,6.94,0,0,1,3.83,5.69l.57,7.52-6.71,1.79-1.45-6.83-3.55-8.56Z"/><rect class="n" x="228.53" y="165.18" width="5.15" height="5.34"/><rect class="n" x="216.47" y="165.18" width="5.15" height="5.34"/><polygon class="n" points="220.98 110.33 221.45 143.05 222.2 167.18 215.86 167.18 214.56 142.88 209.96 118.32 209.96 110.33 220.98 110.33"/><polygon class="o" points="221.53 145.91 220.81 142.88 215.17 120.06 209.96 116.74 209.96 110.33 220.98 110.33 221.45 143.05 221.53 145.91"/><polygon class="n" points="228.97 110.33 230.13 144.09 234.35 167.18 228.01 167.18 222.2 142.88 216.56 120.06 209.96 115.85 209.96 110.33 228.97 110.33"/><path class="n" d="M222.51,168.21l.38.71v3.82H205.1l-1-.52.76-2.55a.33.33,0,0,1,.42-.21l1.25.42,2.78-.69,4.75-2.74a1,1,0,0,1,1.39,0l1.84,2.1h4l.48-.48A.5.5,0,0,1,222.51,168.21Z"/><polygon class="n" points="205.1 172.04 222.89 172.04 222.89 172.74 205.1 172.74 204.06 172.21 204.27 171.62 205.1 172.04"/><rect class="n" x="212.39" y="167.05" width="1.56" height="1" transform="translate(-56.67 141.12) rotate(-32.57)"/><rect class="n" x="210.54" y="168.2" width="1.56" height="1" transform="translate(-57.58 140.31) rotate(-32.57)"/><path class="n" d="M218,169.61a1.38,1.38,0,0,0,1.76,1.33l3.1-.89v-.44Z"/><path class="o" d="M216.67,172.62l-1.11-.56.81-2.73a.36.36,0,0,1,.45-.22l1.34.45,3-.74,1.27-.73a.48.48,0,0,1,.12.13l.38.71v3.7Z"/><path class="n" d="M234.66,168.21l.38.71v3.82H217.25l-1-.52.76-2.55a.33.33,0,0,1,.42-.21l1.25.42,2.78-.69,4.75-2.74a1,1,0,0,1,1.39,0l1.84,2.1h4l.48-.48A.5.5,0,0,1,234.66,168.21Z"/><polygon class="n" points="217.25 172.04 235.04 172.04 235.04 172.74 217.25 172.74 216.21 172.21 216.42 171.62 217.25 172.04"/><rect class="n" x="224.54" y="167.05" width="1.56" height="1" transform="translate(-54.76 147.66) rotate(-32.57)"/><rect class="n" x="222.69" y="168.2" width="1.56" height="1" transform="translate(-55.67 146.85) rotate(-32.57)"/><path class="n" d="M230.18,169.61a1.38,1.38,0,0,0,1.76,1.33L235,170v-.44Z"/><path class="o" d="M221.74,112.52l.87,2.15a3,3,0,0,0,2.81,1.89h3.75v.35h-4.44a3,3,0,0,1-2.81-1.89l-1.28-3.14Z"/><path class="n" d="M205,76.4h-5l6.13-9.95,3.39-1.71A2.77,2.77,0,0,0,211,62.26V56.35a.24.24,0,0,0-.24-.24h0c-.83,0-2-3.26-2.14,1s-3.31,4.15-3.31,4.15L204.26,64,193.52,76.52a1.15,1.15,0,0,0,.18,1.66h0a11.75,11.75,0,0,0,4.17,2l7.69,2Z"/><rect class="n" x="217.16" y="66.1" width="8.19" height="12.64"/><path class="n" d="M216,57c.43-.58,1.14-.48,1.7-.81s.77-.73,1.61-.87a5.56,5.56,0,0,1,2.25,0c1.1.26,2.06,1.06,3.19,1.08.36,0,.72-.07,1.08,0a1,1,0,0,1,.84.58c.1.34-.06.79.22,1a.94.94,0,0,0,.46.11A2.26,2.26,0,0,1,229,60.33a2.73,2.73,0,0,1-.23.64,16.69,16.69,0,0,0-1.28,3.51,24.21,24.21,0,0,0-.83,3.26,7.08,7.08,0,0,1-1,3.12c-.05.1-.17.22-.26.15a.19.19,0,0,1-.05-.11,10.37,10.37,0,0,1-.14-1.32,2.16,2.16,0,0,0-.45-1.23,4.3,4.3,0,0,1-.32-.34c-.29-.41-.17-1-.35-1.46s-.62-1.15-.85-1.77a1.37,1.37,0,0,0-.28-.53,1.25,1.25,0,0,0-.43-.24l-2-.78a6.67,6.67,0,0,0-1.29-.41,2.91,2.91,0,0,1-.73-.16,2,2,0,0,1-.88-1.48,2.47,2.47,0,0,0-.74-1.58c-.23-.17-.53-.26-.66-.51s0-.56-.12-.82-.16-.26-.23-.4A.84.84,0,0,1,216,57Z"/><path class="o" d="M225.36,67.94a1.9,1.9,0,0,1-.85.27l-1.26.08-.3.46a3.78,3.78,0,0,1-2.4,1.64l-3.38-.68V66.1h8.19Z"/><path class="n" d="M214.78,62.68l-.47,1.11a2.73,2.73,0,0,0-.2,1.33l.28,2.92a2,2,0,0,0,2.38,1.75l3.77-.79a3.78,3.78,0,0,0,2.4-1.64l.3-.46,1.26-.08a1.91,1.91,0,0,0,1.39-.72h0a1.67,1.67,0,0,0,.36-1v-.31a1.23,1.23,0,0,0-.3-.8h0a1,1,0,0,0-1-.33l-.55.12V61.16a3.14,3.14,0,0,0-2.4-3l-3.16-.76-2.91.54Z"/><path class="n" d="M225.36,63.61a.14.14,0,0,0,.2-.12v-1.8l.69.34v1.81a.14.14,0,0,1-.2.12Z"/><polygon class="o" points="203.97 76.4 205.01 76.4 205.56 82.17 204.49 81.9 203.97 76.4"/><polygon class="n" points="217.16 73.8 210.28 75.19 204.9 75.19 205.65 83.11 210.28 85.77 217.16 75.19 217.16 73.8"/><polygon class="n" points="225.36 71.95 230.82 78.75 229.78 112.16 209.47 112.16 210.28 85.77 217.16 73.68 219.8 78.75 225.36 71.95"/><path class="n" d="M225.18,60.68a3,3,0,0,0-1.1-1,2.37,2.37,0,0,1-.56-.26c-.29-.23-.34-.67-.62-.91-.48-.42-1.27,0-1.86-.24s-.82-1-1.42-1.18a7.87,7.87,0,0,0-1.13,0"/><path class="s" d="M226.25,60.05a6.26,6.26,0,0,0-1-1.09c-.26-.21-.64-.31-.87-.51-.62-.54-.74-1.16-1.67-1.36-.4-.09-1,.09-1.32-.11s-.43-.51-.65-.68a3.33,3.33,0,0,0-2.28-.53,1.24,1.24,0,0,0,0,2.48c.85,0,.68,0,1.29.59a2.58,2.58,0,0,0,1.63.7c.11,0,1,0,.72-.09s.22.44.29.52c.48.6,1.22.72,1.69,1.33,1,1.25,3.12,0,2.14-1.25Z"/><path class="u" d="M228.12,103.71c0,.85.86,2.35.76,3.33a11.47,11.47,0,0,1-.32,1.72c-.26,1.08-1.92.62-1.66-.46.39-1.6,0-3.82,1.1-5.17l-.15-.68a.85.85,0,0,1,.22-.84c.53-.48,2.86-3.44,1.67-4.56a.87.87,0,0,1-.13-1,8.15,8.15,0,0,0,.64-1l-1.51-.69a.86.86,0,0,1-.31-1.18,6.23,6.23,0,0,0,1.24-3.72c0-.59-.37-1-.37-1.57,0-1,.59-1.77.52-2.74a.75.75,0,0,1,.83-.83l-.56,18a3.33,3.33,0,0,0-.25,1.12.77.77,0,0,1,0,.39l0,.14A.86.86,0,0,1,228.12,103.71Z"/><path class="n" d="M228.1,116.54h.53l.87-2.26v-6.77l6.17-9.1a2.44,2.44,0,0,0,.42-1.37v-8.3l-5.26,1.41.47,7.95-4.79,8.81L224,110l-1,4.93h0a1.21,1.21,0,0,0,1.13-.87l.26-.89.26,3.38Z"/><polygon class="o" points="236.08 90.09 230.9 91.47 230.83 90.15 236.08 88.74 236.08 90.09"/><path class="n" d="M225.36,71.95l7.31,3.63a6.94,6.94,0,0,1,3.83,5.69l.57,7.52-6.71,1.79-1.45-6.83-3.55-8.56Z"/></g><rect class="k" x="230.53" y="163.18" width="5.15" height="5.34" transform="translate(466.22 331.71) rotate(-180)"/><rect class="k" x="218.47" y="163.18" width="5.15" height="5.34" transform="translate(442.09 331.71) rotate(-180)"/><polygon class="v" points="222.98 108.33 223.45 141.05 224.2 165.18 217.86 165.18 216.56 140.88 211.96 116.32 211.96 108.33 222.98 108.33"/><polygon class="r" points="223.53 143.91 222.81 140.88 217.17 118.06 211.96 114.74 211.96 108.33 222.98 108.33 223.45 141.05 223.53 143.91"/><polygon class="w" points="230.97 108.33 232.13 142.09 236.35 165.18 230.01 165.18 224.2 140.88 218.56 118.06 211.96 113.85 211.96 108.33 230.97 108.33"/><path class="j" d="M224.51,166.21l.38.71v3.82H207.1l-1-.52.76-2.55a.33.33,0,0,1,.42-.21l1.25.42,2.78-.69,4.75-2.74a1,1,0,0,1,1.39,0l1.84,2.1h4l.48-.48A.5.5,0,0,1,224.51,166.21Z"/><polygon class="s" points="207.1 170.04 224.89 170.04 224.89 170.74 207.1 170.74 206.06 170.21 206.27 169.62 207.1 170.04"/><rect class="s" x="214.67" y="164.77" width="1" height="1.56" transform="translate(191.51 436) rotate(-122.57)"/><rect class="s" x="212.82" y="165.91" width="1" height="1.56" transform="translate(187.69 436.2) rotate(-122.57)"/><path class="s" d="M220,167.61a1.38,1.38,0,0,0,1.76,1.33l3.1-.89v-.44Z"/><path class="r" d="M218.67,170.62l-1.11-.56.81-2.73a.36.36,0,0,1,.45-.22l1.34.45,3-.74,1.27-.73a.48.48,0,0,1,.12.13l.38.71v3.7Z"/><path class="j" d="M236.66,166.21l.38.71v3.82H219.25l-1-.52.76-2.55a.33.33,0,0,1,.42-.21l1.25.42,2.78-.69,4.75-2.74a1,1,0,0,1,1.39,0l1.84,2.1h4l.48-.48A.5.5,0,0,1,236.66,166.21Z"/><polygon class="s" points="219.25 170.04 237.04 170.04 237.04 170.74 219.25 170.74 218.21 170.21 218.42 169.62 219.25 170.04"/><rect class="s" x="226.82" y="164.77" width="1" height="1.56" transform="translate(210.2 446.24) rotate(-122.57)"/><rect class="s" x="224.97" y="165.91" width="1" height="1.56" transform="translate(206.38 446.44) rotate(-122.57)"/><path class="s" d="M232.18,167.61a1.38,1.38,0,0,0,1.76,1.33L237,168v-.44Z"/><path class="r" d="M223.74,110.52l.87,2.15a3,3,0,0,0,2.81,1.89h3.75v.35h-4.44a3,3,0,0,1-2.81-1.89l-1.28-3.14Z"/><path class="k" d="M207,74.4h-5l6.13-9.95,3.39-1.71A2.77,2.77,0,0,0,213,60.26V54.35a.24.24,0,0,0-.24-.24h0c-.83,0-2-3.26-2.14,1s-3.31,4.15-3.31,4.15L206.26,62,195.52,74.52a1.15,1.15,0,0,0,.18,1.66h0a11.75,11.75,0,0,0,4.17,2l7.69,2Z"/><rect class="k" x="219.16" y="64.1" width="8.19" height="12.64" transform="translate(446.52 140.85) rotate(-180)"/><path class="s" d="M218,55c.43-.58,1.14-.48,1.7-.81s.77-.73,1.61-.87a5.56,5.56,0,0,1,2.25,0c1.1.26,2.06,1.06,3.19,1.08.36,0,.72-.07,1.08,0a1,1,0,0,1,.84.58c.1.34-.06.79.22,1a.94.94,0,0,0,.46.11A2.26,2.26,0,0,1,231,58.33a2.73,2.73,0,0,1-.23.64,16.69,16.69,0,0,0-1.28,3.51,24.21,24.21,0,0,0-.83,3.26,7.08,7.08,0,0,1-1,3.12c-.05.1-.17.22-.26.15a.19.19,0,0,1-.05-.11,10.37,10.37,0,0,1-.14-1.32,2.16,2.16,0,0,0-.45-1.23,4.3,4.3,0,0,1-.32-.34c-.29-.41-.17-1-.35-1.46s-.62-1.15-.85-1.77a1.37,1.37,0,0,0-.28-.53,1.25,1.25,0,0,0-.43-.24l-2-.78a6.67,6.67,0,0,0-1.29-.41,2.91,2.91,0,0,1-.73-.16,2,2,0,0,1-.88-1.48,2.47,2.47,0,0,0-.74-1.58c-.23-.17-.53-.26-.66-.51s0-.56-.12-.82-.16-.26-.23-.4A.84.84,0,0,1,218,55Z"/><path class="r" d="M227.36,65.94a1.9,1.9,0,0,1-.85.27l-1.26.08-.3.46a3.78,3.78,0,0,1-2.4,1.64l-3.38-.68V64.1h8.19Z"/><path class="k" d="M216.78,60.68l-.47,1.11a2.73,2.73,0,0,0-.2,1.33l.28,2.92a2,2,0,0,0,2.38,1.75l3.77-.79a3.78,3.78,0,0,0,2.4-1.64l.3-.46,1.26-.08a1.91,1.91,0,0,0,1.39-.72h0a1.67,1.67,0,0,0,.36-1v-.31a1.23,1.23,0,0,0-.3-.8h0a1,1,0,0,0-1-.33l-.55.12V59.16a3.14,3.14,0,0,0-2.4-3l-3.16-.76-2.91.54Z"/><path class="x" d="M227.36,61.61a.14.14,0,0,0,.2-.12v-1.8l.69.34v1.81a.14.14,0,0,1-.2.12Z"/><polygon class="r" points="205.97 74.4 207.01 74.4 207.56 80.17 206.49 79.9 205.97 74.4"/><polygon class="j" points="219.16 71.8 212.28 73.19 206.9 73.19 207.65 81.11 212.28 83.77 219.16 73.19 219.16 71.8"/><polygon class="j" points="227.36 69.95 232.82 76.75 231.78 110.16 211.47 110.16 212.28 83.77 219.16 71.68 221.8 76.75 227.36 69.95"/><path class="s" d="M228.25,58.05a6.26,6.26,0,0,0-1-1.09c-.26-.21-.64-.31-.87-.51-.62-.54-.74-1.16-1.67-1.36-.4-.09-1,.09-1.32-.11s-.43-.51-.65-.68a3.33,3.33,0,0,0-2.28-.53,1.24,1.24,0,0,0,0,2.48c.85,0,.68,0,1.29.59a2.58,2.58,0,0,0,1.63.7c.11,0,1,0,.72-.09s.22.44.29.52c.48.6,1.22.72,1.69,1.33,1,1.25,3.12,0,2.14-1.25Z"/><path class="y" d="M230.12,101.71c0,.85.86,2.35.76,3.33a11.47,11.47,0,0,1-.32,1.72c-.26,1.08-1.92.62-1.66-.46.39-1.6,0-3.82,1.1-5.17l-.15-.68a.85.85,0,0,1,.22-.84c.53-.48,2.86-3.44,1.67-4.56a.87.87,0,0,1-.13-1,8.15,8.15,0,0,0,.64-1l-1.51-.69a.86.86,0,0,1-.31-1.18,6.23,6.23,0,0,0,1.24-3.72c0-.59-.37-1-.37-1.57,0-1,.59-1.77.52-2.74a.75.75,0,0,1,.83-.83l-.56,18a3.33,3.33,0,0,0-.25,1.12.77.77,0,0,1,0,.39l0,.14A.86.86,0,0,1,230.12,101.71Z"/><path class="k" d="M230.1,114.54h.53l.87-2.26v-6.77l6.17-9.1a2.44,2.44,0,0,0,.42-1.37v-8.3l-5.26,1.41.47,7.95-4.79,8.81L226,108l-1,4.93h0a1.21,1.21,0,0,0,1.13-.87l.26-.89.26,3.38Z"/><polygon class="r" points="238.08 88.09 232.9 89.47 232.83 88.15 238.08 86.74 238.08 88.09"/><path class="j" d="M227.36,69.95l7.31,3.63a6.94,6.94,0,0,1,3.83,5.69l.57,7.52-6.71,1.79-1.45-6.83-3.55-8.56Z"/></svg>