<svg xmlns="http://www.w3.org/2000/svg" viewBox="0 0 268.33 184.19"><defs><style>.a{opacity:0.47;}.b{fill:#e0e4f0;}.c{fill:#6371c5;}.d{fill:#fec55e;}.e,.h,.i{fill:#191c3c;}.e{opacity:0.3;}.f{fill:#fff;}.g{fill:#424559;}.i{opacity:0.15;}.j{opacity:0.2;}.k{fill:#414042;opacity:0.1;}</style></defs><title>Asset 6</title><g class="a"><path class="b" d="M26.42,148.4c-37-41.16-32.22-108.71-3.64-125.75,23.61-14.08,46.08,16.66,99.74,6.46,28.75-5.47,34.54-16.62,77.54-24.47,26.77-4.89,45.89-8.13,57.88,2,16,13.54,10.52,43.46,3.64,60.5-9.18,22.74-21.89,24.94-61.52,67.29-27.34,29.21-23.25,30.26-33.13,36.37C131.77,192.56,63.46,189.6,26.42,148.4Z"/><path class="b" d="M26.42,148.4c-37-41.16-32.22-108.71-3.64-125.75,23.61-14.08,46.08,16.66,99.74,6.46,28.75-5.47,34.54-16.62,77.54-24.47,26.77-4.89,45.89-8.13,57.88,2,16,13.54,10.52,43.46,3.64,60.5-9.18,22.74-21.89,24.94-61.52,67.29-27.34,29.21-23.25,30.26-33.13,36.37C131.77,192.56,63.46,189.6,26.42,148.4Z"/></g><path class="c" d="M183.37,151.14v13.77H197a2.73,2.73,0,0,1,0,5.45H164.34a2.73,2.73,0,0,1,0-5.45h13.59V151.14a43.58,43.58,0,0,1-40.77-43.48V91.31a2.72,2.72,0,1,1,5.44,0v16.36a38,38,0,1,0,76.09,0V91.31a2.72,2.72,0,1,1,5.44,0v16.36a43.58,43.58,0,0,1-40.77,43.48Zm-2.72-13.49a30,30,0,0,1-29.89-30V42.23a29.89,29.89,0,1,1,59.79,0v65.43a30,30,0,0,1-29.89,30Z"/><rect class="d" x="91.74" y="77.97" width="6.57" height="10.8" transform="translate(111.37 208.73) rotate(-138.69)"/><polygon class="e" points="92.59 81.17 95.84 87.33 101.06 81.48 96.12 77.15 92.59 81.17"/><path class="d" d="M93,80.64l6.29,5.53a4.66,4.66,0,0,0,6.58-.42h0L108,83.31l1.53.75.46-4.82h0a4.44,4.44,0,0,0,3.73-2.36l-1.12-1.29-5.1-4.48a4.6,4.6,0,0,0-6.5.42Z"/><polygon class="d" points="83.5 157.72 81.99 161.5 84.65 165.82 75.29 165.82 75.29 162.44 78.08 157.12 83.5 157.72"/><polygon class="d" points="30.52 157.46 27.73 159.96 28.16 164.61 20.45 160.79 21.83 158.01 26.3 154.76 30.52 157.46"/><path class="c" d="M80.44,113l17,17a2.49,2.49,0,0,1,.45,2.89L83.72,160.45l-6.79-1.64s6.28-20.58,9.71-25.69l-20.8-13.43Z"/><polygon class="e" points="80.44 112.97 83.19 115.72 84.94 132.02 65.84 119.69 80.44 112.97"/><path class="c" d="M67.15,103.47s-6.28,1.77-8.9,6l-3.5,8.32L41.18,134.56S32.77,138.78,23.72,155l5.58,5L47.23,142l23.14-19.83,9.34-5.4Z"/><path class="d" d="M94.12,86.55l12.26,6.13,22.52.88,3.36-4.38,2.63-8.9h0a4.45,4.45,0,0,1,.73,2.89L135,88l-.85,5.55L132,97.13l-26.68,1.8L93.42,94.54Z"/><path class="e" d="M79.42,116.47c-.88.76-1.37,1.23-1.44,1.3l0,0C69,117,65.42,108.67,64.2,104.63a20.84,20.84,0,0,1,3-1.16Z"/><path class="f" d="M91.82,81.88S86,79.55,81,83c0,0-8.61,18-15.18,19.42,0,0,2.48,14.31,14.31,15.33a6.34,6.34,0,0,0,2.92-2.53C88.2,107.71,94.4,99.75,96.83,89.6l.1-.42Z"/><polygon class="c" points="75.98 163.47 77.37 165 81.53 165.07 83.72 162.44 88.47 166.46 95.18 167.04 95.18 169.16 93.58 170.47 74.45 170.47 74.45 163.39 75.98 163.47"/><polygon class="c" points="27.98 160.96 29.46 164.84 31.31 166.97 35.11 168.36 35.11 170.22 32.98 170.91 25.08 170.91 18.07 163.18 21.59 157.72 22.7 158.55 22.7 160.12 25.08 162.16 27.98 160.96"/><polygon class="e" points="105.29 98.92 96.3 95.61 98.4 90.25 105.16 92.07 106.39 92.68 128.9 93.56 129.57 92.68 131.53 92.68 134.89 88.3 135.07 87.58 135.03 88.01 134.19 93.56 132.35 96.52 120.99 97.87 105.29 98.92"/><path class="f" d="M85.67,93.89l10.09,4,3-7.71-10.09-4a4.14,4.14,0,0,0-5.37,2.34h0A4.14,4.14,0,0,0,85.67,93.89Z"/><path class="d" d="M98.4,91.13l9,2.43h24.09l3.36-4.38,2.63-8.9h0a4.45,4.45,0,0,1,.73,2.89L137.66,88l-.78,5.13a2.05,2.05,0,0,1-.29.77l-2,3.21-27.74,3.29L96,97.13Z"/><polygon class="g" points="74.51 169.32 84.01 165.82 84.01 165.82 74.51 165.82 74.51 169.32"/><polygon class="g" points="18.51 162.51 20.98 165.13 28.21 164.94 28.21 164.94 22.72 162.55 20.19 159.85 18.51 162.51"/><path class="h" d="M93.46,73.65a6.86,6.86,0,0,0,.47-.61,8.87,8.87,0,0,0,1.36-2.54A3.47,3.47,0,0,1,96,69.07c1.17-1.23,3.4-1.77,5-2.07,2.09-.39,4.21-1.64,6.22-.93a6.9,6.9,0,0,1,1.72,1,11.25,11.25,0,0,1,3.36,3,5.72,5.72,0,0,0,.93,1.44c.42.39,1,.53,1.35,1,.69,1,.3,2.38-.11,3.54l-1.17,3.28c-.75-.41-1-1.33-1.51-2-.72-1-3.24-2.88-4.59-2.36-.85.32-1.12,1.37-1.74,2s-1.83,1-2.34,1.84c-.34.56-.45,1.4-1.09,1.55.26-.06.35-1.83.36-2.08,0-.66.22-1.25.29-1.91a1.28,1.28,0,0,0-.3-1.16c-.17-.14-.4-.19-.57-.32a1.64,1.64,0,0,0-.27-.2.76.76,0,0,0-.61.07c-1.13.5-1.11,1.48-1.24,2.62-.17.1-.37-.05-.55-.13a1.35,1.35,0,0,0-.43-.09,3.17,3.17,0,0,0-2.25.33,5.63,5.63,0,0,0-1.52,2.16,1.81,1.81,0,0,1-.84,1,1.75,1.75,0,0,1-.5.09,4.1,4.1,0,0,1-1,0,1.19,1.19,0,0,1-.47-.18c-1.08-.76.18-2.25,0-3.23a1.07,1.07,0,0,0-.56-.74c.36-.24,1.06-.38,1.31-.74.15-.21,0-1.58-.27-1.42a3.46,3.46,0,0,0,.59-.37A2.63,2.63,0,0,0,93.46,73.65Z"/><path class="i" d="M89.76,103.11c-1.26,1.23-2,4.27-2.81,5.86,1.16-1,2.26-3.33,3.49-4.65.51-.77,1-1.56,1.46-2.36A4.69,4.69,0,0,0,89.76,103.11Z"/><path class="i" d="M89.56,100.39c.31.15,1.82,1,2.46,1.34q1-1.78,1.87-3.64c-.2.1-.44.22-.49.27a.54.54,0,0,0-.09.71l-.45.07a.54.54,0,0,0-.41.73c-.37.12-.74.23-1.12.32S89.07,100.15,89.56,100.39Z"/><path class="i" d="M86.52,94.53a12,12,0,0,1-1.1-1.29c-.47-.63-.65-.56-.18.08A25.59,25.59,0,0,0,88,97c.37.31-.66-1-.63-1.54A22.91,22.91,0,0,0,94,97.9l.16-.36a18.19,18.19,0,0,1-6.75-3.28A.61.61,0,0,0,86.52,94.53Z"/><g class="j"><path class="h" d="M56.83,120a.55.55,0,0,0,.38-.93c-.29-.24-.46-.39-.61-.5l.34-.15a.43.43,0,0,0,.23-.31.58.58,0,0,0-.08-.87,10.12,10.12,0,0,1-1.54-1.33l-.39.92.11.16a.51.51,0,0,0,0,.89l-.33.23a.49.49,0,0,0-.16.75,4.9,4.9,0,0,0-1.06.2l-3.84,4.75c-2.25,3.68-5.79,5.91-6.83,10l-.28-.25a.55.55,0,0,0-.93.38c0,.35-.27.53-.63.59l-.07.08a20.14,20.14,0,0,0-3.3,2.32,25.41,25.41,0,0,1,3.09.18.55.55,0,0,0,.47-.82l-.26-.38L42,136a.55.55,0,0,0,.82-.47l0-.36,0,0a.55.55,0,0,0,1-.27c.47-4,4.11-6.72,6.29-9.79C52,122.7,52.82,119.54,56.83,120Z"/><path class="h" d="M58.25,109.47l-2.5,5.94c.3,0,.74.09,1.12.14s.59-.38.52-.69c-.38-1.69.36-3.73,1-5.64Z"/></g><path class="e" d="M88.77,133.35c.44,0,.82-.23,1.26-.22s1.23.1.86-.21a3.1,3.1,0,0,0-2.07-.69c.59-.17,1.18-.33,1.79-.46s.48-.35-.13-.31c-1,.07-2.3-.37-3.34.19-.49.18-1,.37-1.46.59l0,0,1.13.73-.3.47a2.87,2.87,0,0,1-.93,1.75q-.46.95-1,2.08A20.94,20.94,0,0,1,89,134.48C89.17,134.38,88.82,133.59,88.77,133.35Z"/><path class="k" d="M180.65,12.25v0a29.9,29.9,0,0,1,22.89,29.06v67.19a29.9,29.9,0,0,1-22.89,29.06v0a29.89,29.89,0,0,0,29.89-29.89V42.14A29.89,29.89,0,0,0,180.65,12.25Z"/></svg>