<svg xmlns="http://www.w3.org/2000/svg" viewBox="0 0 349.06 212.27"><defs><style>.a{opacity:0.47;}.b{fill:#e0e4f0;}.c,.o{opacity:0.22;}.d{fill:#8184c4;}.e{fill:#575a8f;}.aa,.f{opacity:0.2;}.g{fill:#4d5068;}.aa,.h,.i,.o,.p,.r{fill:#191c3c;}.ae,.i,.s{opacity:0.3;}.j{fill:#fff;}.k{opacity:0.14;}.l{opacity:0.27;}.m{fill:#bfbfbf;}.n{fill:#6371c5;}.p{opacity:0.1;}.q{fill:#fec55e;}.r{opacity:0.4;}.t{fill:#717386;}.u{opacity:0.18;}.ab,.v{fill:#dfe2ec;}.w{fill:#3e4154;}.x{fill:#f5f7f9;}.y{fill:#41446b;}.z{fill:#3a3c4e;}.ab{opacity:0.5;}.ac{fill:none;stroke:#191c3c;stroke-width:0.8px;}.ac,.ah{stroke-miterlimit:10;}.ad{fill:#bf9447;}.ae{fill:#212121;}.af{fill:#fed17e;}.ag{fill:#797ba5;}.ah{fill:#fcd991;stroke:#fec55e;stroke-width:1.59px;}</style></defs><title>Asset 11</title><g class="a"><path class="b" d="M37.62,174.39C-7.9,130.83-2,59.35,33.14,41.31c29-14.9,56.69,17.63,122.7,6.83,35.37-5.78,42.49-17.59,95.38-25.9,32.93-5.17,56.46-8.6,71.2,2.16,19.64,14.33,12.94,46,4.48,64-11.29,24.06-26.93,26.4-75.68,71.22-33.63,30.92-28.6,32-40.75,38.49C167.23,221.14,83.19,218,37.62,174.39Z"/><path class="b" d="M37.62,174.39C-7.9,130.83-2,59.35,33.14,41.31c29-14.9,56.69,17.63,122.7,6.83,35.37-5.78,42.49-17.59,95.38-25.9,32.93-5.17,56.46-8.6,71.2,2.16,19.64,14.33,12.94,46,4.48,64-11.29,24.06-26.93,26.4-75.68,71.22-33.63,30.92-28.6,32-40.75,38.49C167.23,221.14,83.19,218,37.62,174.39Z"/></g><path class="b" d="M191.15,38.2C204.94,36.36,297.21,24,329,64c17.31,21.79,8.17,48.46,2.68,64.46-4.6,13.42-18.57,54.17-60.1,71-43.94,17.81-67.86-11.79-147,1.78-35.25,6-49.24,15.12-63.33,8.72C33,197.14,52.61,144.3,56.11,134.88,62.38,118,74.77,84.6,117,60.62,145.3,44.58,173.06,40.62,191.15,38.2Z"/><g class="c"><path class="d" d="M228.73,155.35c.6-7.89,1.2-15.84.18-23.68-.34-2.58-1.32-5.65-3.86-6.19-2.34-.5-4.42,1.52-5.75,3.5-6.24,9.33-6.6,21.4-5.25,32.54a126.15,126.15,0,0,0,10,36.2l1.31,1.45Z"/><path class="e" d="M224.07,194.71c-6.38-19.89-6.11-42.57-.94-62.66.18-.72-1-.87-1.15-.15a117.29,117.29,0,0,0-3.48,31.61c.3,10.78,2.53,20.91,5.5,31.22,0,0,.07,0,.06,0Z"/><path class="e" d="M215.78,138a16.86,16.86,0,0,0,3.7,8c.3.35.85-.07.57-.43a17.77,17.77,0,0,1-3.6-7.65c-.08-.42-.74-.33-.66.09Z"/><path class="e" d="M215,148.77c.35,3,1.17,7.08,3.12,9.54a.17.17,0,0,0,.3-.17c-.44-1.48-1.29-2.86-1.82-4.32a43.1,43.1,0,0,1-1.45-5.07.07.07,0,0,0-.15,0Z"/><path class="e" d="M215.43,162.88a16.05,16.05,0,0,0,2.86,6.14c.19.26.58,0,.39-.3a23.31,23.31,0,0,1-3-5.9.11.11,0,0,0-.21.06Z"/><path class="e" d="M224.78,140.72a38.84,38.84,0,0,1-5.6,8.41c-.44.46.34,1,.78.6a20.44,20.44,0,0,0,5.39-8.86c.08-.35-.42-.42-.56-.15Z"/><path class="e" d="M224.4,150.45a24.17,24.17,0,0,1-4.6,9.75.39.39,0,0,0,.62.48,20.16,20.16,0,0,0,4.24-10.2.14.14,0,0,0-.27,0Z"/><path class="e" d="M224.85,162.39c-1,4.35-2,8.06-4.43,11.84-.41.62.51,1.33.91.71,2.35-3.59,4.24-8.19,4.08-12.55,0-.34-.5-.29-.56,0Z"/><path class="d" d="M221.41,192l-13.86-31.3c-1.63-3.68-3.29-7.41-5.8-10.56s-6-5.7-10-6.19A3.85,3.85,0,0,0,190,144c-1.67.55-2.12,2.69-2.14,4.46-.17,14,8.59,26.39,17.92,36.79,5.56,6.21,11.88,12.35,20,14.43A66,66,0,0,1,221.41,192Z"/><path class="e" d="M191.48,148.18c2.82,8.14,7.22,15.53,11.87,22.75,5.14,8,10.36,16,15.42,24,.4.63,1.41,0,1-.58-5.05-7.61-10-15.3-14.94-23-4.84-7.47-9.65-15-12.7-23.38-.14-.4-.78-.23-.64.18Z"/><path class="e" d="M190,154.67a88.11,88.11,0,0,0,6.37,6.24c.54.45,1.31-.28.78-.78a88.88,88.88,0,0,0-6.93-5.68c-.16-.12-.37.07-.23.23Z"/><path class="e" d="M195.49,166.91l4.71,3.34a27.71,27.71,0,0,0,4.83,3.14c.34.15.71-.24.42-.54a26.23,26.23,0,0,0-4.48-3.2l-5.13-3.33c-.38-.24-.7.34-.35.6Z"/><path class="e" d="M203.94,180.27a30.78,30.78,0,0,1,4.58,2c1.19.71,2.16,1.87,3.42,2.39.35.14.55-.3.43-.56-.59-1.35-2.49-2.37-3.76-3a10.92,10.92,0,0,0-4.61-1.27c-.25,0-.26.33-.06.41Z"/><path class="e" d="M198.75,152.06a38.18,38.18,0,0,1-.8,5.47,21.57,21.57,0,0,0-1,4.15.19.19,0,0,0,.34.09c.89-1.35,1.08-3.19,1.36-4.77a48.47,48.47,0,0,0,.63-5c0-.36-.54-.36-.57,0Z"/><path class="e" d="M203.47,162.14c.12,2.6-.09,5.47.44,8,0,.17.28.12.29,0,.19-2.59-.39-5.39-.61-8,0-.08-.13-.08-.12,0Z"/><path class="e" d="M209.13,171.38c0,1.5,0,3,0,4.52a10.15,10.15,0,0,0,.09,3.94.24.24,0,0,0,.45,0c.45-1.26.14-2.63.09-3.94-.06-1.5,0-3,0-4.52a.3.3,0,0,0-.59,0Z"/><path class="d" d="M250,150.19c-.35-2-2-3.94-4-3.95-1.86,0-3.35,1.48-4.52,2.92-10.57,13-14.06,32.55-16.77,49.1l1.08,1.39c8.94-13.85,18-27.88,23.31-43.48A12.22,12.22,0,0,0,250,150.19Z"/><path class="e" d="M227.35,193.71c5-13.93,11.35-27.26,17.69-40.63.21-.44-.46-.83-.66-.39-6,13.5-12.7,26.88-17.26,40.95,0,.15.18.21.24.07Z"/><path class="e" d="M239.55,155.35l0,3.62a10.58,10.58,0,0,0,.16,3.17.27.27,0,0,0,.52,0,10.63,10.63,0,0,0,.16-3.17l0-3.62a.38.38,0,0,0-.76,0Z"/><path class="e" d="M236,162.91c-.23,2.41-.8,5.14-.51,7.55a.17.17,0,0,0,.34,0c.92-2.25.75-5.23.54-7.6a.18.18,0,0,0-.37,0Z"/><path class="e" d="M232.1,172.5a17.78,17.78,0,0,0-.75,4.05,20.39,20.39,0,0,0-.44,3.58.17.17,0,0,0,.34,0,23.7,23.7,0,0,0,.85-4,15.18,15.18,0,0,0,.52-3.58.26.26,0,0,0-.51-.07Z"/><path class="e" d="M243.75,163.75a15.41,15.41,0,0,0-4,2.31c-.93.74-2.36,1.79-2.67,3a.26.26,0,0,0,.38.29c1.06-.54,1.88-1.84,2.79-2.63a26.65,26.65,0,0,1,3.67-2.62c.17-.1.06-.42-.14-.34Z"/><path class="e" d="M239,174.61c-1.12,1-2.16,2.14-3.2,3.26a18.11,18.11,0,0,0-2.71,3.15c-.13.24.15.59.4.4a19.27,19.27,0,0,0,3-3.24c1-1.12,1.87-2.23,2.74-3.41.09-.13-.1-.27-.21-.16Z"/></g><g class="f"><path class="d" d="M33.27,171.66c-3.44-4.65-6.9-9.33-11.21-13.17-1.42-1.27-3.43-2.49-5.09-1.58s-1.72,3-1.51,4.68c1,8.14,6.57,15,12.64,20.5A92.17,92.17,0,0,0,50.94,197.3l1.42.18Z"/><path class="e" d="M49.5,195.64C36.47,187.69,25.78,175,19,161.45c-.24-.48-1,0-.71.46a85.69,85.69,0,0,0,13.18,19.14,90.47,90.47,0,0,0,18,14.63s0,0,0,0Z"/><path class="e" d="M17.84,168.27a12.32,12.32,0,0,0,5.86,2.65.26.26,0,0,0,.11-.51,13,13,0,0,1-5.64-2.5c-.24-.19-.57.17-.32.36Z"/><path class="e" d="M22.51,174.6c1.65,1.52,4,3.36,6.28,3.78a.13.13,0,0,0,.08-.24c-1-.61-2.08-1-3.07-1.52a31.5,31.5,0,0,1-3.22-2.11c-.06,0-.12,0-.07.08Z"/><path class="e" d="M29.51,182.17a11.73,11.73,0,0,0,4.51,2,.18.18,0,0,0,.07-.35A17,17,0,0,1,29.6,182c-.08,0-.16.08-.09.13Z"/><path class="e" d="M24.09,165.46a28.38,28.38,0,0,1,.92,7.33c0,.47.69.42.72,0a14.93,14.93,0,0,0-1.25-7.47c-.12-.23-.43,0-.39.18Z"/><path class="e" d="M28.53,171a17.66,17.66,0,0,1,2.12,7.59.29.29,0,0,0,.57,0,14.73,14.73,0,0,0-2.53-7.66.1.1,0,0,0-.17.11Z"/><path class="e" d="M34.49,177.4a24.72,24.72,0,0,1,3.21,8.66c.07.54.92.5.84,0a16.48,16.48,0,0,0-3.74-8.89c-.17-.18-.41.08-.31.27Z"/><path class="d" d="M46.74,195.42,24.12,184.74a34.35,34.35,0,0,0-8.25-3.06A11.57,11.57,0,0,0,7.37,183a2.81,2.81,0,0,0-.89.85c-.66,1.11.12,2.5.95,3.49,6.58,7.81,17.36,10.48,27.48,11.78,6,.77,12.47,1.15,17.92-1.56A48.24,48.24,0,0,1,46.74,195.42Z"/><path class="e" d="M9.25,185.49c5.45,3.15,11.41,5.13,17.43,6.91,6.67,2,13.35,3.87,20,5.91.52.16.8-.65.27-.8-6.43-1.79-12.83-3.69-19.23-5.56-6.24-1.82-12.48-3.67-18.19-6.86-.27-.15-.54.25-.27.4Z"/><path class="e" d="M11.54,189.78a64.39,64.39,0,0,0,6.5.41c.51,0,.59-.78.06-.81a65,65,0,0,0-6.54.17.12.12,0,0,0,0,.23Z"/><path class="e" d="M20.42,193.92l4.2-.4a20.25,20.25,0,0,0,4.17-.57.25.25,0,0,0,0-.5,19.16,19.16,0,0,0-4,.37l-4.43.61c-.33,0-.23.53.09.5Z"/><path class="e" d="M31.47,197.27a22.49,22.49,0,0,1,3.5-1.07,21.12,21.12,0,0,0,3-.32c.26-.09.16-.43,0-.52-1-.46-2.51-.12-3.51.14A8,8,0,0,0,31.3,197c-.14.12,0,.31.17.25Z"/><path class="e" d="M15.12,184.16a27.9,27.9,0,0,1,2.17,3.41,15.76,15.76,0,0,0,1.45,2.76.14.14,0,0,0,.23-.11,9.37,9.37,0,0,0-1.53-3.29,35.4,35.4,0,0,0-2-3c-.16-.21-.47.06-.31.27Z"/><path class="e" d="M22.55,187.48a37.83,37.83,0,0,0,4.07,4.22c.1.08.21-.07.14-.16a37.74,37.74,0,0,0-4.15-4.12s-.11,0-.07.06Z"/><path class="e" d="M30.09,189.88c.71.83,1.47,1.65,2.15,2.51a7.42,7.42,0,0,0,1.93,2.13.17.17,0,0,0,.25-.22,7.59,7.59,0,0,0-1.83-2.22c-.75-.8-1.45-1.66-2.17-2.49a.22.22,0,0,0-.33.28Z"/><path class="d" d="M42.54,158.65a3.32,3.32,0,0,0-4.1-.27c-1,.88-1.15,2.42-1.11,3.77.37,12.24,7.78,24.71,14.19,35.15l1.26.25c-1.67-11.93-3.38-24-7.89-35.17A8.93,8.93,0,0,0,42.54,158.65Z"/><path class="e" d="M50.83,193.52C47,183.42,44.08,173,41.2,162.62c-.1-.35-.65-.24-.55.1,3.14,10.32,5.82,20.92,10,30.88,0,.11.2,0,.16-.08Z"/><path class="e" d="M39.25,166.49l1.71,2a7.73,7.73,0,0,0,1.6,1.68.2.2,0,0,0,.29-.25,7.77,7.77,0,0,0-1.43-1.83l-1.75-2a.28.28,0,0,0-.42.36Z"/><path class="e" d="M40.89,172.37a27,27,0,0,0,3.32,4.42.13.13,0,0,0,.21-.14,12.67,12.67,0,0,0-3.33-4.46.13.13,0,0,0-.2.18Z"/><path class="e" d="M43.32,179.53a13,13,0,0,0,1.52,2.6,14.89,14.89,0,0,0,1.47,2.19.13.13,0,0,0,.21-.14,17.32,17.32,0,0,0-1.46-2.63,11.09,11.09,0,0,0-1.42-2.23.19.19,0,0,0-.31.2Z"/><path class="e" d="M45.58,169.13a11.26,11.26,0,0,0-1.12,3.2,5.22,5.22,0,0,0-.05,2.93.19.19,0,0,0,.35,0,12.36,12.36,0,0,0,.29-2.79,19.47,19.47,0,0,1,.78-3.2c0-.14-.17-.26-.24-.12Z"/><path class="e" d="M48.16,177.38C48,178.5,48,179.6,48,180.72a13.23,13.23,0,0,0,0,3c0,.2.36.25.42,0a14.07,14.07,0,0,0,.1-3.21c0-1.07,0-2.13-.12-3.2,0-.12-.18-.1-.2,0Z"/></g><g class="c"><path class="d" d="M302.92,163.83c3.39-6.34,6.81-12.72,11.42-18.23,1.52-1.81,3.77-3.69,6-2.86,2,.76,2.65,3.32,2.7,5.49.23,10.2-5.38,19.62-11.86,27.5a114.61,114.61,0,0,1-25.36,22.84l-1.71.47Z"/><path class="e" d="M287.28,196.26c14.6-12.13,25.46-29.64,31.3-47.56.21-.64,1.17-.19,1,.44a106.56,106.56,0,0,1-12.76,25.92c-5.49,8.12-12.15,14.79-19.46,21.24,0,0-.06,0,0,0Z"/><path class="e" d="M321.3,156.89a15.31,15.31,0,0,1-6.73,4.32.32.32,0,0,1-.22-.61,16.14,16.14,0,0,0,6.49-4.1c.27-.28.73.1.46.39Z"/><path class="e" d="M316.69,165.51c-1.76,2.17-4.36,4.86-7,5.78a.16.16,0,0,1-.14-.28c1.06-.92,2.38-1.56,3.5-2.42a39.15,39.15,0,0,0,3.58-3.18.07.07,0,0,1,.1.09Z"/><path class="e" d="M309.44,176.09a14.59,14.59,0,0,1-5.19,3.3.22.22,0,0,1-.15-.42,21.18,21.18,0,0,0,5.21-3c.09-.07.21.06.13.15Z"/><path class="e" d="M313.09,154.55a35.29,35.29,0,0,0,.19,9.18c.11.57-.77.64-.89.08a18.57,18.57,0,0,1,.19-9.42c.11-.31.52-.12.51.16Z"/><path class="e" d="M308.63,162.2a22,22,0,0,0-1.24,9.72.36.36,0,0,1-.71.07,18.32,18.32,0,0,1,1.72-9.89.12.12,0,0,1,.22.1Z"/><path class="e" d="M302.46,171.12c-1.36,3.82-2.44,7.13-2.39,11.24,0,.67-1,.78-1,.1,0-3.9.75-8.35,3-11.61.18-.25.52,0,.43.27Z"/><path class="d" d="M290.29,194.24l20.77-23.15a42.72,42.72,0,0,1,8-7.49c3.06-2,6.81-3.23,10.4-2.54a3.49,3.49,0,0,1,1.43.54c1.29.95,1.08,2.92.6,4.45-3.77,12.12-14.83,20.39-25.81,26.76-6.55,3.8-13.74,7.34-21.29,6.87A60,60,0,0,0,290.29,194.24Z"/><path class="e" d="M328.46,164.77c-4.72,6.24-10.6,11.39-16.64,16.32-6.69,5.47-13.43,10.88-20.06,16.42-.52.43-1.23-.36-.7-.78,6.5-5.15,12.92-10.42,19.36-15.65C316.69,176,323,170.85,328,164.44c.24-.3.74,0,.5.33Z"/><path class="e" d="M327.91,170.79a80.08,80.08,0,0,1-7.26,3.6c-.59.24-1-.61-.46-.9a80.77,80.77,0,0,1,7.58-3c.17-.06.3.17.13.26Z"/><path class="e" d="M319.73,179.83l-5,1.56a25.19,25.19,0,0,1-5.05,1.35c-.33,0-.55-.41-.21-.58a23.82,23.82,0,0,1,4.77-1.51l5.37-1.44c.39-.11.51.49.13.61Z"/><path class="e" d="M308.69,189a28,28,0,0,0-4.52.47c-1.23.28-2.39,1-3.63,1.1-.34,0-.39-.41-.21-.61.89-1,2.82-1.35,4.09-1.53a9.92,9.92,0,0,1,4.34.2c.22.07.13.36-.07.37Z"/><path class="e" d="M321.09,166.09a34.7,34.7,0,0,0-.84,5,19.61,19.61,0,0,1-.33,3.86.17.17,0,0,1-.32,0,11.66,11.66,0,0,1,.16-4.5,44,44,0,0,1,.84-4.46c.08-.32.56-.16.49.16Z"/><path class="e" d="M314.18,173.47a47.05,47.05,0,0,1-2.63,6.8c-.08.14-.27,0-.24-.12a46.92,46.92,0,0,1,2.77-6.72c0-.07.13,0,.11,0Z"/><path class="e" d="M306.69,179.86c-.41,1.3-.89,2.6-1.25,3.92a9.22,9.22,0,0,1-1.19,3.38.21.21,0,0,1-.39-.13,9.44,9.44,0,0,1,1-3.43c.47-1.28.86-2.6,1.29-3.9a.27.27,0,0,1,.51.17Z"/><path class="d" d="M289.17,149.51c1.25-1.37,3.44-2.05,5-1.07s1.85,2.77,2,4.44c1.75,15.13-5.12,31.8-11.11,45.81l-1.51.54c-.09-15-.16-30.13,3.36-44.69A11.1,11.1,0,0,1,289.17,149.51Z"/><path class="e" d="M285.26,193.9c2.94-13.13,4.61-26.43,6.28-39.76.06-.44.76-.41.69,0-2,13.27-3.38,26.79-6.76,39.8,0,.14-.24.07-.21-.07Z"/><path class="e" d="M294.64,158.55l-1.74,2.79a9.61,9.61,0,0,1-1.67,2.36.25.25,0,0,1-.4-.25,9.66,9.66,0,0,1,1.43-2.51l1.79-2.75a.35.35,0,0,1,.58.37Z"/><path class="e" d="M293.67,166.08c-1,2-1.9,4.33-3.29,6a.16.16,0,0,1-.28-.13c.39-2.17,2-4.37,3.29-6.09a.17.17,0,0,1,.28.18Z"/><path class="e" d="M292,175.33a16.16,16.16,0,0,1-1.4,3.47,18.53,18.53,0,0,1-1.41,3,.16.16,0,0,1-.28-.13,21.54,21.54,0,0,1,1.32-3.5,13.79,13.79,0,0,1,1.35-3,.24.24,0,0,1,.42.2Z"/><path class="e" d="M287.32,162.94a14,14,0,0,1,2,3.74c.36,1,.93,2.52.59,3.59a.24.24,0,0,1-.43,0c-.55-.93-.55-2.33-.86-3.38a24.21,24.21,0,0,0-1.54-3.8c-.08-.16.16-.35.27-.19Z"/><path class="e" d="M285.63,173.56c.34,1.35.61,2.69.86,4.06a16.45,16.45,0,0,1,.54,3.73c0,.25-.4.38-.51.11a17.5,17.5,0,0,1-.7-3.93c-.19-1.32-.34-2.62-.43-4,0-.14.21-.15.24,0Z"/></g><g class="f"><path class="d" d="M119.71,199.72c1.17-10,2.72-17.42,10-24.59,3.43-3.36,8-5.72,10.67-9.65,3.29-4.78,3.56-11.45,8.08-15.18,4.86-4,12.65-2.91,17.65-6.74,3.57-2.74,4.88-7.33,7.44-11a20.14,20.14,0,0,1,19.31-7.9c-7.29,1.71-12.43,9.46-11,16.56.92,4.54,4.13,8.69,3.73,13.3-.78,9.16-14.64,13.08-15.71,22.22-.29,2.49.46,5,.57,7.47.32,7.77-6.69,15.13-14.75,15.47Z"/><path class="e" d="M174.2,147.5A128.64,128.64,0,0,0,155.06,170c-5.27,7.9-9,16.28-13.27,24.66a.77.77,0,0,1-1.4-.57c5.61-18,19.52-34.31,33.79-46.64,0,0,0,0,0,0Z"/><path class="e" d="M173.58,156.78a14.41,14.41,0,0,0-5.94.48c-2,.62-3.39,1.89-5.24,2.74-.21.09-.49-.11-.34-.33,2.27-3.23,7.94-3.81,11.57-3.23a.17.17,0,0,1,0,.34Z"/><path class="e" d="M169.1,166.83a17.88,17.88,0,0,0-8.36-.1c-2.52.6-4.48,2-6.72,3.13a.37.37,0,0,1-.45-.57c3.74-3.9,10.69-4.21,15.58-2.62a.09.09,0,0,1,0,.17Z"/><path class="e" d="M164.16,180.15c-7.68-.9-12.76.59-18.56,5.56-.35.3-1-.09-.67-.5,3.77-5.5,13.08-8.16,19.33-5.41a.19.19,0,0,1-.1.35Z"/><path class="e" d="M159.25,152.26c3.09,3.27,2,9.75-1,12.72-.11.11-.31,0-.22-.17a11.8,11.8,0,0,0,2.36-6.37c.07-2.24-.84-3.91-1.5-6a.23.23,0,0,1,.39-.22Z"/><path class="e" d="M153.48,159.6c1.58,4.22,1.41,9.83-1.15,13.69-.13.19-.46.07-.39-.16,1.49-4.7,2.15-8.5,1.13-13.42a.21.21,0,0,1,.41-.11Z"/><path class="e" d="M144.56,167.68c2.75,5.93,2.37,12.49-.21,18.41-.24.54-1.16.31-.93-.25,2.49-5.94,2.36-11.84.58-17.94-.09-.31.41-.54.55-.23Z"/></g><g class="f"><path class="d" d="M234.36,199.72c.81-6.89,1.88-12,6.92-17,2.36-2.32,5.49-3.94,7.35-6.65,2.27-3.3,2.45-7.89,5.57-10.47,3.35-2.76,8.72-2,12.17-4.65,2.46-1.89,3.36-5.05,5.13-7.56A13.89,13.89,0,0,1,284.81,148c-5,1.18-8.57,6.52-7.58,11.42.63,3.13,2.84,6,2.57,9.17-.54,6.32-10.1,9-10.83,15.32-.2,1.71.32,3.43.39,5.15.22,5.36-4.61,10.43-10.17,10.67Z"/><path class="e" d="M271.93,163.71a88.69,88.69,0,0,0-13.2,15.53c-3.64,5.44-6.2,11.22-9.15,17a.53.53,0,0,1-1-.39c3.87-12.4,13.46-23.66,23.29-32.16,0,0,0,0,0,0Z"/><path class="e" d="M271.5,170.11a9.94,9.94,0,0,0-4.1.33,28.47,28.47,0,0,0-3.61,1.89c-.14.07-.34-.08-.24-.23,1.56-2.22,5.48-2.62,8-2.23a.12.12,0,0,1,0,.23Z"/><path class="e" d="M268.42,177a12.33,12.33,0,0,0-5.76-.07,20.24,20.24,0,0,0-4.63,2.16.25.25,0,0,1-.31-.39c2.58-2.69,7.37-2.9,10.74-1.81a.06.06,0,0,1,0,.11Z"/><path class="e" d="M265,186.23c-5.29-.62-8.8.4-12.8,3.83-.24.2-.66-.06-.46-.35,2.6-3.8,9-5.63,13.33-3.73a.13.13,0,0,1-.07.24Z"/><path class="e" d="M261.62,167c2.13,2.25,1.35,6.72-.71,8.77-.08.08-.22,0-.15-.12a8.13,8.13,0,0,0,1.63-4.39,11.64,11.64,0,0,0-1-4.11.16.16,0,0,1,.27-.15Z"/><path class="e" d="M257.64,172.06a11,11,0,0,1-.79,9.44c-.09.13-.32.05-.27-.11a16.87,16.87,0,0,0,.78-9.25.15.15,0,0,1,.28-.08Z"/><path class="e" d="M251.49,177.63a15.29,15.29,0,0,1-.14,12.69c-.16.37-.8.21-.64-.17a17.89,17.89,0,0,0,.4-12.37c-.06-.21.28-.37.38-.16Z"/></g><g class="f"><path class="d" d="M114.52,199.72c-1.27-11.22-2.95-19.56-10.87-27.61-3.71-3.78-8.62-6.42-11.55-10.83-3.57-5.37-3.85-12.85-8.75-17-5.26-4.5-13.7-3.26-19.11-7.57-3.86-3.07-5.28-8.22-8.05-12.31a21.46,21.46,0,0,0-20.91-8.87c7.89,1.92,13.46,10.62,11.9,18.59-1,5.1-4.47,9.76-4,14.94C44,159.3,59,163.7,60.16,174c.32,2.79-.5,5.58-.62,8.39-.35,8.72,7.25,17,16,17.37Z"/><path class="e" d="M55.52,141.09a143.21,143.21,0,0,1,20.72,25.29C82,175.25,86,184.66,90.61,194.07c.42.85,1.79.25,1.52-.64C86,173.23,71,154.9,55.55,141.06c0,0,0,0,0,0Z"/><path class="e" d="M56.19,151.51a15.07,15.07,0,0,1,6.43.54c2.18.69,3.67,2.12,5.67,3.07.22.11.54-.13.37-.37-2.45-3.62-8.6-4.27-12.52-3.62-.21,0-.17.41.05.38Z"/><path class="e" d="M61,162.79a18.69,18.69,0,0,1,9-.11c2.73.68,4.85,2.21,7.28,3.51a.41.41,0,0,0,.49-.64c-4-4.37-11.57-4.73-16.87-2.95a.1.1,0,0,0,.05.19Z"/><path class="e" d="M66.39,177.76c8.31-1,13.82.66,20.1,6.24.37.33,1-.1.73-.56-4.08-6.18-14.16-9.16-20.93-6.08a.21.21,0,0,0,.11.4Z"/><path class="e" d="M71.71,146.44c-3.35,3.67-2.12,10.94,1.11,14.28a.16.16,0,0,0,.24-.19,13.54,13.54,0,0,1-2.56-7.15c-.07-2.51.91-4.39,1.62-6.7a.25.25,0,0,0-.42-.24Z"/><path class="e" d="M78,154.68c-1.71,4.74-1.53,11,1.24,15.37a.23.23,0,0,0,.42-.18c-1.61-5.28-2.33-9.54-1.22-15.06a.23.23,0,0,0-.45-.12Z"/><path class="e" d="M87.61,163.75c-3,6.65-2.57,14,.23,20.67.26.61,1.26.35,1-.28-2.7-6.67-2.55-13.3-.63-20.14.1-.35-.44-.6-.6-.25Z"/></g><g class="f"><path class="d" d="M105.07,160.17l-.16.08a4,4,0,0,1-4.09-.08,16.65,16.65,0,0,1-4.1-2.55,8.56,8.56,0,0,1-3-5.23,1.86,1.86,0,0,1,.22-1.33,1.49,1.49,0,0,1,1.72-.36,5.21,5.21,0,0,1,1.52,1.11,1.72,1.72,0,0,0,.67.43.63.63,0,0,0,.71-.24c.21-.37-.15-.8-.48-1.08-.76-.64-1.48-1-2.28-1.57a7.53,7.53,0,0,1-2.49-2.67,3.94,3.94,0,0,1-.1-3.55,2.16,2.16,0,0,1,.73-.83,2.6,2.6,0,0,1,1.93-.2,18.55,18.55,0,0,0,1.93.45c1.56.16,2.17-.93,2.14-2.37,0-1-.33-1.9-.39-2.86a4.39,4.39,0,0,1,2.27-4.21,3.15,3.15,0,0,1,4.22,1.57c.6,1.74-.76,3.7.14,5.36a5.08,5.08,0,0,0,1.47,1.61c.85.53,2.08-.09,3.08,0a.9.9,0,0,1,.62.2.85.85,0,0,1,.19.44,3.68,3.68,0,0,1-1.11,3.36c-1,.94-2.82,1.42-3.25,2.88-.27.91-.15,3.18,1.3,3,.54-.09.91-.62,1.43-.8a1.45,1.45,0,0,1,1.67.83,2.54,2.54,0,0,1,0,2,8.33,8.33,0,0,1-1.91,2.58C108.11,157.65,107.1,159.17,105.07,160.17Z"/><rect class="g" x="102.56" y="138.99" width="0.69" height="32.08"/><polygon class="g" points="102.91 149.72 98.56 145.37 99.05 144.88 102.91 148.74 106.77 144.88 107.26 145.37 102.91 149.72"/><polygon class="g" points="102.91 157.97 98.56 153.62 99.05 153.13 102.91 156.99 106.77 153.13 107.26 153.62 102.91 157.97"/><path class="d" d="M122,149.59l-.22.11c-2.28,1.09-3.49.91-5.72-.12a23.29,23.29,0,0,1-5.73-3.57,12,12,0,0,1-4.16-7.31,2.6,2.6,0,0,1,.31-1.86,2.09,2.09,0,0,1,2.41-.5A7.29,7.29,0,0,1,111,137.9a2.41,2.41,0,0,0,.94.6.88.88,0,0,0,1-.33c.3-.52-.21-1.12-.67-1.51-1.07-.89-2.07-1.4-3.19-2.19a10.53,10.53,0,0,1-3.48-3.73,5.51,5.51,0,0,1-.14-5,3,3,0,0,1,1-1.16,3.64,3.64,0,0,1,2.69-.28,26,26,0,0,0,2.7.63c2.18.23,3-1.31,3-3.31,0-1.34-.46-2.65-.54-4a6.13,6.13,0,0,1,3.17-5.89c2.14-1,5.13,0,5.9,2.2.83,2.43-1.07,5.17.19,7.49a7.11,7.11,0,0,0,2.06,2.25c1.19.74,2.92-.13,4.31-.07a1.26,1.26,0,0,1,.86.28,1.18,1.18,0,0,1,.27.62,5.15,5.15,0,0,1-1.56,4.69c-1.44,1.31-3.94,2-4.55,4-.38,1.27-.22,4.45,1.81,4.13.76-.12,1.27-.87,2-1.12a2,2,0,0,1,2.34,1.16,3.55,3.55,0,0,1-.07,2.78,11.64,11.64,0,0,1-2.67,3.6C126.25,146.07,124.83,148.19,122,149.59Z"/><rect class="g" x="118.63" y="119.97" width="0.69" height="79.75"/><polygon class="g" points="118.98 134.78 112.99 128.79 113.48 128.3 118.98 133.8 124.48 128.3 124.97 128.79 118.98 134.78"/><polygon class="g" points="118.98 146.31 112.99 140.33 113.48 139.84 118.98 145.33 124.48 139.84 124.97 140.33 118.98 146.31"/></g><rect class="d" x="162.87" y="189.81" width="6.01" height="4.7" transform="translate(331.76 384.32) rotate(180)"/><path class="g" d="M171.22,126.46l-8.35,37v27.72h6s5-19.23,2.44-27.21l10-23Z"/><polygon class="g" points="170.45 191.13 170.45 198.15 150.78 198.15 150.78 195.71 156.42 194.58 160.62 189.76 161.49 189.76 162.87 192.01 168.88 192.2 169.76 191.13 170.45 191.13"/><rect class="h" x="159.97" y="190.49" width="0.75" height="1.65" transform="translate(-88.76 175.26) rotate(-46.34)"/><rect class="h" x="158.98" y="191.74" width="0.75" height="1.23" transform="translate(-86.31 147.17) rotate(-39.94)"/><polygon class="h" points="158.5 193.85 159.02 193.31 158.23 192.55 157.71 193.1 158.5 193.85"/><rect class="d" x="182.84" y="191.13" width="4.46" height="4.7" transform="translate(370.14 386.97) rotate(180)"/><polygon class="i" points="170.55 129.42 173.41 129.6 181.29 140.87 177.11 150.54 174.8 139.64 169.82 132.65 170.55 129.42"/><path class="g" d="M189.93,130.54l-.38,31.85c3.38,7-2.25,28.75-2.25,28.75h-4.89l-.66-25.71-5.45-25.78-7.42-10.42Z"/><polygon class="g" points="175.96 198.04 183.75 198.04 188.24 195.96 187.93 192.2 187.3 193.14 186.17 193.2 184.79 191.13 181.03 191.13 175.96 198.04"/><polygon class="h" points="188.24 195.96 188.24 197.4 184.1 199.72 175.96 199.72 175.96 198.04 183.75 198.04 188.24 195.96"/><rect class="h" x="180.3" y="192.45" width="2.54" height="0.75"/><rect class="h" x="179.76" y="193.77" width="2.54" height="0.75"/><rect class="h" x="178.91" y="195.08" width="2.54" height="0.75"/><rect class="h" x="150.78" y="198.04" width="19.67" height="1.67" transform="translate(321.23 397.76) rotate(180)"/><path class="d" d="M163.52,102.16l-3.38,1.32-8.93-10.05.14-2.8a1.16,1.16,0,0,0-.89-1.19l-1.35-.33L149,90.75l-.61-4.2a2.23,2.23,0,0,0-1.72-1.85h0a.17.17,0,0,0-.2.19l.56,4.22-1.14,1.45a1.86,1.86,0,0,0-.34,1.64l.63,2.35,1.81,1.6,8.62,15.34,8.16-2.55Z"/><polygon class="d" points="177.52 97.91 190.89 94.55 182.09 75.77 175.7 81.41 178.67 90.07 177.52 97.91"/><polygon class="i" points="161.55 102.93 163.52 102.16 164.72 108.94 162.59 109.61 161.55 102.93"/><path class="j" d="M178.67,90.07l-8.79,5.09a2.68,2.68,0,0,0-.45.33l-6.56,5.92,1.32,8.44L180.77,100Z"/><polygon class="j" points="194.34 99.2 190.89 131.46 167.19 131.46 173.49 93.8 178.67 90.07 182.81 95 188.19 88.56 194.34 99.2"/><path class="h" d="M182.94,78.83a31.37,31.37,0,0,0,1.91,3.84c.22.38.59,1.33,1.08,1.43.65.13.65-.57.64-1a12.84,12.84,0,0,1,.4-2c0-.32,0-.65.07-1a18.5,18.5,0,0,1,.53-2.26,5.57,5.57,0,0,0-1-4.05c-.36-.65-.7-1.34-1.13-2-.54-.77-1.32-.76-2.06-1.23-.57-.37-1-1.07-1.62-1.19-.83-.15-1.67.7-2.45.37s-1.55-.78-2.44-.28a2.75,2.75,0,0,1-.92.47,3.06,3.06,0,0,1-.7-.07,3.41,3.41,0,0,0-1.36.23c-.42.13-.89.31-1,.73-.09.25,0,.53-.14.77a1,1,0,0,1-.83.46,2.51,2.51,0,0,0-1,.2c-.46.26-.59,1.62-.38,2.06A1.46,1.46,0,0,0,172,75c.55,0,1.08-.22,1.63-.25a1.5,1.5,0,0,1,1.44.61,1.93,1.93,0,0,1,.16.48l.67,2.7a4.64,4.64,0,0,0,1.07,2.33,2.56,2.56,0,0,0,2.5.54,3.08,3.08,0,0,0,1.87-1.8,3.47,3.47,0,0,1,.46-1,.71.71,0,0,1,1-.18A1,1,0,0,1,182.94,78.83Z"/><path class="d" d="M172.08,75.1v4.32l.56.56a6.29,6.29,0,0,0-1.13,3.48h1.13V85.6A3.31,3.31,0,0,0,176,88.91h.42A4.63,4.63,0,0,0,181,84.29V82.43s1.79-.85,1.79-2.44c0,0,.28-2.44-1.22-2.35,0,0-2-.09-2.07,1.5l-2.15.19V78.12a1.62,1.62,0,0,0-1.51-1.61h0L175.74,74S173.21,73.51,172.08,75.1Z"/><path class="h" d="M172.83,86.62c.33-.18.47.31.5.54s.1.49.32.55a.58.58,0,0,0,.28,0,1.62,1.62,0,0,0,.73-.34c.37-.27.68-.54.66-1a1.14,1.14,0,0,0-.62-1.14,2.57,2.57,0,0,0-1.25-.12c-.32,0-.78.19-1-.13a.68.68,0,0,1,0-.59,1,1,0,0,1,.14-.31c.21-.26,1.17-.18,1.5-.2a6.57,6.57,0,0,1,1.16,0,1.44,1.44,0,0,1,1,.48c.2.25.31.6.6.71a.77.77,0,0,0,.39,0,1,1,0,0,0,.75-.42,1.58,1.58,0,0,0,0-1.25c-.26-.92-.15-1.89-.4-2.79-.14-.49-.39-1.7,0-2.12h2.19a7.75,7.75,0,0,0-.09,3.79c.7,1.68,2.09,4.08.46,5.66a5.21,5.21,0,0,1-1.57.92,4.08,4.08,0,0,1-1.11.36c-.45.06-.9,0-1.35,0a7.22,7.22,0,0,1-1.68.12,3.08,3.08,0,0,1-1-.47.58.58,0,0,1-.18-.15,1.61,1.61,0,0,1-.11-.32,1.26,1.26,0,0,0-.13-.21,1.69,1.69,0,0,1-.28-1C172.68,86.83,172.72,86.68,172.83,86.62Z"/><g class="k"><path class="h" d="M170.65,172.82a2.1,2.1,0,0,0,.51-1.14c0-.23-.73-1.45-.65-1.55a.72.72,0,0,1,.53-.26c-.06-.28-.36-.42-.58-.59s-.4-.53-.19-.72.64-.13.95-.19c-.06-.76-.27-1.54-.41-2.29a4.68,4.68,0,0,0-.74-1.94c-.38-.5-1-.57-1.3-1.15a.28.28,0,0,1,0-.16c0-.13.2-.18.33-.18a13.69,13.69,0,0,0,1.69-.1c.31-.06,1.1-.51,1.24-.24s-.56,1.35-.67,1.61a23.28,23.28,0,0,1,.67,8c-.07,1.6-.22,3.21-.41,4.8a21.66,21.66,0,0,1-.67,4.46,4,4,0,0,0-.33-1.88,8.47,8.47,0,0,0-1.11-1.67,1.1,1.1,0,0,1-.19-.3,1,1,0,0,1,0-.31,4.57,4.57,0,0,1,0-.78c.64.36,1.27.63,1.93.91a5.14,5.14,0,0,0-.8-2.72c-.16-.18-.35-.37-.35-.61a.76.76,0,0,1,.09-.29A5.06,5.06,0,0,1,170.65,172.82ZM177,150.88c.21-.5-1-.05-1.07,0a2.52,2.52,0,0,0-.85,1.19,20.61,20.61,0,0,0-.49,2.24,6.06,6.06,0,0,1-1.6,2.83c.35,0,.55.44.46.77a2.4,2.4,0,0,1-.57.86c-.39.48-.56,1.36-1,1.75-.2.19-.52.19-.75.28a14.56,14.56,0,0,1,1.06,1.14Z"/></g><g class="l"><path class="m" d="M191.52,125.55l-.13,1.2a.39.39,0,0,1-.08-.41A7.07,7.07,0,0,0,191.52,125.55Z"/><path class="m" d="M191.62,111.66c.72-.18-.69-.76-1.21-1.36-.07-.2,1.56-.23,1.72-.33-.1-.72,0-1.36-.1-2.08-.38-.2-1.76-.35-1.4-.47,1.78-.6.32-8.36-.2-9.51a32.81,32.81,0,0,1,2.07,3.37,22.45,22.45,0,0,1,1.16,4.26l-.21,2-.26,0a2.43,2.43,0,0,1,.23.21l-.5,4.65c-.14,0,0,.43-.17.45.14.2,0,0,.1.2L191.68,124c-.8,4.61-.91-3-.8-4.27.23-2.66,1.61-5.76-.25-6.2C190.21,113.43,191.23,111.71,191.62,111.66Z"/></g><polygon class="d" points="200.55 109.85 201.02 115.22 196.22 137.77 196.79 140.68 196.22 144.53 194.84 145.76 192.94 146.32 190.89 147.07 190.02 147.07 188.19 146.32 189.37 144.82 189.84 142.42 189.08 143.69 187.66 144.06 189.46 139.64 192.41 136.58 194.34 117.05 193.59 109.85 200.55 109.85"/><polygon class="i" points="200.68 111.35 193.75 111.35 193.59 109.85 200.55 109.85 200.68 111.35"/><path class="j" d="M188.19,88.56l10.74,6.13a4,4,0,0,1,2,3.27l.56,11.89h-8.55l-.52-8.16Z"/><rect class="n" x="232.39" y="190.52" width="5.49" height="5.49" transform="translate(470.27 386.53) rotate(180)"/><rect class="n" x="225.72" y="190.52" width="5.49" height="5.49" transform="translate(456.93 386.53) rotate(180)"/><polygon class="e" points="239.61 134.27 239.61 165.01 238.13 194.15 232.16 194.15 232.16 136.23 239.61 134.27"/><polygon class="i" points="239.61 134.27 239.61 134.71 235.43 141.33 234.26 171.16 232.4 194.15 232.16 194.15 232.16 136.23 239.61 134.27"/><path class="e" d="M220.92,132.7v6.91c0,3,.67,3.94,1.95,6.63l.34.71,1,24.21.72,23h6.32l1.86-23,2-30.62,4.58-6.27v-3.35Z"/><polygon class="j" points="255.06 102.13 252.48 98.18 238.13 114.45 243.99 114.15 255.06 102.13"/><path class="h" d="M219.75,88.86a10.43,10.43,0,0,0,.29-7.3l0-.18,1,3.3a7.68,7.68,0,0,0,.61,1.6c.27.48.64.89.94,1.36a5.08,5.08,0,0,1,.72,3.53,2.94,2.94,0,0,1-.43,1.18,3.87,3.87,0,0,1-1.7,1.21,27.16,27.16,0,0,1-4.88,1.64C217.11,92.93,218.8,91.07,219.75,88.86Z"/><path class="n" d="M249.32,108H251a0,0,0,0,1,0,0v1.28a0,0,0,0,1,0,0h-2.82a0,0,0,0,1,0,0v-.19A1.09,1.09,0,0,1,249.32,108Z" transform="translate(521.5 93.98) rotate(153.4)"/><path class="g" d="M238.13,114.45l-6.56-22,4.18,1.42a2.34,2.34,0,0,1,1.12,1.31l5.32,14.61Z"/><path class="o" d="M238.13,114.45l-6.56-22,4.18,1.42a2.34,2.34,0,0,1,1.12,1.31l5.32,14.61Z"/><path class="n" d="M247,108.17l1.58.7,1,1.2a.82.82,0,0,1,0,1l-.35.52-.64,1.23-.74.78-.83.62-1.85.56-2.27-2.27,1.65-1.55,1.58-2.5A.67.67,0,0,1,247,108.17Z"/><path class="g" d="M231.57,93.08l6.91,11.46a9.17,9.17,0,0,1,1.38,6.42l-1.13,7.22,2.19,16.09H219.17L220.92,117,219.85,92.2l9.9,1.21Z"/><path class="h" d="M249.09,199.72H230.67v-3l1.66-2.12h8.61l6.17,1.26a2.48,2.48,0,0,1,2,2.43Z"/><rect class="g" x="230.03" y="198.36" width="19.59" height="1.35"/><path class="i" d="M225.57,198.36v-1.67l1.66-2.12h8.61l6.17,1.26a2.48,2.48,0,0,1,2,2.43v.1h.52v1.35H224.93v-1.35Z"/><path class="h" d="M242.43,199.72H224v-3l1.66-2.12h8.61l6.17,1.26a2.48,2.48,0,0,1,2,2.43Z"/><rect class="g" x="223.36" y="198.36" width="19.59" height="1.35"/><path class="o" d="M231.53,113.26l0,0C231.66,113.22,231.63,113.23,231.53,113.26Zm-7.75,7.94c.61-.58.57-1.6,1.3-2.22a.47.47,0,0,0-.09-.74c.81-.44.95-1.76,2-1.94s0-.59-.24-.69c1.7.26,4.41-2.12,4.75-2.35a33,33,0,0,1-4.2,1c-.86-.1-1.72,0-2.31-.84-.38-.51,1.2-3,1.06-2.88.31-.15-.43-1.15-.76-1.3-2.26-1-2.86-4.41-3.49-6.55a.49.49,0,0,0-.94.26c.65,2.24,2,4.25,2.74,6.35.23.69.51.21.53.29s-.46.61-.42.91c.4,3.62-1.69,4.18.52,4.54a3,3,0,0,1-.55.36.49.49,0,0,0,.12.89c-.64.51.28,1-.36,1.52a.49.49,0,0,0,0,.94C224.4,119,223.12,121.84,223.78,121.2Z"/><path class="o" d="M238.73,118.19v-.07a5.62,5.62,0,0,1,0-3.37.79.79,0,0,0,.4-.2.94.94,0,0,0,.2-.28l.07-.45a.73.73,0,0,0,0-.13h0l.4-2.55a.45.45,0,0,0-.32.31,3.26,3.26,0,0,1-.32.68h0a9.29,9.29,0,0,1-4.18.77c-.64,0,.79.78,1.39.87,1.63.26.4.54,1.3.81a2.29,2.29,0,0,0-.07.27c-.19,1.18-.85,1.35-.51,2.5C237.22,117.86,238.73,118.19,238.73,118.19Z"/><path class="p" d="M224.06,112.43l.84,3.68,12.46-.47,1.92-1-.55,3.55.11.84-.11-.05L224.46,122a4.86,4.86,0,0,1-4-.89l.42-4.12-.15-3.5Z"/><path class="n" d="M224.06,111.65l.84,3.68,12.46-.47,4.21-2.2,2.45-1.72v.46a2.29,2.29,0,0,1-.86,1.79l-.22.18,1.08.85.6.44a1.44,1.44,0,0,1,.45,1.79l-.41.85a2.67,2.67,0,0,1-2.4,1.5H240l-1.27-.59-14.27,3.05a4.87,4.87,0,0,1-5.56-3l-1.67-4.33Z"/><polygon class="i" points="224.31 112.74 217.64 114.93 217.23 113.89 224.06 111.65 224.31 112.74"/><path class="g" d="M220.65,91.46l-5.06,4.68a6.69,6.69,0,0,0-2,6.41l2.69,11.65,8.6-2.82-2.07-8.55.56-8.47Z"/><path class="h" d="M228.83,86.07c0-1,.11-2,.15-3.07s-.2-2.15-.16-3.22a18.09,18.09,0,0,1,1.28-6,.87.87,0,0,1,.28-.42.89.89,0,0,1,.5-.11,2.68,2.68,0,0,1,3.28,2.29c.44,1.36,1.33,3.13,1.36,4.56s-.68,2.77-1,4.08c-.44,2.06-.19,4.21-.44,6.31a10.91,10.91,0,0,0-.16,3.17A5.14,5.14,0,0,0,235.57,96a.61.61,0,0,0,.15.12.75.75,0,0,0,.27.06,1.81,1.81,0,0,1,1.37.93c-.23.33-.73.3-1.11.18a2,2,0,0,0-1.17-.19c0,.29.41.49.34.77s-.27.25-.45.27c-1.19.11-1.32-.41-1.75-1.28-.62-1.27-.37,1-.31,1.31a1.29,1.29,0,0,1-.77-.58c-.19-.27-.31-.58-.47-.87-.39-.68-1-1.23-1.37-1.92a10.54,10.54,0,0,1-1.38-5.07Q228.85,87.9,228.83,86.07Z"/><path class="n" d="M226.69,96.81h0a3.06,3.06,0,0,0,3.06-3.06V85.56h-6.13v8.18A3.06,3.06,0,0,0,226.69,96.81Z"/><polygon class="i" points="223.62 90.08 229.75 92.04 229.75 85.56 223.62 85.56 223.62 90.08"/><path class="n" d="M233.92,80.2v3.61a2.68,2.68,0,0,1-.34,1.31l-2.78,5a1.39,1.39,0,0,1-1.21.71h-1.45a1.39,1.39,0,0,1-.95-.37L224,87.48a2.5,2.5,0,0,1-.8-1.84V77.72a7.82,7.82,0,0,1,7.19-2.07A4.69,4.69,0,0,1,233.92,80.2Z"/><path class="j" d="M231.57,87h-4.25S229.23,90.79,231.57,87Z"/><path class="h" d="M231.53,72.73a7.61,7.61,0,0,0-1.93-.37c-.73-.14-1.41-.49-2.14-.64a5.3,5.3,0,0,0-4.76,1.74,10.83,10.83,0,0,0-2.36,4.68,23.35,23.35,0,0,0-.54,9.53c.21,1.41.79,2.8.91,4.22a4.61,4.61,0,0,0,1.35,3l1.59,1.88A7,7,0,0,0,225,98.09c.41.28,1,.36,1.29.68a1.33,1.33,0,0,0,.18-1.27,6,6,0,0,1-.34-1.29,1.7,1.7,0,0,0,1.34.87c.18,0,.67.06.72-.2s-.3-.25-.43-.4a.23.23,0,0,1,0-.17l0-.56a2.55,2.55,0,0,0,1.58.15l-2.81-2.17c-1.3-1-2-3.07-2.36-4.62a26.76,26.76,0,0,1-.68-4.61,9.15,9.15,0,0,1,.12-2.11c.13-.75,0-1.5.21-2.23a1.7,1.7,0,0,1,.26-.65,2.2,2.2,0,0,1,1.09-.66,20.15,20.15,0,0,1,4.09-1.15,17.54,17.54,0,0,0,2-.28,2.74,2.74,0,0,0,1.66-1.06C233.66,75.18,232.7,73.3,231.53,72.73Z"/><path class="h" d="M49.07,93.8c-.25-1.15-1-2.3-.57-3.41.32-.91,1.25-1.42,1.92-2.11a6.56,6.56,0,0,0,1.52-4.55,12.31,12.31,0,0,1,.11-2.37c.33-1.58,1.5-2.82,2.33-4.2a5.81,5.81,0,0,1,.95-1.35,4.45,4.45,0,0,1,1.6-.82q1.91-.66,3.85-1.24a3.08,3.08,0,0,1,1.93-.14,3.11,3.11,0,0,1,1.15.94l2,2.25A2.35,2.35,0,0,1,67,78.26a6.7,6.7,0,0,1-.2,2.93,4.71,4.71,0,0,0,.08,2.91c.42.9,1.35,1.53,1.56,2.49a3.9,3.9,0,0,1-.84,2.69c-.85,1.42-1.63,3.05-1.3,4.68.2,1,.8,1.86.92,2.86A3.16,3.16,0,0,1,66,99.73c-.53.38-1.21.64-1.44,1.24a7.11,7.11,0,0,0-.1,1.45A2.15,2.15,0,0,1,62.08,104a6.37,6.37,0,0,1-2.81-1.19,6.07,6.07,0,0,0-2.82-1.15c-2-.09-3.91,1.73-5.77,1-1.51-.56-2-2.47-1.9-4.08S49.41,95.37,49.07,93.8Z"/><rect class="q" x="53.33" y="91.49" width="8.12" height="9.34" transform="translate(114.78 192.32) rotate(180)"/><rect class="q" x="56.1" y="86.67" width="4.12" height="9.34" transform="translate(116.31 182.68) rotate(180)"/><polygon class="r" points="56.1 89 60.22 91.01 60.22 86.67 56.1 86.67 56.1 89"/><path class="q" d="M62.18,90.08c1.46.71,4-1.5,3.88-5.16,0-.15,1.78-.33,1.69-.45-1.95-2.59-2.21-7.51-3.31-8.61-2.51-2.51-12.83,0-12.83,0v6C51.61,87.37,62.18,90.08,62.18,90.08Z"/><path class="q" d="M63.82,168.9s-4,14.07-4.69,20.64l-4.56-1.61a40.88,40.88,0,0,0,.54-12.75Z"/><path class="h" d="M59.13,189.53l4.12,6.57,6.8,1.74v.67l-6.8,1.21s-2.18,0-2.41-.54l-5.19-5h-.8v5H53.77s.67-4,0-4.82a6.82,6.82,0,0,1-.4-5.9l1.21-.54Z"/><path class="i" d="M62.77,172.74l-7.37,6.82a32.5,32.5,0,0,0-.29-4.39l8.71-6.28S63.38,170.44,62.77,172.74Z"/><polygon class="q" points="68.51 165.81 49.49 183.45 47.21 179.48 57.39 165.81 68.51 165.81"/><path class="h" d="M49.49,183.45l-4,9,1.88,4.42-.8,2.28-4.29-6a5.22,5.22,0,0,1,0-4.15l1.21-4.56s.54-.94-.54-.67A21.13,21.13,0,0,0,39,186V185L42,182.5l1.61-2.34s2.68-1.61,3.62-.67Z"/><path class="g" d="M52.84,132.32s-2.28,7,0,12.33c1.25,2.95,1.51,6.78,1.73,9.92a53,53,0,0,1-.38,10.84c-.35,2-.48,2.3,1.76,2.4a11,11,0,0,0,4.57-.78,4.21,4.21,0,0,1,1.37-.41,4.74,4.74,0,0,1,1.66.42,7,7,0,0,0,4.3,0,9.22,9.22,0,0,1,1.42-.42c1.51-.22,2.9,1.1,4.31.91,1.24-.16,1-.58.77-1.7-.32-1.84-.75-5.28-1.11-7.12-.64-3.31-1.87-7.14-1.67-10.54l0-15.49s.73-3.79,1.3-5.51Z"/><g class="s"><path class="t" d="M73.15,165.87c-.32-1.84-1.15-5.28-1.51-7.12a54.77,54.77,0,0,1-1.29-9.68,23.39,23.39,0,0,0-.23-2.82l-1.74-13.53s2.66-3.35,3.21-5.18l1.31-.33c-.57,1.72-1.3,5.51-1.3,5.51l0,15.49c-.2,3.4,1,7.23,1.67,10.54.36,1.84.79,5.28,1.11,7.12.19,1.12.47,1.54-.77,1.7a2.54,2.54,0,0,1-.88-.06C73.56,167.31,73.32,166.87,73.15,165.87Z"/></g><path class="i" d="M52.84,132.32l19.54-5,.29.68c-.3,1.11-.65,2.75-.94,4.13-3,1.87-9.5,4.7-19.64,3.62A23.36,23.36,0,0,1,52.84,132.32Z"/><path class="g" d="M61.52,91.54l3.36-.07a13,13,0,0,1,4.34,1l1.64,2.43c.37.28.07,8.19.07,8.19l.26,15.72a3.88,3.88,0,0,0,.31,1.45l3.05,7.21s-7,6.7-21.71,4.82V127L46.54,98l5.63-5.36,8,2.81Z"/><polygon class="i" points="53.33 98.89 50.85 117.82 46.54 98.01 53.33 98.89"/><g class="u"><path class="h" d="M52.92,133.48a7.48,7.48,0,0,0,1.32,6.07c.58.76,1.3,1.4,1.9,2.14a17.89,17.89,0,0,1,2.28,4c.7,1.53,1.4,3.2,1,4.84a14.19,14.19,0,0,1-1.2,2.63,8.59,8.59,0,0,0-.26,6.58c.55,1.45,1.48,2.73,2.07,4.17a5.67,5.67,0,0,1,.41,3.14,11,11,0,0,1-4.49.75c-2.23-.1-2.11-.38-1.76-2.4a53,53,0,0,0,.38-10.84c-.22-3.14-.48-7-1.73-9.92-1.85-4.36-.69-9.78-.19-11.65A1.78,1.78,0,0,1,52.92,133.48Z"/><path class="h" d="M53,134.33l0-.8A1.33,1.33,0,0,1,53,134.33Z"/><path class="h" d="M52.94,133.53l0,0v0Z"/></g><polygon class="i" points="52.84 126.96 51.49 120.78 65.03 120.4 65.03 124.6 52.84 127.23 52.84 126.96"/><path class="v" d="M57.12,99.89a63.74,63.74,0,0,1,10,22.33S66,101.63,64,96.94l-1.32-2.35-2.43.87-3.7.72Z"/><path class="w" d="M67.13,122.22s-7.46-16.54-9.06-17l-.67,1-.47-3.91L56.1,104,52.17,92.65S63.87,106.85,67.13,122.22Z"/><polygon class="i" points="61.52 92.75 63.96 95.07 63.96 98.15 62.74 95.33 61.52 98.95 58.73 97.75 57.3 101.41 52.17 92.65 52.84 90.91 60.21 96.67 60.84 93.19 61.52 92.75"/><path class="v" d="M67.76,122.54s.78,8.55-1.52,9.06c0,0,5.31-2.06,5.74-2.32S68.81,128.75,67.76,122.54Z"/><path class="w" d="M71.6,129.28c.38-.22-2.35-.47-3.73-4.73,0-1.17-.11-2-.11-2,1,6.22,4.65,6.49,4.22,6.75S71.6,129.28,71.6,129.28Z"/><rect class="q" x="53.09" y="114.16" width="3.37" height="9.35" transform="translate(-69.19 160.72) rotate(-83.92)"/><path class="g" d="M52.17,115.89l15.95.45-4.25-20A3.56,3.56,0,0,1,66.76,92h0a3.56,3.56,0,0,1,4.1,2.92l3.91,23.76a4.28,4.28,0,0,1-4.62,4.93l-18-2.77Z"/><g class="s"><path class="t" d="M67.88,116.33l-15.7-.45v.38s14.85,2.53,16.92,1.66c.5-.21-1.61-.57-1.59-.66s1.81.16,1.72,0A3.94,3.94,0,0,0,67.88,116.33Z"/></g><path class="q" d="M51,116.74a5.57,5.57,0,0,0-.9-1.25l-.43-.41a1.7,1.7,0,0,0-1.39-.45,4.68,4.68,0,0,1-1.35.05,4.92,4.92,0,0,0-1.91-.29.7.7,0,0,0-.58.66c0,.38.47.66.42,1s-.32.45-.37.71.29.67.27,1-.32.54-.44.83a1,1,0,0,0,.1.89,1.87,1.87,0,0,0,.68.62,3.91,3.91,0,0,0,2.19.42c.73,0,1.49-.3,2.23-.27a1.21,1.21,0,0,0,1.15-1c.11-.43.1-.16.14-.6Z"/><path class="w" d="M66.23,116.29l1,0c-.69-5.05-1.33-10.9-.73-11.61l1.14.5-1.77-3.51,1.59.9-5-10.19S61.82,102.21,66.23,116.29Z"/><polygon class="x" points="61.52 91.54 63.96 93.86 63.96 96.94 62.74 95.33 61.52 97.75 58.73 97.75 57.13 99.89 52.17 92.65 52.84 89.71 60.21 95.47 60.84 91.98 61.52 91.54"/><rect class="q" x="60.74" y="117.54" width="3.37" height="9.35" transform="translate(-52.49 197.23) rotate(-96.08)"/><path class="g" d="M65,119.27l-15.95.45,4.25-20a3.56,3.56,0,0,0-2.89-4.31h0a3.56,3.56,0,0,0-4.1,2.92l-3.91,23.76A4.28,4.28,0,0,0,47.06,127l18-2.77Z"/><g class="s"><path class="t" d="M49.33,119.71l15.7-.45v.38s-14.85,2.53-16.92,1.66c-.5-.21,1.61-.57,1.59-.66s-1.81.16-1.72,0A3.94,3.94,0,0,1,49.33,119.71Z"/></g><path class="q" d="M66.18,120.12a5.56,5.56,0,0,1,.9-1.25l.43-.41A1.7,1.7,0,0,1,68.9,118a4.68,4.68,0,0,0,1.35.05,4.92,4.92,0,0,1,1.91-.29.7.7,0,0,1,.58.66c0,.38-.47.66-.42,1s.32.45.37.71-.29.67-.27,1,.32.54.44.83a1,1,0,0,1-.1.89,1.87,1.87,0,0,1-.68.62,3.91,3.91,0,0,1-2.19.42c-.73,0-1.49-.3-2.23-.27a1.21,1.21,0,0,1-1.15-1c-.11-.43-.1-.16-.14-.6Z"/><g class="f"><path class="h" d="M42.44,122.06l2.69-16.37a7.67,7.67,0,0,0,.43,1.66,8.77,8.77,0,0,1,.69,2.06,6.11,6.11,0,0,1-.25,2.15,24.32,24.32,0,0,1-1.61,5,2.78,2.78,0,0,0-.4,1.24,3.18,3.18,0,0,0,.39,1.17,5.83,5.83,0,0,1-.79,5.92c-.11.13-.23.25-.36.38A4.25,4.25,0,0,1,42.44,122.06Z"/></g><path class="h" d="M44.4,99.47a10.57,10.57,0,0,0,2.37-5.84c.17-2.18-1.22-4.46-.6-6.59.46-1.58,2.06-2.58,2.7-4.09s.27-3.12.49-4.69c.75-5.41,7.6-6.16,11.93-5.44,1.33.22,4.55.74,5.07,2.31.69,2.1-2.55,3.1-4,2.35a10.21,10.21,0,0,0-1.27-.71A1.85,1.85,0,0,0,58.69,79,5.58,5.58,0,0,1,59,80.12c0,1-1.17,1.55-2.17,1.56a1.27,1.27,0,0,0-.82.18,1,1,0,0,0-.28.5c-.86,2.76,1.11,4.5-1.16,6.74-1.58,1.57-5.28,4.35-3.69,7,.29.48.77.87.87,1.42.15.8-.56,1.49-1.26,1.9s-1.51.77-1.85,1.51a5.39,5.39,0,0,0,0,2.52c.14,2.57-1.52,2.82-3.06,4.17A5.5,5.5,0,0,0,44.3,112c0,.22,0,.52-.2.56a.43.43,0,0,1-.28-.08,6,6,0,0,1-1.46-1.05,2,2,0,0,1-.59-1.64c.06-.39.28-.74.37-1.13.31-1.24-.65-2.42-.83-3.69C41,102.53,43.05,101.11,44.4,99.47Z"/><path class="q" d="M125.06,90.95c-.15-.26-.39-.45-.54-.71-.66-1.14.89-2.57.45-3.82-.3-.86-1.42-1.2-1.75-2-.39-1,.48-2.3-.18-3.16-.17-.23-.43-.37-.61-.6-.47-.58-.27-1.43-.32-2.18-.1-1.51-1.3-2.76-1.5-4.26a2.73,2.73,0,0,0-.18-.9,1.67,1.67,0,0,0-.53-.56,6,6,0,0,0-2.37-1,1.54,1.54,0,0,1-.94-.39c-.2-.24-.23-.61-.48-.79a1,1,0,0,0-.52-.14l-2.45-.18-.36,0a3.11,3.11,0,0,0-2.27.64A9.75,9.75,0,0,0,107.71,73c-.69.91-.93,2.12-1.62,3s-1.49,1.15-1.39,2.4a4.28,4.28,0,0,1,.08,1.06,8.59,8.59,0,0,0-.23.83,11.15,11.15,0,0,0,.22,1.13,3.12,3.12,0,0,1-.66,1.5,3.16,3.16,0,0,0-.34,2.1,7.84,7.84,0,0,1,.25,1.23,3,3,0,0,1-.23,1.09,23.88,23.88,0,0,1-1.63,3c-.52,1,.46,1.83.69,2.77s-.2,1.77-.16,2.66a5.2,5.2,0,0,0,.6,1.9.73.73,0,0,0,.35.42c.36.13.64-.31.92-.58.67-.65,1.78-.36,2.69-.59.75-.19,1.4-.77,2.18-.77s1.44.58,2.2.7c1.2.19,2.25-.74,3.37-1.22,2.56-1.09,5.79.19,8.17-1.27a5.52,5.52,0,0,0,1.32-1.19C125,92.56,125.47,91.66,125.06,90.95Z"/><rect class="n" x="110.23" y="84.73" width="6.16" height="8.25"/><polygon class="n" points="117.93 92.98 109.41 92.98 109.41 88.65 117.93 89.41 117.93 92.98"/><path class="n" d="M148.87,98.65a2.19,2.19,0,0,0-1.28-.05c-2.08.34-5,1.11-7.07.73a2,2,0,0,1-.74-.27,2.63,2.63,0,0,1-.83-1.22,2.53,2.53,0,0,0-.85-1.21c-1.84-1.16-1,1.87-.89,2.49.26,1.4-.46,2-.77,3.19a.88.88,0,0,0-.35.91,2.15,2.15,0,0,0,.72,1c2,1.82,2.87-.78,4-2,1.75-1.76,5-2.41,7.4-2.32a1.16,1.16,0,0,0,1-.26A.76.76,0,0,0,148.87,98.65Z"/><path class="j" d="M119.26,115.22h-14.4V88.46l4.48,1L110.77,91a4.09,4.09,0,0,0,6.58-.63l.58-1h0l3.78,12.43Z"/><path class="n" d="M101.33,158s-2.59,9.17-3.12,30.56l-1.36,7.33v2a1.55,1.55,0,0,0,1.55,1.55H99a3.71,3.71,0,0,0,3.69-3.37l.45-3.56-.9-6.65c-.13.7,2.14-9.54,5.57-22.64l1.49-5.17Z"/><path class="n" d="M101.33,158s-2.59,9.17-3.12,30.56l-1.36,7.33v2a1.55,1.55,0,0,0,1.55,1.55H99a3.71,3.71,0,0,0,3.69-3.37l.45-3.56-.9-6.65c-.13.7,2.14-9.54,5.57-22.64l1.49-5.17Z"/><path class="h" d="M102.73,192.4C102.55,194.31,101,195,99,195h-.64c-.6,0-.78-1.32-1-1.81l-.51,2.75v2a1.55,1.55,0,0,0,1.55,1.55H99c1.92,0,3.52.58,3.69-1.33l.45-5.6-.24-1.78Z"/><path class="n" d="M120.44,158s.27,9.78-3.89,29.07l.87,9.73A3.74,3.74,0,0,1,117,199h0a1.48,1.48,0,0,1-1.29.76h-1.85a1.48,1.48,0,0,1-1.47-1.35l-.63-7.29,1.55-6.17s-.91-19-.41-22.1l-.8-4.76Z"/><path class="h" d="M117.23,192.64a3.74,3.74,0,0,1-.26.6c-.26.47-.76,1.17-1.29,1.17h-1.85c-.77,0-1.41-1-1.47-1.76l-.4-2.53-.24.94.63,7.29a1.48,1.48,0,0,0,1.47,1.35h1.85A1.48,1.48,0,0,0,117,199a3.74,3.74,0,0,0,.45-2.14Z"/><path class="i" d="M100.86,160.05h7.91l.58-2-8,0S101.15,158.68,100.86,160.05Z"/><path class="i" d="M112.06,158l.33,2h8c0-1.35,0-2,0-2Z"/><path class="e" d="M124.83,125.28s4.48,3.4,1.22,17.52c0,0-3.26,10.19-3.94,15.62h-22s.65-12.91,0-16.87c0,0-.27-16.41,5.43-17.63Z"/><path class="i" d="M124.83,125.28l-19.29-1.36c-1.61.35-2.74,1.9-3.54,4,1.91,1.21,4.28,3,6.82,3.14a5.09,5.09,0,0,0,4.5-2.28l1.31-2,.19.4a5.07,5.07,0,0,0,5.54,2.82c2.44-.47,4.52-2,5.87-2.56A5.35,5.35,0,0,0,124.83,125.28Z"/><path class="e" d="M117.93,89.41s6.5,1,7.31,3.47l-2.85,14.73s-.52,4.88.15,6.17,5.38,13.1,5.38,13.1a73,73,0,0,1-7.56,1.87,5.08,5.08,0,0,1-5.54-2.82l-.19-.4-1.31,2a5.09,5.09,0,0,1-4.5,2.28,16.26,16.26,0,0,1-7.48-1.91S104,115.44,104,114.52l-2-12.44,2.8-13.36c0-.14-.09-.29.05-.26l4.48.19,5.84,23.18,3.94-8.29Z"/><path class="e" d="M117.93,89.41s6.5,1,7.31,3.47l4.21,16.36,6.79-7.74,4.12,2s-6.18,9.84-9.17,12.93a2.12,2.12,0,0,1-1.41.64,4.09,4.09,0,0,1-4.13-2.59l-3.26-6.9Z"/><path class="i" d="M103.24,133.1a1.07,1.07,0,0,0,.46-.72c.28-1.23-.57-2.78-.68-4A40.63,40.63,0,0,1,103,124a19.51,19.51,0,0,1-.09-3.26c-.79,3.82-1.53,12.5-1.53,12.5A4.07,4.07,0,0,0,103.24,133.1Z"/><path class="i" d="M103.38,95.54,102,102.08a5.05,5.05,0,0,0,.24,1.45l.51,3.11.25,1.52c0,.19,0,1,.2,1.14.38.27.12-1.78.1-2a8.49,8.49,0,0,1,0-2.51,4.4,4.4,0,0,0,.17-1.06,4.69,4.69,0,0,0-.24-1,15.55,15.55,0,0,1,0-4.39Z"/><polygon class="y" points="117.93 89.41 121.16 99.3 119.68 100.69 121.03 103.27 115.19 111.83 119.13 103.54 117.93 89.41"/><polygon class="y" points="109.35 88.65 106.9 95.94 109.35 96.75 108.12 98.31 115.19 111.83 109.35 88.65"/><path class="z" d="M115.14,115.8c-.06,3.19.3,6.77-.74,9.83-.06.18.22.26.28.08,1-3,.68-6.78.5-9.9a0,0,0,0,0,0,0Z"/><path class="i" d="M100.69,140.36a1,1,0,0,0,.9-.1,1.89,1.89,0,0,0,.63-.68,4,4,0,0,0,.43-2.2c0-.69-.25-1.41-.26-2.11h0v-4.08H101a51.1,51.1,0,0,0-.93,8.81C100.31,140.1,100.49,140.27,100.69,140.36Z"/><path class="n" d="M98,133.59a5.62,5.62,0,0,0-1.27.9l-.41.43a1.72,1.72,0,0,0-.46,1.4,4.73,4.73,0,0,1,0,1.37,5,5,0,0,0-.3,1.92.7.7,0,0,0,.66.59c.38,0,.67-.47,1.05-.41s.45.32.72.38.68-.29,1-.27.54.32.83.45a1,1,0,0,0,.9-.1,1.89,1.89,0,0,0,.63-.68,4,4,0,0,0,.43-2.2c0-.74-.3-1.5-.26-2.25a1.22,1.22,0,0,0-1-1.16c-.43-.11-.16-.1-.6-.15Z"/><rect class="n" x="97.76" y="131.19" width="3.84" height="4.08"/><path class="e" d="M102.49,102l2.38-13.52L101,90.66a7.79,7.79,0,0,0-3.31,3.76l-1.39,3.35a30.4,30.4,0,0,0-.71,8L97,133.23h5.71l-.54-20Z"/><path class="aa" d="M122.53,113.79c-.67-1.3-.15-6.17-.15-6.17s.23-1.19.21-1.2l0,.18a3.58,3.58,0,0,0-1,1.29c-.62,1.36.23,3.88-.87,4.81a4.37,4.37,0,0,1-1.27.66,1.36,1.36,0,0,0-.62.39.48.48,0,0,0,0,.66.78.78,0,0,0,.41.09,3.32,3.32,0,0,1,2.95,2.25,26.54,26.54,0,0,0,1.64,3.55c.12.26.19.54.33.78.41.7,1.37.94,2,1.47C124.75,119,122.93,114.56,122.53,113.79Z"/><path class="aa" d="M122.39,107.62l3.26,6.9a5.1,5.1,0,0,0,.84,1.29,14.45,14.45,0,0,0-1-3c-.34-.9-.46-1.91-.87-2.76-.56-1.16-.72-2.26-1.58-3.25a.28.28,0,0,0-.21-.13c-.1,0-.15.1-.2.19C122.46,107.07,122.25,107.32,122.39,107.62Z"/><path class="i" d="M116.39,84.73h-6.16v1.73l1.11,1a2,2,0,0,0,1.32.5h.95a2,2,0,0,0,1.36-.53l1.42-1.3Z"/><path class="n" d="M108.65,77.29v5.82a2.54,2.54,0,0,0,.87,1.91l1.83,1.6a2,2,0,0,0,1.32.5h.95a2,2,0,0,0,1.36-.53l2.38-2.18a2.54,2.54,0,0,0,.83-1.87V77.29s.51-2.85-1.68-4.08a8.75,8.75,0,0,0-5.86,0S108.65,73.78,108.65,77.29Z"/><path class="q" d="M107.17,87.16c-.1-.2-.39-.05-.35.15.07.39-1.62.66-1.9,1-.59.73.23,2-.44,2.7a1.87,1.87,0,0,0-.53-.33c-.35-.14-.68.21-.69.53l0,.77a.58.58,0,0,0,.24.49c-.21.32-.43.64-.46.68a3.67,3.67,0,0,0-.52.82,3.54,3.54,0,0,0-.34,1.91c0,.61,1,.85,1.15.16a5.64,5.64,0,0,1,1-2.55,2.87,2.87,0,0,0,.66-1.26,2.83,2.83,0,0,0,1-2.2l.34-1.34a3.89,3.89,0,0,0,.5-.18c.12-.15.36-.18.46-.35C107.47,87.71,107.38,87.58,107.17,87.16Z"/><path class="q" d="M124.28,94.16c-.63-1-.35-1.78-.52-2.83a2.51,2.51,0,0,0-.4-.87,3.78,3.78,0,0,1-.47-1.91,1.45,1.45,0,0,0-2.84-.33.4.4,0,0,0,.77.21q.83-.84,1.25.21-.12.38-.26.75a2,2,0,0,0-.08.88,2.8,2.8,0,0,0,.3.64,2.9,2.9,0,0,1,.36,1.55c-.06,1.39.61,3.56,2.27,3.63a.36.36,0,0,0,.35-.35C125,95,124.7,94.83,124.28,94.16Z"/><path class="q" d="M123.76,96.49c-1.85-1-.85-2.61-1.65-3.94a2.23,2.23,0,0,0,.11-1,2.08,2.08,0,0,0-.56-1.18c-.32-.33-.88-.35-1.16-.62-.6-.57,0-1.19-.56-1.84a1,1,0,0,0-1.39-.18c-.55.37-.22,1.39.48,1.13a1.14,1.14,0,0,0-.44,1.66,1.71,1.71,0,0,0,.55.48c.94.48.76-.26,1.52.7a1,1,0,0,0-.26.05c-1.23.44-.59,2,.53,1.9a6,6,0,0,0,.47,2.67,2.93,2.93,0,0,0,1.78,1.56A.75.75,0,0,0,123.76,96.49Z"/><path class="q" d="M108.21,85.43a.19.19,0,0,0-.14-.33c-3.29.09-.38,2.71-1.14,4.36-.48,1-1.16,1.39-1.39,2.6a3.68,3.68,0,0,1-.53,2.18q-.49.4-.95.83a1.73,1.73,0,0,0-.26.88c-.06.71,1,.92,1.3.35.46-.79,1.41-1.08,1.8-2a5.42,5.42,0,0,0,.25-1,5.84,5.84,0,0,1,1-2.81,3.12,3.12,0,0,0,.83-2.2C108.87,87.28,107.52,86.22,108.21,85.43Z"/><path class="q" d="M110.34,72.88a.19.19,0,0,0,0-.35c-3.21-.75-1.05,2.53-2.21,3.93-.73.89-1.48,1-2,2.16a3.68,3.68,0,0,1-1.07,2q-.58.26-1.13.56a1.73,1.73,0,0,0-.47.79c-.24.67.71,1.14,1.17.67.64-.64,1.64-.69,2.26-1.5a5.43,5.43,0,0,0,.49-.87A5.84,5.84,0,0,1,109,77.77a3.12,3.12,0,0,0,1.36-1.92C110.5,74.84,109.47,73.48,110.34,72.88Z"/><path class="q" d="M115.77,72.11a.19.19,0,0,0-.31-.17c-2.51,2.13,1.4,2.35,1.84,4.11.28,1.12,0,1.81.54,2.9a3.67,3.67,0,0,1,.95,2q-.13.62-.22,1.24a1.73,1.73,0,0,0,.35.85c.4.6,1.33.11,1.24-.54-.13-.9.43-1.73.14-2.71a5.42,5.42,0,0,0-.41-.91,5.84,5.84,0,0,1-1-2.79,3.12,3.12,0,0,0-.74-2.23C117.44,73.14,115.73,73.16,115.77,72.11Z"/><path class="q" d="M115.48,70.79a2.7,2.7,0,0,0-1.79.36c-.56.49-.46,1.31-1.31,1.53-1.55.4-2.5-1.79-4.12-.88-1.06.59-.11,2.23,1,1.64,0,0,1.37.84,1.66.94a3.14,3.14,0,0,0,3.6-.89c.17-.2.27-.45.42-.65a.82.82,0,0,0,.16-.27s0,.13.42.12A1,1,0,0,0,115.48,70.79Z"/><path class="j" d="M110.73,83.45h5.11A3.19,3.19,0,0,1,110.73,83.45Z"/><path class="aa" d="M105.44,114.43c-.19-.34-.07-.75-.09-1.14a2.9,2.9,0,0,0-.62-1.43c-.44-.63-.91-1.24-1.41-1.82l.73,4.48c0,.35-.39,2.36-.88,4.71a4.07,4.07,0,0,0,.58-.77l1.21-2a1.92,1.92,0,0,1,.72-.79c.59-.29,1.35.08,1.95-.2l-.11-.23C106.93,114.76,105.82,115.1,105.44,114.43Z"/><circle class="h" cx="115.19" cy="113.79" r="0.54"/><polygon class="g" points="281.81 129.87 276.69 165.97 276.57 195.39 284.36 195.39 285.96 169.7 293.15 143.73 299.76 170.29 303.81 195.39 311.9 195.39 304.04 129.87 281.81 129.87"/><path class="h" d="M276.13,195.08l-1.19,1.29-6.3.72c-1.44.5-1.7.79-2.14,2.25l-.11.36h13l.92-1.15v1.15h4.26v-4.63h-8.44Z"/><path class="h" d="M312,195.08l1.19,1.29,6.3.72c1.44.5,1.7.79,2.14,2.25l.11.36h-13l-.92-1.15v1.15H303.6v-4.63H312Z"/><path class="j" d="M290,88.33l-8.75,4.86.77,20.62-.65,13.51a2.44,2.44,0,0,0,2.43,2.55h18.07a2.44,2.44,0,0,0,2.43-2.63l-1.12-14,4.38-19.49-9.77-5.43Z"/><polygon class="q" points="297.78 88.57 293.88 95.7 289.99 88.57 289.99 83.51 297.78 83.51 297.78 88.57"/><path class="g" d="M301.14,73a4.22,4.22,0,0,0-.39-.94l-1-1.86c-.57-1.11-1.15-1-2.19-1.29a11,11,0,0,0-2.78-1,3.6,3.6,0,0,0-1.8.49,3.32,3.32,0,0,1-.71.32,6.11,6.11,0,0,1-1.31,0,2.48,2.48,0,0,0-2.26,1.82,1.75,1.75,0,0,1-.16.49,1.72,1.72,0,0,1-.3.32c-1.34,1.28-.55,3.42-.33,5,.12.88,0,1.79.74,2.45l-.36-.09a6.28,6.28,0,0,0,3.29,1.59,18.72,18.72,0,0,0,3.7.2l4.46,0a1.31,1.31,0,0,0,.81-.19,1.28,1.28,0,0,0,.36-.87c.24-1.7.08-3.39.22-5.11A4.22,4.22,0,0,0,301.14,73Z"/><path class="i" d="M290,86.42l1.09,1.9a4,4,0,0,0,6.7.38V83.51H290Z"/><path class="q" d="M289.36,75.7v5.93a7.62,7.62,0,0,0,1,3.81l1.14,2a4,4,0,0,0,3.48,2h0a4,4,0,0,0,3.43-1.93l.23-.38a7.62,7.62,0,0,0,1.11-4V72.23H289.51Z"/><path class="q" d="M289.44,82.52l-1.19-.63s-1.26-1.84-.68-3.09c0,0,.43-1.06,1.26-.58L290,79.37Z"/><path class="q" d="M299.49,82.52l1.19-.63s1.26-1.84.68-3.09c0,0-.43-1.06-1.26-.58l-1.16,1.16Z"/><path class="g" d="M289,76.66a19.76,19.76,0,0,1,.22,2.79c0,.37-.17,1.44.62,1.16a.65.65,0,0,0,.34-.6c.06-.9-.69-1.67-.26-2.5.31-.61,1-1,1.18-1.68a5,5,0,0,0-.23-1.49,1.46,1.46,0,0,1,.28-1.1,1,1,0,0,1,1-.33c.36.12.58.47.85.73a2.33,2.33,0,0,0,2.43.49,8.69,8.69,0,0,0,1.36-.85,1.91,1.91,0,0,1,1.52-.35c.74.22,1.07,1.07,1.22,1.83a8.58,8.58,0,0,1,.26,2.53,17.46,17.46,0,0,1-.61,1.92,1.66,1.66,0,0,0-.06.48,1.79,1.79,0,0,0,.33.8.19.19,0,0,0,.08.08c.06,0,.12,0,.17-.06a2.7,2.7,0,0,0,.68-1.6,4.26,4.26,0,0,0,.2-2.06c-.3-1.58.08-3.22-.18-4.81a1,1,0,0,0-.16-.46,1,1,0,0,0-.49-.29,19.23,19.23,0,0,0-7.06-.59,5,5,0,0,0-2.43.52,3.4,3.4,0,0,0-1.44,2.48A11.83,11.83,0,0,0,289,76.66Z"/><path class="j" d="M293.46,84.91l3.84-.17S295.71,88.84,293.46,84.91Z"/><path class="q" d="M268.51,105.94l-.35-1-10.49-6.72h0A1.84,1.84,0,0,1,260,98l2.08,1.3.75-.16a2.35,2.35,0,0,1,1.77.32l1,.66,3.47,1a3.14,3.14,0,0,1,2,1.89l.74,1.94Z"/><path class="q" d="M319.25,105.94l.35-1,10.49-6.72h0a1.84,1.84,0,0,0-2.28-.26l-2.08,1.3L325,99.1a2.35,2.35,0,0,0-1.77.32l-1,.66-3.47,1a3.14,3.14,0,0,0-2,1.89l-.74,1.94Z"/><path class="j" d="M290,88.33l-10.33,5.74a6.22,6.22,0,0,0-3.18,5l-.85,11.23-3.32-5.47-4.43,1.33,6.29,13.94a2.48,2.48,0,0,0,3.36,1.23,4.21,4.21,0,0,0,2-2l3.32-16.54L290,92.15Z"/><path class="j" d="M297.78,88.33l10.33,5.74a6.22,6.22,0,0,1,3.18,5l.85,11.23,3.32-5.47,4.43,1.33-6.29,13.94a2.48,2.48,0,0,1-3.36,1.23,4.21,4.21,0,0,1-2-2l-3.32-16.54-7.13-10.58Z"/><rect class="h" x="281.7" y="128.68" width="22.5" height="3.42"/><rect class="q" x="290.82" y="128.68" width="3.87" height="3.42"/><path class="ab" d="M303.17,113.26l2-9.08a25.64,25.64,0,0,0-1.79,3.29.87.87,0,0,0,.34,1.13,15.69,15.69,0,0,1-2.84,3.44c-.54.59,1,.67,1.68.51l.06,0a22.81,22.81,0,0,1-1.49,2.31c-.35.47-1.2,1.12-.69,1s2,.17,2.39.06c-.19.54-.39,1.08-.62,1.62s.12,1.19.54,1.2c-.32,0,.13,3.2.19,3.5a6.66,6.66,0,0,0,.9,2.36l-.45-7.89,0-.11Z"/><path class="ab" d="M283.94,115.26q-2.66-1.33-1.58-2.7c.72.21,1.7,0,2.42.24.45.13.2-.44-1.21-.59.24,0-1.59-2.23-.93-2.27a.5.5,0,0,0,.43-.74c-.79-1.34-.88-3.32-1.4-4.93l.26,6.88.51.41-.5-.14.09,2.4,0,.83c.06.1.12.21.2.31H282l-.5,10.41a.44.44,0,0,0,.19-.38c0-2.1.67-4,.92-6,.08-.65-.5-3.22,1-2.82A.5.5,0,0,0,283.94,115.26Z"/><polygon class="b" points="289.99 88.33 287.69 89.61 290.39 99.23 293.88 95.7 289.99 88.33"/><polygon class="b" points="297.78 88.33 300.07 89.61 297.37 99.23 293.88 95.7 297.78 88.33"/><circle class="h" cx="293.88" cy="99.06" r="0.4"/><circle class="h" cx="293.69" cy="104.25" r="0.4"/><circle class="h" cx="293.5" cy="109.43" r="0.4"/><circle class="h" cx="293.32" cy="114.62" r="0.4"/><circle class="h" cx="293.13" cy="119.8" r="0.4"/><circle class="h" cx="292.94" cy="124.98" r="0.4"/><g class="u"><path class="h" d="M286,169.7l-.82,13.18-.33.2A52.12,52.12,0,0,0,282.91,171a3.19,3.19,0,0,0,1.78-1.23l-1.4-.16a2,2,0,0,0,.85-.89l-3.06,0a6.45,6.45,0,0,0,4.87-6.27,1.62,1.62,0,0,1-1.12-.21l3.09-4.83a1.09,1.09,0,0,0,.25-.93,4.22,4.22,0,0,1-1.86.89,10.15,10.15,0,0,0,1.95-3.06,25,25,0,0,0,.55-4.24,8.66,8.66,0,0,1,4.31-6.15Zm7.38-25.22,0-.58-.11-.09,0,0Z"/></g><g class="u"><path class="h" d="M311.67,193.47l-7.47-62.34-.27,0-.12.3a49.92,49.92,0,0,0,.31,12.21c.35,2.37.88,4.78.38,7.12a12,12,0,0,1-.8,2.14,15.72,15.72,0,0,0-.61,3,24.48,24.48,0,0,0-.41,3c-.06,1.07-.38,2.09-.38,3.18a17.64,17.64,0,0,0,4.42-1.22,28.84,28.84,0,0,1-1.72,5.47,7.57,7.57,0,0,1,1.84-2.45,13.29,13.29,0,0,0-1.26,4.06l2.46-.27-2.11,4.62,2.6-1.37-.64,11.51a9.9,9.9,0,0,0,.41,4.35A22.64,22.64,0,0,0,310,189.5a8.8,8.8,0,0,1,1.19,5.35C311.37,194.4,311.51,193.93,311.67,193.47Z"/></g><path class="g" d="M122.57,49.13a2.3,2.3,0,1,1,2.3-2.3A2.3,2.3,0,0,1,122.57,49.13Zm0-3.37a1.07,1.07,0,1,0,1.07,1.07A1.08,1.08,0,0,0,122.57,45.76Z"/><path class="g" d="M24.47,72.34a1.22,1.22,0,1,1,1.22-1.22A1.22,1.22,0,0,1,24.47,72.34Zm0-1.79a.57.57,0,1,0,.57.57A.57.57,0,0,0,24.47,70.55Z"/><path class="g" d="M297.3,25.69a1.22,1.22,0,1,1,1.22-1.22A1.22,1.22,0,0,1,297.3,25.69Zm0-1.79a.57.57,0,1,0,.57.57A.57.57,0,0,0,297.3,23.9Z"/><path class="g" d="M210.75,33.15a2.3,2.3,0,1,1,2.3-2.3A2.3,2.3,0,0,1,210.75,33.15Zm0-3.37a1.07,1.07,0,1,0,1.07,1.07A1.08,1.08,0,0,0,210.75,29.78Z"/><path class="q" d="M67.66,72.38a1.54,1.54,0,1,1,1.54-1.54A1.54,1.54,0,0,1,67.66,72.38Zm0-2.26a.72.72,0,1,0,.72.72A.72.72,0,0,0,67.66,70.12Z"/><path class="q" d="M199.21,57.93a1.54,1.54,0,1,1,1.54-1.54A1.54,1.54,0,0,1,199.21,57.93Zm0-2.26a.72.72,0,1,0,.72.72A.72.72,0,0,0,199.21,55.67Z"/><path class="q" d="M99.21,31.67a1.54,1.54,0,1,1,1.54-1.54A1.54,1.54,0,0,1,99.21,31.67Zm0-2.26a.72.72,0,1,0,.72.72A.72.72,0,0,0,99.21,29.41Z"/><path class="q" d="M263.07,27.55A1.54,1.54,0,1,1,264.6,26,1.54,1.54,0,0,1,263.07,27.55Zm0-2.26a.72.72,0,1,0,.72.72A.72.72,0,0,0,263.07,25.29Z"/><path class="g" d="M101.79,42.86h-1.13V41.73a.64.64,0,1,0-1.27,0v1.13H98.27a.64.64,0,1,0,0,1.27h1.13v1.13a.64.64,0,1,0,1.27,0V44.13h1.13a.64.64,0,1,0,0-1.27Z"/><path class="g" d="M271,76.67h-1.13V75.55a.64.64,0,1,0-1.27,0v1.13h-1.13a.64.64,0,1,0,0,1.27h1.13v1.13a.64.64,0,1,0,1.27,0V77.95H271a.64.64,0,1,0,0-1.27Z"/><path class="g" d="M234.85,38.92h-1.13V37.8a.64.64,0,0,0-1.27,0v1.13h-1.13a.64.64,0,1,0,0,1.27h1.13v1.13a.64.64,0,1,0,1.27,0V40.2h1.13a.64.64,0,1,0,0-1.27Z"/><path class="q" d="M20.24,56h-.75v-.75a.43.43,0,0,0-.85,0V56h-.75a.43.43,0,1,0,0,.85h.75v.75a.43.43,0,1,0,.85,0v-.75h.75a.43.43,0,0,0,0-.85Z"/><path class="q" d="M165.53,20.52h-.75v-.75a.43.43,0,1,0-.85,0v.75h-.75a.43.43,0,1,0,0,.85h.75v.75a.43.43,0,1,0,.85,0v-.75h.75a.43.43,0,1,0,0-.85Z"/><path class="q" d="M305.73,43H305v-.75a.43.43,0,0,0-.85,0V43h-.75a.43.43,0,0,0,0,.85h.75v.75a.43.43,0,1,0,.85,0v-.75h.75a.43.43,0,1,0,0-.85Z"/><path class="q" d="M238.55,64.55h-.75V63.8a.43.43,0,0,0-.85,0v.75h-.75a.43.43,0,0,0,0,.85h.75v.75a.43.43,0,1,0,.85,0V65.4h.75a.43.43,0,0,0,0-.85Z"/><path class="q" d="M154.64,75.34h-.75v-.75a.43.43,0,1,0-.85,0v.75h-.75a.43.43,0,1,0,0,.85H153v.75a.43.43,0,1,0,.85,0v-.75h.75a.43.43,0,1,0,0-.85Z"/><path class="q" d="M107.77,66.08l-.5.5-.5-.5a.4.4,0,0,0-.57.57l.5.5-.5.5a.4.4,0,0,0,.57.57l.5-.5.5.5a.4.4,0,0,0,.57-.57l-.5-.5.5-.5a.4.4,0,0,0-.57-.57Z"/><path class="e" d="M30.9,38.34l-.5.5-.5-.5a.4.4,0,1,0-.57.57l.5.5-.5.5a.4.4,0,1,0,.57.57l.5-.5.5.5a.4.4,0,1,0,.57-.57l-.5-.5.5-.5a.4.4,0,0,0-.57-.57Z"/><path class="e" d="M15.88,89.8l-.5.5-.5-.5a.4.4,0,1,0-.57.57l.5.5-.5.5a.4.4,0,1,0,.57.57l.5-.5.5.5a.4.4,0,1,0,.57-.57l-.5-.5.5-.5a.4.4,0,1,0-.57-.57Z"/><path class="e" d="M215.46,67l-.5.5-.5-.5a.4.4,0,0,0-.57.57l.5.5-.5.5a.4.4,0,0,0,.57.57l.5-.5.5.5a.4.4,0,0,0,.57-.57l-.5-.5.5-.5a.4.4,0,0,0-.57-.57Z"/><path class="e" d="M330.31,45.29l-.5.5-.5-.5a.4.4,0,0,0-.57.57l.5.5-.5.5a.4.4,0,0,0,.57.57l.5-.5.5.5a.4.4,0,0,0,.57-.57l-.5-.5.5-.5a.4.4,0,1,0-.57-.57Z"/><path class="e" d="M182.66,22.18l-.5.5-.5-.5a.4.4,0,0,0-.57.57l.5.5-.5.5a.4.4,0,0,0,.57.57l.5-.5.5.5a.4.4,0,1,0,.57-.57l-.5-.5.5-.5a.4.4,0,1,0-.57-.57Z"/><circle class="g" cx="143.16" cy="31.32" r="1.18"/><circle class="g" cx="36.47" cy="66.55" r="0.6"/><circle class="g" cx="218.59" cy="51.23" r="0.79"/><circle class="g" cx="314.63" cy="72.42" r="0.79"/><line class="ac" x1="1.03" y1="199.72" x2="346.5" y2="199.72"/><circle class="q" cx="160.46" cy="189.42" r="9.72"/><circle class="ad" cx="160.46" cy="189.42" r="8.66"/><circle class="q" cx="160.46" cy="189.42" r="7.64"/><path class="h" d="M161.45,193.32h-2.83a1.18,1.18,0,0,1-1.18-1.18v-.61h1.68v.11h2.33a.81.81,0,0,0,.81-.81.53.53,0,0,0-.53-.53h-2.09a2.21,2.21,0,0,1-2.21-2.21v-.3a2.5,2.5,0,0,1,2.49-2.49h2.83a1.18,1.18,0,0,1,1.18,1.18v.69h-1.68V187h-2.33a.81.81,0,0,0-.81.81v.3a.53.53,0,0,0,.53.53h2.09a2.21,2.21,0,0,1,2.21,2.21A2.5,2.5,0,0,1,161.45,193.32Z"/><rect class="h" x="159.85" y="184.47" width="1.68" height="9.9"/><path class="ae" d="M150.74,189.42a9.72,9.72,0,0,0,6.75,9.25,14.56,14.56,0,0,0,3.37-19l-.4,0A9.72,9.72,0,0,0,150.74,189.42Z"/><circle class="q" cx="148.36" cy="187.27" r="11.87"/><circle class="ad" cx="148.36" cy="187.27" r="10.57"/><circle class="q" cx="148.36" cy="187.27" r="9.33"/><path class="h" d="M149.58,192h-3.46a1.44,1.44,0,0,1-1.44-1.44v-.74h2.05V190h2.85a1,1,0,0,0,1-1,.65.65,0,0,0-.65-.65h-2.55a2.7,2.7,0,0,1-2.7-2.7v-.37a3,3,0,0,1,3-3h3.46a1.44,1.44,0,0,1,1.44,1.44v.84h-2.05v-.23h-2.85a1,1,0,0,0-1,1v.37a.65.65,0,0,0,.65.65h2.55a2.7,2.7,0,0,1,2.7,2.7A3,3,0,0,1,149.58,192Z"/><rect class="h" x="147.62" y="181.22" width="2.05" height="12.09"/><path class="q" d="M319.12,75.82l1-5.63a12.83,12.83,0,1,1,4.89,5.62l-5,.92A.78.78,0,0,1,319.12,75.82Z"/><circle class="af" cx="331.77" cy="64.98" r="9.84"/><path class="h" d="M325.55,65.39,328.06,68l.69-.71-1.34-1.39h1.49a2.49,2.49,0,0,1,2.45,2.53v3.34h1V68.41a2.49,2.49,0,0,1,2.45-2.53h1.47l-1.35,1.4.69.71,2.51-2.59-2.51-2.59-.69.71,1.3,1.34h-1.42a3.36,3.36,0,0,0-2.45,1.06V60.77l1.31,1.35.69-.71-2.51-2.59-2.51,2.59.69.71,1.34-1.39v5.19a3.36,3.36,0,0,0-2.45-1.06h-1.46l1.31-1.35-.69-.71Z"/><path class="e" d="M208.21,29.94l1-5.32a12.12,12.12,0,1,1,4.62,5.31l-4.74.87A.74.74,0,0,1,208.21,29.94Z"/><circle class="ag" cx="220.15" cy="19.71" r="9.29"/><path class="j" d="M216.17,15.61V14.05a.39.39,0,0,1,.78,0v1.56a.39.39,0,0,1-.78,0Zm6.63.39a.39.39,0,0,0,.39-.39h0V14.05a.39.39,0,0,0-.78,0v1.56a.39.39,0,0,0,.39.39Zm4.29,7A3.12,3.12,0,1,1,224,19.91h0A3.12,3.12,0,0,1,227.09,23Zm-.78,0A2.34,2.34,0,1,0,224,25.37h0A2.34,2.34,0,0,0,226.31,23Zm-8.58-4.68h-1.56v1.56h1.56Zm-1.56,3.9h1.56V20.69h-1.56Zm2.34-2.34h1.56V18.35h-1.56Zm0,2.34h1.56V20.69h-1.56Zm-3.12.7V17.56H224v1.56h.78v-3a.85.85,0,0,0-.84-.86h-.33v.39a.78.78,0,1,1-1.56,0v-.39h-4.68v.39a.78.78,0,1,1-1.56,0v-.39h-.32a.85.85,0,0,0-.85.86h0v6.87a.85.85,0,0,0,.85.86h4.62V23h-4.62A.07.07,0,0,1,215.39,22.95Zm7-3V18.35h-1.56v1.56ZM225.14,23H224V21.86a.39.39,0,0,0-.78,0v1.56a.39.39,0,0,0,.39.39h1.56a.39.39,0,1,0,0-.78Z"/><circle class="d" cx="81.75" cy="26.08" r="7.06"/><polygon class="j" points="80.61 29.58 77.61 26.58 79.32 24.87 80.61 26.15 84.18 22.58 85.89 24.3 80.61 29.58"/><circle class="q" cx="282.96" cy="18.66" r="8.51"/><path class="j" d="M287.61,17.15a2.71,2.71,0,0,0-4.65-1.9A2.71,2.71,0,0,0,279.07,19l3.88,3.86,4-3.94.16-.19A2.7,2.7,0,0,0,287.61,17.15Z"/><circle class="q" cx="35.49" cy="24.38" r="8.8"/><path class="j" d="M38.67,23.65v-.43h2.15v.43H38.67Zm-1-2.21L39,20.15l.3.31L38,21.74Zm0,3.6a3.47,3.47,0,0,0-.51,1.37v.06a.58.58,0,0,1-.05.23.3.3,0,0,1-.25.14H34.31a.3.3,0,0,1-.3-.29A3.44,3.44,0,0,0,33.5,25,2.72,2.72,0,0,1,33,23.52a2.56,2.56,0,1,1,5.11,0h0A2.72,2.72,0,0,1,37.7,25Zm-2.24-4.47h0V18.22h.45v2.35h-.43ZM32,20.46l.3-.31,1.28,1.28-.3.31Zm.63,3.19H30.5v-.43h2.15v.43Zm1.93,3.46h2a.32.32,0,1,1,0,.62h-2a.32.32,0,1,1,0-.62Zm0,.89h2a.32.32,0,1,1,0,.62h-2a.32.32,0,1,1,0-.62Zm.29.9h1.46a.32.32,0,1,1,0,.62H34.87a.32.32,0,1,1,0-.62Z"/><circle class="g" cx="22.24" cy="73.67" r="6.59"/><path class="j" d="M24.63,77.45l-2.27-1.16a.15.15,0,0,0-.14,0L20,77.51a.15.15,0,0,1-.22-.16l.4-2.52a.15.15,0,0,0,0-.13l-1.85-1.76a.15.15,0,0,1,.08-.26l2.52-.4A.15.15,0,0,0,21,72.2l1.1-2.3a.15.15,0,0,1,.27,0l1.16,2.27a.15.15,0,0,0,.12.08l2.53.33a.15.15,0,0,1,.09.26l-1.8,1.81a.15.15,0,0,0,0,.13l.46,2.51A.15.15,0,0,1,24.63,77.45Z"/><circle class="g" cx="325.25" cy="30.78" r="6.15"/><path class="j" d="M327.48,34.31l-2.12-1.08a.14.14,0,0,0-.13,0l-2.09,1.14a.14.14,0,0,1-.21-.15l.37-2.35a.14.14,0,0,0,0-.12l-1.73-1.64a.14.14,0,0,1,.08-.24l2.35-.37a.14.14,0,0,0,.11-.08l1-2.15a.14.14,0,0,1,.25,0l1.08,2.12a.14.14,0,0,0,.11.08l2.36.31A.14.14,0,0,1,329,30l-1.68,1.68a.14.14,0,0,0,0,.13l.43,2.34A.14.14,0,0,1,327.48,34.31Z"/><circle class="g" cx="152.82" cy="20.94" r="6.15"/><path class="j" d="M155,24.47l-2.12-1.08a.14.14,0,0,0-.13,0l-2.09,1.14a.14.14,0,0,1-.21-.15l.37-2.35a.14.14,0,0,0,0-.12l-1.73-1.64a.14.14,0,0,1,.08-.24l2.35-.37a.14.14,0,0,0,.11-.08l1-2.15a.14.14,0,0,1,.25,0L154,19.54a.14.14,0,0,0,.11.08l2.36.31a.14.14,0,0,1,.08.24l-1.68,1.68a.14.14,0,0,0,0,.13l.43,2.34A.14.14,0,0,1,155,24.47Z"/><circle class="n" cx="16.52" cy="116" r="11.4"/><path class="j" d="M23.24,111.47l-.83.78c0,.06,0,0,0,0L20.15,110c-.06,0,0,0,0,0l.74-.69.1-.15.2,0v0h.64v0h.15l0,.1h.1l.39.44c.27.27.76.6.88,1v.64C23.24,111.35,23.29,111.38,23.24,111.47Zm-2.75-.54a1.5,1.5,0,0,1-.29.29l-.69.69-1.62,1.66-.54.49v0l-1.08,1a2.69,2.69,0,0,1-.49.49c0,.06,0,0,0,0a.48.48,0,0,0-.2-.2v0h0a4.9,4.9,0,0,1-.25.78v.2h0c0,.44.37.5.54.78a2.34,2.34,0,0,0,.78-.2c.16-.06.28,0,.39-.1s0,0,0,0a2.37,2.37,0,0,1-.44-.44,2,2,0,0,1-.39-.39c-.06,0,0,0,0,0l4.71-4.65v0h0a3.88,3.88,0,0,0,.69.69,3.24,3.24,0,0,0,.59.59,3.27,3.27,0,0,1-.59.59l-.88.93-.39.34L17.65,117l-.34,0v0l-.34,0v0l-.34,0v0l-.54.1v0h-.15v0h-.2v0h-.15v0l-.34,0v0l-.39,0v0l-.34,0,.2-.88h0v-.2h0l0-.34h0l.1-.54h0v-.15h0l.25-1,2.6-2.55L19,111.08l.2-.15a3.35,3.35,0,0,1,.59-.59v0h0a3.14,3.14,0,0,0,.64.63Zm-9.23,10.48H20.6v-4.93h1v6H10.21V109.2h7.11v1H11.26v11.16Z"/><path class="g" d="M328.65,90.11h-1.41V88.7a.8.8,0,0,0-1.59,0v1.41h-1.41a.8.8,0,0,0,0,1.59h1.41v1.41a.8.8,0,1,0,1.59,0V91.7h1.41a.8.8,0,0,0,0-1.59Z"/><path class="g" d="M292.74,46.36h-.93v-.93a.52.52,0,0,0-1,0v.93h-.93a.52.52,0,0,0,0,1h.93v.93a.52.52,0,0,0,1,0v-.93h.93a.52.52,0,0,0,0-1Z"/><path class="q" d="M38.29,85.66H37V84.33a.75.75,0,0,0-1.5,0v1.33H34.13a.75.75,0,0,0,0,1.5h1.33v1.33a.75.75,0,1,0,1.5,0V87.16h1.33a.75.75,0,1,0,0-1.5Z"/><path class="g" d="M22.54,48.74H21.21V47.41a.75.75,0,0,0-1.5,0v1.33H18.38a.75.75,0,0,0,0,1.5h1.33v1.33a.75.75,0,0,0,1.5,0V50.25h1.33a.75.75,0,0,0,0-1.5Z"/><path class="g" d="M311.72,2.08h-1.33V.75a.75.75,0,0,0-1.5,0V2.08h-1.33a.75.75,0,0,0,0,1.5h1.33V4.91a.75.75,0,1,0,1.5,0V3.58h1.33a.75.75,0,0,0,0-1.5Z"/><path class="g" d="M100.61,11.59h-.8v-.8a.45.45,0,0,0-.91,0v.8h-.8a.45.45,0,0,0,0,.91h.8v.8a.45.45,0,1,0,.91,0v-.8h.8a.45.45,0,1,0,0-.91Z"/><path class="g" d="M55.95,6.09h-.8v-.8a.45.45,0,0,0-.91,0v.8h-.8a.45.45,0,0,0,0,.91h.8v.8a.45.45,0,0,0,.91,0V7h.8a.45.45,0,0,0,0-.91Z"/><path class="q" d="M347.61,40.77l-1.07,1.07-1.07-1.07A.85.85,0,1,0,344.26,42L345.33,43l-1.07,1.07a.85.85,0,0,0,1.21,1.21l1.07-1.07,1.07,1.07a.85.85,0,0,0,1.21-1.21L347.74,43,348.81,42a.85.85,0,0,0-1.21-1.21Z"/><path class="q" d="M270.7,22.2l-.62.62-.62-.62a.49.49,0,1,0-.7.7l.62.62-.62.62a.49.49,0,1,0,.7.7l.62-.62.62.62a.49.49,0,1,0,.7-.7l-.62-.62.62-.62a.49.49,0,0,0-.7-.7Z"/><path class="q" d="M58.25,31.46l-.89.89-.89-.89a.71.71,0,1,0-1,1l.89.89-.89.89a.71.71,0,0,0,1,1l.89-.89.89.89a.71.71,0,1,0,1-1l-.89-.89.89-.89a.71.71,0,1,0-1-1Z"/><circle class="g" cx="323.37" cy="52.03" r="0.91"/><circle class="g" cx="287.73" cy="4.57" r="0.91"/><circle class="g" cx="72.97" cy="46.66" r="0.91"/><circle class="g" cx="0.91" cy="24.38" r="0.91"/><path class="ah" d="M89.47,63l-1.12-6.58A6.74,6.74,0,0,0,88.51,55a6.81,6.81,0,0,0-6.79-6.79H30.09a6.79,6.79,0,0,0,0,13.57H81.9l6.26,2.33A1,1,0,0,0,89.47,63Z"/><circle class="j" cx="30.5" cy="55.01" r="3.78"/><rect class="j" x="42.21" y="52.37" width="22.1" height="1.54" rx="0.77" ry="0.77"/><rect class="j" x="42.21" y="56.27" width="36.7" height="1.54" rx="0.77" ry="0.77"/><path class="e" d="M204.45,66.61l-1.25-7.39a7.57,7.57,0,0,0,.18-1.61A7.64,7.64,0,0,0,195.75,50h-58a7.62,7.62,0,1,0,0,15.24h58.18l7,2.61A1.11,1.11,0,0,0,204.45,66.61Z"/><circle class="j" cx="138.22" cy="57.61" r="4.24"/><rect class="j" x="151.37" y="54.64" width="24.82" height="1.73" rx="0.87" ry="0.87"/><rect class="j" x="151.37" y="59.02" width="41.21" height="1.73" rx="0.87" ry="0.87"/><path class="g" d="M237.61,63.7l1.25-7.39a7.57,7.57,0,0,1-.18-1.61,7.64,7.64,0,0,1,7.62-7.62h58a7.62,7.62,0,0,1,0,15.24H246.12l-7,2.61A1.11,1.11,0,0,1,237.61,63.7Z"/><circle class="g" cx="245.67" cy="54.7" r="4.24"/><rect class="g" x="258.82" y="51.73" width="24.82" height="1.73" rx="0.87" ry="0.87"/><rect class="g" x="258.82" y="56.11" width="41.21" height="1.73" rx="0.87" ry="0.87"/><path class="d" d="M237.61,63.7l1.25-7.39a7.57,7.57,0,0,1-.18-1.61,7.64,7.64,0,0,1,7.62-7.62h58a7.62,7.62,0,0,1,0,15.24H246.12l-7,2.61A1.11,1.11,0,0,1,237.61,63.7Z"/><circle class="j" cx="245.67" cy="54.7" r="4.24"/><rect class="j" x="258.82" y="51.73" width="24.82" height="1.73" rx="0.87" ry="0.87"/><rect class="j" x="258.82" y="56.11" width="41.21" height="1.73" rx="0.87" ry="0.87"/><path class="g" d="M114.84,50l1.25-7.39a7.57,7.57,0,0,1-.18-1.61,7.64,7.64,0,0,1,7.62-7.62h58a7.62,7.62,0,0,1,0,15.24H123.36l-7,2.61A1.11,1.11,0,0,1,114.84,50Z"/><circle class="g" cx="122.9" cy="41" r="4.24"/><rect class="g" x="136.06" y="38.04" width="24.82" height="1.73" rx="0.87" ry="0.87"/><rect class="g" x="136.06" y="42.42" width="41.21" height="1.73" rx="0.87" ry="0.87"/><path class="d" d="M114.84,50l1.25-7.39a7.57,7.57,0,0,1-.18-1.61,7.64,7.64,0,0,1,7.62-7.62h58a7.62,7.62,0,0,1,0,15.24H123.36l-7,2.61A1.11,1.11,0,0,1,114.84,50Z"/><circle class="j" cx="122.9" cy="41" r="4.24"/><rect class="j" x="136.06" y="38.04" width="24.82" height="1.73" rx="0.87" ry="0.87"/><rect class="j" x="136.06" y="42.42" width="41.21" height="1.73" rx="0.87" ry="0.87"/><path class="g" d="M294.82,47.08l-1.25-7.39a7.57,7.57,0,0,0,.18-1.61,7.64,7.64,0,0,0-7.62-7.62h-58a7.62,7.62,0,0,0,0,15.24h58.18l7,2.61A1.11,1.11,0,0,0,294.82,47.08Z"/><circle class="g" cx="228.59" cy="38.08" r="4.24"/><rect class="g" x="241.74" y="35.11" width="24.82" height="1.73" rx="0.87" ry="0.87"/><rect class="g" x="241.74" y="39.49" width="41.21" height="1.73" rx="0.87" ry="0.87"/><path class="g" d="M294.82,47.08l-1.25-7.39a7.57,7.57,0,0,0,.18-1.61,7.64,7.64,0,0,0-7.62-7.62h-58a7.62,7.62,0,0,0,0,15.24h58.18l7,2.61A1.11,1.11,0,0,0,294.82,47.08Z"/><circle class="j" cx="228.59" cy="38.08" r="4.24"/><rect class="j" x="241.74" y="35.11" width="24.82" height="1.73" rx="0.87" ry="0.87"/><rect class="j" x="241.74" y="39.49" width="41.21" height="1.73" rx="0.87" ry="0.87"/></svg>